<?xml version="1.0" encoding="UTF-8"?>
<svg xmlns="http://www.w3.org/2000/svg" width="604" height="560" viewBox="0 0 604 560" fill="none">
  <path d="M189.582 14.8131L223.35 8.5832L227.973 33.6419L220.29 44.0643L195.812 48.5804L189.582 14.8131Z" stroke="white"></path>
  <path d="M257.316 16V6.2H258.814L264.96 13.746H264.218V6.2H266.024V16H264.526L258.38 8.454H259.122V16H257.316ZM271.996 16.098C271.165 16.098 270.437 15.9347 269.812 15.608C269.196 15.272 268.715 14.8147 268.37 14.236C268.034 13.6573 267.866 12.9993 267.866 12.262C267.866 11.5153 268.029 10.8573 268.356 10.288C268.692 9.70933 269.149 9.25667 269.728 8.93C270.316 8.60333 270.983 8.44 271.73 8.44C272.458 8.44 273.107 8.59867 273.676 8.916C274.245 9.23333 274.693 9.68133 275.02 10.26C275.347 10.8387 275.51 11.52 275.51 12.304C275.51 12.3787 275.505 12.4627 275.496 12.556C275.496 12.6493 275.491 12.738 275.482 12.822H269.252V11.66H274.558L273.872 12.024C273.881 11.5947 273.793 11.2167 273.606 10.89C273.419 10.5633 273.163 10.3067 272.836 10.12C272.519 9.93333 272.15 9.84 271.73 9.84C271.301 9.84 270.923 9.93333 270.596 10.12C270.279 10.3067 270.027 10.568 269.84 10.904C269.663 11.2307 269.574 11.618 269.574 12.066V12.346C269.574 12.794 269.677 13.1907 269.882 13.536C270.087 13.8813 270.377 14.1473 270.75 14.334C271.123 14.5207 271.553 14.614 272.038 14.614C272.458 14.614 272.836 14.5487 273.172 14.418C273.508 14.2873 273.807 14.082 274.068 13.802L275.006 14.88C274.67 15.272 274.245 15.5753 273.732 15.79C273.228 15.9953 272.649 16.098 271.996 16.098ZM278.706 16L275.962 8.524H277.614L279.966 15.118H279.182L281.646 8.524H283.116L285.51 15.118H284.74L287.162 8.524H288.716L285.958 16H284.278L282.094 10.162H282.612L280.386 16H278.706ZM297.933 16.098C297.326 16.098 296.771 15.958 296.267 15.678C295.772 15.398 295.375 14.978 295.077 14.418C294.787 13.8487 294.643 13.13 294.643 12.262C294.643 11.3847 294.783 10.666 295.063 10.106C295.352 9.546 295.744 9.13067 296.239 8.86C296.733 8.58 297.298 8.44 297.933 8.44C298.67 8.44 299.319 8.59867 299.879 8.916C300.448 9.23333 300.896 9.67667 301.223 10.246C301.559 10.8153 301.727 11.4873 301.727 12.262C301.727 13.0367 301.559 13.7133 301.223 14.292C300.896 14.8613 300.448 15.3047 299.879 15.622C299.319 15.9393 298.67 16.098 297.933 16.098ZM293.789 18.716V8.524H295.455V10.288L295.399 12.276L295.539 14.264V18.716H293.789ZM297.737 14.6C298.157 14.6 298.53 14.5067 298.857 14.32C299.193 14.1333 299.459 13.8627 299.655 13.508C299.851 13.1533 299.949 12.738 299.949 12.262C299.949 11.7767 299.851 11.3613 299.655 11.016C299.459 10.6613 299.193 10.3907 298.857 10.204C298.53 10.0173 298.157 9.924 297.737 9.924C297.317 9.924 296.939 10.0173 296.603 10.204C296.267 10.3907 296.001 10.6613 295.805 11.016C295.609 11.3613 295.511 11.7767 295.511 12.262C295.511 12.738 295.609 13.1533 295.805 13.508C296.001 13.8627 296.267 14.1333 296.603 14.32C296.939 14.5067 297.317 14.6 297.737 14.6ZM303.386 16V5.612H305.136V16H303.386ZM312.039 16V14.488L311.941 14.166V11.52C311.941 11.0067 311.787 10.61 311.479 10.33C311.171 10.0407 310.704 9.896 310.079 9.896C309.659 9.896 309.244 9.96133 308.833 10.092C308.432 10.2227 308.091 10.4047 307.811 10.638L307.125 9.364C307.526 9.056 308.002 8.82733 308.553 8.678C309.113 8.51933 309.692 8.44 310.289 8.44C311.372 8.44 312.207 8.70133 312.795 9.224C313.392 9.73733 313.691 10.5353 313.691 11.618V16H312.039ZM309.687 16.098C309.127 16.098 308.637 16.0047 308.217 15.818C307.797 15.622 307.47 15.356 307.237 15.02C307.013 14.6747 306.901 14.2873 306.901 13.858C306.901 13.438 306.999 13.06 307.195 12.724C307.4 12.388 307.732 12.122 308.189 11.926C308.646 11.73 309.253 11.632 310.009 11.632H312.179V12.794H310.135C309.538 12.794 309.136 12.892 308.931 13.088C308.726 13.2747 308.623 13.508 308.623 13.788C308.623 14.1053 308.749 14.3573 309.001 14.544C309.253 14.7307 309.603 14.824 310.051 14.824C310.48 14.824 310.863 14.726 311.199 14.53C311.544 14.334 311.792 14.0447 311.941 13.662L312.235 14.712C312.067 15.1507 311.764 15.4913 311.325 15.734C310.896 15.9767 310.35 16.098 309.687 16.098ZM318.751 16.098C317.93 16.098 317.295 15.888 316.847 15.468C316.399 15.0387 316.175 14.4087 316.175 13.578V6.872H317.925V13.536C317.925 13.8907 318.014 14.166 318.191 14.362C318.378 14.558 318.634 14.656 318.961 14.656C319.353 14.656 319.68 14.5533 319.941 14.348L320.431 15.594C320.226 15.762 319.974 15.888 319.675 15.972C319.376 16.056 319.068 16.098 318.751 16.098ZM314.943 9.98V8.58H319.927V9.98H314.943ZM322.109 16V8.104C322.109 7.32 322.337 6.69467 322.795 6.228C323.261 5.752 323.924 5.514 324.783 5.514C325.091 5.514 325.38 5.54667 325.651 5.612C325.931 5.67733 326.164 5.78 326.351 5.92L325.875 7.236C325.744 7.13333 325.595 7.05867 325.427 7.012C325.259 6.956 325.086 6.928 324.909 6.928C324.545 6.928 324.269 7.03067 324.083 7.236C323.896 7.432 323.803 7.73067 323.803 8.132V8.972L323.859 9.756V16H322.109ZM320.877 9.98V8.58H325.861V9.98H320.877ZM330.289 16.098C329.524 16.098 328.843 15.9347 328.245 15.608C327.648 15.272 327.177 14.8147 326.831 14.236C326.486 13.6573 326.313 12.9993 326.313 12.262C326.313 11.5153 326.486 10.8573 326.831 10.288C327.177 9.70933 327.648 9.25667 328.245 8.93C328.843 8.60333 329.524 8.44 330.289 8.44C331.064 8.44 331.75 8.60333 332.347 8.93C332.954 9.25667 333.425 9.70467 333.761 10.274C334.107 10.8433 334.279 11.506 334.279 12.262C334.279 12.9993 334.107 13.6573 333.761 14.236C333.425 14.8147 332.954 15.272 332.347 15.608C331.75 15.9347 331.064 16.098 330.289 16.098ZM330.289 14.6C330.719 14.6 331.101 14.5067 331.437 14.32C331.773 14.1333 332.035 13.8627 332.221 13.508C332.417 13.1533 332.515 12.738 332.515 12.262C332.515 11.7767 332.417 11.3613 332.221 11.016C332.035 10.6613 331.773 10.3907 331.437 10.204C331.101 10.0173 330.723 9.924 330.303 9.924C329.874 9.924 329.491 10.0173 329.155 10.204C328.829 10.3907 328.567 10.6613 328.371 11.016C328.175 11.3613 328.077 11.7767 328.077 12.262C328.077 12.738 328.175 13.1533 328.371 13.508C328.567 13.8627 328.829 14.1333 329.155 14.32C329.491 14.5067 329.869 14.6 330.289 14.6ZM335.953 16V8.524H337.619V10.582L337.423 9.98C337.647 9.476 337.997 9.09333 338.473 8.832C338.958 8.57067 339.56 8.44 340.279 8.44V10.106C340.204 10.0873 340.134 10.078 340.069 10.078C340.003 10.0687 339.938 10.064 339.873 10.064C339.21 10.064 338.683 10.26 338.291 10.652C337.899 11.0347 337.703 11.6087 337.703 12.374V16H335.953ZM351.199 8.44C351.797 8.44 352.324 8.55667 352.781 8.79C353.248 9.02333 353.612 9.38267 353.873 9.868C354.135 10.344 354.265 10.96 354.265 11.716V16H352.515V11.94C352.515 11.2773 352.371 10.7827 352.081 10.456C351.792 10.1293 351.377 9.966 350.835 9.966C350.453 9.966 350.112 10.05 349.813 10.218C349.524 10.386 349.295 10.6333 349.127 10.96C348.969 11.2867 348.889 11.702 348.889 12.206V16H347.139V11.94C347.139 11.2773 346.995 10.7827 346.705 10.456C346.416 10.1293 346.001 9.966 345.459 9.966C345.077 9.966 344.736 10.05 344.437 10.218C344.148 10.386 343.919 10.6333 343.751 10.96C343.593 11.2867 343.513 11.702 343.513 12.206V16H341.763V8.524H343.429V10.512L343.135 9.924C343.387 9.43867 343.751 9.07 344.227 8.818C344.713 8.566 345.263 8.44 345.879 8.44C346.579 8.44 347.186 8.61267 347.699 8.958C348.222 9.30333 348.567 9.826 348.735 10.526L348.049 10.288C348.292 9.728 348.693 9.28 349.253 8.944C349.813 8.608 350.462 8.44 351.199 8.44ZM356.04 18.114L356.852 15.02L357.09 16.056C356.763 16.056 356.488 15.958 356.264 15.762C356.049 15.5567 355.942 15.2813 355.942 14.936C355.942 14.5813 356.049 14.3013 356.264 14.096C356.488 13.8813 356.758 13.774 357.076 13.774C357.402 13.774 357.673 13.8813 357.888 14.096C358.102 14.3107 358.21 14.5907 358.21 14.936C358.21 15.0293 358.2 15.132 358.182 15.244C358.163 15.3467 358.13 15.468 358.084 15.608C358.046 15.748 357.981 15.9253 357.888 16.14L357.174 18.114H356.04ZM261.39 29.44C261.987 29.44 262.519 29.5567 262.986 29.79C263.462 30.0233 263.835 30.3827 264.106 30.868C264.377 31.344 264.512 31.96 264.512 32.716V37H262.762V32.94C262.762 32.2773 262.603 31.7827 262.286 31.456C261.978 31.1293 261.544 30.966 260.984 30.966C260.573 30.966 260.209 31.05 259.892 31.218C259.575 31.386 259.327 31.638 259.15 31.974C258.982 32.3007 258.898 32.716 258.898 33.22V37H257.148V29.524H258.814V31.54L258.52 30.924C258.781 30.448 259.159 30.084 259.654 29.832C260.158 29.5707 260.737 29.44 261.39 29.44ZM270.26 37.098C269.429 37.098 268.701 36.9347 268.076 36.608C267.46 36.272 266.979 35.8147 266.634 35.236C266.298 34.6573 266.13 33.9993 266.13 33.262C266.13 32.5153 266.293 31.8573 266.62 31.288C266.956 30.7093 267.413 30.2567 267.992 29.93C268.58 29.6033 269.247 29.44 269.994 29.44C270.722 29.44 271.37 29.5987 271.94 29.916C272.509 30.2333 272.957 30.6813 273.284 31.26C273.61 31.8387 273.774 32.52 273.774 33.304C273.774 33.3787 273.769 33.4627 273.76 33.556C273.76 33.6493 273.755 33.738 273.746 33.822H267.516V32.66H272.822L272.136 33.024C272.145 32.5947 272.056 32.2167 271.87 31.89C271.683 31.5633 271.426 31.3067 271.1 31.12C270.782 30.9333 270.414 30.84 269.994 30.84C269.564 30.84 269.186 30.9333 268.86 31.12C268.542 31.3067 268.29 31.568 268.104 31.904C267.926 32.2307 267.838 32.618 267.838 33.066V33.346C267.838 33.794 267.94 34.1907 268.146 34.536C268.351 34.8813 268.64 35.1473 269.014 35.334C269.387 35.5207 269.816 35.614 270.302 35.614C270.722 35.614 271.1 35.5487 271.436 35.418C271.772 35.2873 272.07 35.082 272.332 34.802L273.27 35.88C272.934 36.272 272.509 36.5753 271.996 36.79C271.492 36.9953 270.913 37.098 270.26 37.098ZM276.97 37L274.226 29.524H275.878L278.23 36.118H277.446L279.91 29.524H281.38L283.774 36.118H283.004L285.426 29.524H286.98L284.222 37H282.542L280.358 31.162H280.876L278.65 37H276.97ZM295.412 37.098C294.647 37.098 293.966 36.9347 293.368 36.608C292.771 36.272 292.3 35.8147 291.954 35.236C291.609 34.6573 291.436 33.9993 291.436 33.262C291.436 32.5153 291.609 31.8573 291.954 31.288C292.3 30.7093 292.771 30.2567 293.368 29.93C293.966 29.6033 294.647 29.44 295.412 29.44C296.187 29.44 296.873 29.6033 297.47 29.93C298.077 30.2567 298.548 30.7047 298.884 31.274C299.23 31.8433 299.402 32.506 299.402 33.262C299.402 33.9993 299.23 34.6573 298.884 35.236C298.548 35.8147 298.077 36.272 297.47 36.608C296.873 36.9347 296.187 37.098 295.412 37.098ZM295.412 35.6C295.842 35.6 296.224 35.5067 296.56 35.32C296.896 35.1333 297.158 34.8627 297.344 34.508C297.54 34.1533 297.638 33.738 297.638 33.262C297.638 32.7767 297.54 32.3613 297.344 32.016C297.158 31.6613 296.896 31.3907 296.56 31.204C296.224 31.0173 295.846 30.924 295.426 30.924C294.997 30.924 294.614 31.0173 294.278 31.204C293.952 31.3907 293.69 31.6613 293.494 32.016C293.298 32.3613 293.2 32.7767 293.2 33.262C293.2 33.738 293.298 34.1533 293.494 34.508C293.69 34.8627 293.952 35.1333 294.278 35.32C294.614 35.5067 294.992 35.6 295.412 35.6ZM305.22 37.098C304.613 37.098 304.058 36.958 303.554 36.678C303.059 36.398 302.662 35.978 302.364 35.418C302.074 34.8487 301.93 34.13 301.93 33.262C301.93 32.3847 302.07 31.666 302.35 31.106C302.639 30.546 303.031 30.1307 303.526 29.86C304.02 29.58 304.585 29.44 305.22 29.44C305.957 29.44 306.606 29.5987 307.166 29.916C307.735 30.2333 308.183 30.6767 308.51 31.246C308.846 31.8153 309.014 32.4873 309.014 33.262C309.014 34.0367 308.846 34.7133 308.51 35.292C308.183 35.8613 307.735 36.3047 307.166 36.622C306.606 36.9393 305.957 37.098 305.22 37.098ZM301.076 39.716V29.524H302.742V31.288L302.686 33.276L302.826 35.264V39.716H301.076ZM305.024 35.6C305.444 35.6 305.817 35.5067 306.144 35.32C306.48 35.1333 306.746 34.8627 306.942 34.508C307.138 34.1533 307.236 33.738 307.236 33.262C307.236 32.7767 307.138 32.3613 306.942 32.016C306.746 31.6613 306.48 31.3907 306.144 31.204C305.817 31.0173 305.444 30.924 305.024 30.924C304.604 30.924 304.226 31.0173 303.89 31.204C303.554 31.3907 303.288 31.6613 303.092 32.016C302.896 32.3613 302.798 32.7767 302.798 33.262C302.798 33.738 302.896 34.1533 303.092 34.508C303.288 34.8627 303.554 35.1333 303.89 35.32C304.226 35.5067 304.604 35.6 305.024 35.6ZM314.817 37.098C314.211 37.098 313.655 36.958 313.151 36.678C312.657 36.398 312.26 35.978 311.961 35.418C311.672 34.8487 311.527 34.13 311.527 33.262C311.527 32.3847 311.667 31.666 311.947 31.106C312.237 30.546 312.629 30.1307 313.123 29.86C313.618 29.58 314.183 29.44 314.817 29.44C315.555 29.44 316.203 29.5987 316.763 29.916C317.333 30.2333 317.781 30.6767 318.107 31.246C318.443 31.8153 318.611 32.4873 318.611 33.262C318.611 34.0367 318.443 34.7133 318.107 35.292C317.781 35.8613 317.333 36.3047 316.763 36.622C316.203 36.9393 315.555 37.098 314.817 37.098ZM310.673 39.716V29.524H312.339V31.288L312.283 33.276L312.423 35.264V39.716H310.673ZM314.621 35.6C315.041 35.6 315.415 35.5067 315.741 35.32C316.077 35.1333 316.343 34.8627 316.539 34.508C316.735 34.1533 316.833 33.738 316.833 33.262C316.833 32.7767 316.735 32.3613 316.539 32.016C316.343 31.6613 316.077 31.3907 315.741 31.204C315.415 31.0173 315.041 30.924 314.621 30.924C314.201 30.924 313.823 31.0173 313.487 31.204C313.151 31.3907 312.885 31.6613 312.689 32.016C312.493 32.3613 312.395 32.7767 312.395 33.262C312.395 33.738 312.493 34.1533 312.689 34.508C312.885 34.8627 313.151 35.1333 313.487 35.32C313.823 35.5067 314.201 35.6 314.621 35.6ZM323.631 37.098C322.866 37.098 322.184 36.9347 321.587 36.608C320.99 36.272 320.518 35.8147 320.173 35.236C319.828 34.6573 319.655 33.9993 319.655 33.262C319.655 32.5153 319.828 31.8573 320.173 31.288C320.518 30.7093 320.99 30.2567 321.587 29.93C322.184 29.6033 322.866 29.44 323.631 29.44C324.406 29.44 325.092 29.6033 325.689 29.93C326.296 30.2567 326.767 30.7047 327.103 31.274C327.448 31.8433 327.621 32.506 327.621 33.262C327.621 33.9993 327.448 34.6573 327.103 35.236C326.767 35.8147 326.296 36.272 325.689 36.608C325.092 36.9347 324.406 37.098 323.631 37.098ZM323.631 35.6C324.06 35.6 324.443 35.5067 324.779 35.32C325.115 35.1333 325.376 34.8627 325.563 34.508C325.759 34.1533 325.857 33.738 325.857 33.262C325.857 32.7767 325.759 32.3613 325.563 32.016C325.376 31.6613 325.115 31.3907 324.779 31.204C324.443 31.0173 324.065 30.924 323.645 30.924C323.216 30.924 322.833 31.0173 322.497 31.204C322.17 31.3907 321.909 31.6613 321.713 32.016C321.517 32.3613 321.419 32.7767 321.419 33.262C321.419 33.738 321.517 34.1533 321.713 34.508C321.909 34.8627 322.17 35.1333 322.497 35.32C322.833 35.5067 323.211 35.6 323.631 35.6ZM329.294 37V29.524H330.96V31.582L330.764 30.98C330.988 30.476 331.338 30.0933 331.814 29.832C332.3 29.5707 332.902 29.44 333.62 29.44V31.106C333.546 31.0873 333.476 31.078 333.41 31.078C333.345 31.0687 333.28 31.064 333.214 31.064C332.552 31.064 332.024 31.26 331.632 31.652C331.24 32.0347 331.044 32.6087 331.044 33.374V37H329.294ZM338.192 37.098C337.371 37.098 336.736 36.888 336.288 36.468C335.84 36.0387 335.616 35.4087 335.616 34.578V27.872H337.366V34.536C337.366 34.8907 337.455 35.166 337.632 35.362C337.819 35.558 338.076 35.656 338.402 35.656C338.794 35.656 339.121 35.5533 339.382 35.348L339.872 36.594C339.667 36.762 339.415 36.888 339.116 36.972C338.818 37.056 338.51 37.098 338.192 37.098ZM334.384 30.98V29.58H339.368V30.98H334.384ZM344.476 37.098C343.841 37.098 343.281 36.9813 342.796 36.748C342.311 36.5053 341.933 36.1413 341.662 35.656C341.391 35.1613 341.256 34.5407 341.256 33.794V29.524H343.006V33.556C343.006 34.228 343.155 34.732 343.454 35.068C343.762 35.3947 344.196 35.558 344.756 35.558C345.167 35.558 345.521 35.474 345.82 35.306C346.128 35.138 346.366 34.886 346.534 34.55C346.711 34.214 346.8 33.7987 346.8 33.304V29.524H348.55V37H346.884V34.984L347.178 35.6C346.926 36.0853 346.557 36.4587 346.072 36.72C345.587 36.972 345.055 37.098 344.476 37.098ZM355.083 29.44C355.681 29.44 356.213 29.5567 356.679 29.79C357.155 30.0233 357.529 30.3827 357.799 30.868C358.07 31.344 358.205 31.96 358.205 32.716V37H356.455V32.94C356.455 32.2773 356.297 31.7827 355.979 31.456C355.671 31.1293 355.237 30.966 354.677 30.966C354.267 30.966 353.903 31.05 353.585 31.218C353.268 31.386 353.021 31.638 352.843 31.974C352.675 32.3007 352.591 32.716 352.591 33.22V37H350.841V29.524H352.507V31.54L352.213 30.924C352.475 30.448 352.853 30.084 353.347 29.832C353.851 29.5707 354.43 29.44 355.083 29.44ZM360.425 37V29.524H362.175V37H360.425ZM361.307 28.292C360.981 28.292 360.71 28.1893 360.495 27.984C360.29 27.7787 360.187 27.5313 360.187 27.242C360.187 26.9433 360.29 26.696 360.495 26.5C360.71 26.2947 360.981 26.192 361.307 26.192C361.634 26.192 361.9 26.29 362.105 26.486C362.32 26.6727 362.427 26.9107 362.427 27.2C362.427 27.508 362.325 27.7693 362.119 27.984C361.914 28.1893 361.643 28.292 361.307 28.292ZM367.286 37.098C366.465 37.098 365.83 36.888 365.382 36.468C364.934 36.0387 364.71 35.4087 364.71 34.578V27.872H366.46V34.536C366.46 34.8907 366.549 35.166 366.726 35.362C366.913 35.558 367.17 35.656 367.496 35.656C367.888 35.656 368.215 35.5533 368.476 35.348L368.966 36.594C368.761 36.762 368.509 36.888 368.21 36.972C367.912 37.056 367.604 37.098 367.286 37.098ZM363.478 30.98V29.58H368.462V30.98H363.478ZM370.406 37V29.524H372.156V37H370.406ZM371.288 28.292C370.961 28.292 370.69 28.1893 370.476 27.984C370.27 27.7787 370.168 27.5313 370.168 27.242C370.168 26.9433 370.27 26.696 370.476 26.5C370.69 26.2947 370.961 26.192 371.288 26.192C371.614 26.192 371.88 26.29 372.086 26.486C372.3 26.6727 372.408 26.9107 372.408 27.2C372.408 27.508 372.305 27.7693 372.1 27.984C371.894 28.1893 371.624 28.292 371.288 28.292ZM377.967 37.098C377.136 37.098 376.408 36.9347 375.783 36.608C375.167 36.272 374.686 35.8147 374.341 35.236C374.005 34.6573 373.837 33.9993 373.837 33.262C373.837 32.5153 374 31.8573 374.327 31.288C374.663 30.7093 375.12 30.2567 375.699 29.93C376.287 29.6033 376.954 29.44 377.701 29.44C378.429 29.44 379.077 29.5987 379.647 29.916C380.216 30.2333 380.664 30.6813 380.991 31.26C381.317 31.8387 381.481 32.52 381.481 33.304C381.481 33.3787 381.476 33.4627 381.467 33.556C381.467 33.6493 381.462 33.738 381.453 33.822H375.223V32.66H380.529L379.843 33.024C379.852 32.5947 379.763 32.2167 379.577 31.89C379.39 31.5633 379.133 31.3067 378.807 31.12C378.489 30.9333 378.121 30.84 377.701 30.84C377.271 30.84 376.893 30.9333 376.567 31.12C376.249 31.3067 375.997 31.568 375.811 31.904C375.633 32.2307 375.545 32.618 375.545 33.066V33.346C375.545 33.794 375.647 34.1907 375.853 34.536C376.058 34.8813 376.347 35.1473 376.721 35.334C377.094 35.5207 377.523 35.614 378.009 35.614C378.429 35.614 378.807 35.5487 379.143 35.418C379.479 35.2873 379.777 35.082 380.039 34.802L380.977 35.88C380.641 36.272 380.216 36.5753 379.703 36.79C379.199 36.9953 378.62 37.098 377.967 37.098ZM385.472 37.098C384.846 37.098 384.244 37.0187 383.666 36.86C383.096 36.692 382.644 36.4913 382.308 36.258L382.98 34.928C383.316 35.1427 383.717 35.32 384.184 35.46C384.65 35.6 385.117 35.67 385.584 35.67C386.134 35.67 386.531 35.5953 386.774 35.446C387.026 35.2967 387.152 35.096 387.152 34.844C387.152 34.6387 387.068 34.4847 386.9 34.382C386.732 34.27 386.512 34.186 386.242 34.13C385.971 34.074 385.668 34.0227 385.332 33.976C385.005 33.9293 384.674 33.8687 384.338 33.794C384.011 33.71 383.712 33.5933 383.442 33.444C383.171 33.2853 382.952 33.0753 382.784 32.814C382.616 32.5527 382.532 32.2073 382.532 31.778C382.532 31.302 382.667 30.8913 382.938 30.546C383.208 30.1913 383.586 29.9207 384.072 29.734C384.566 29.538 385.15 29.44 385.822 29.44C386.326 29.44 386.834 29.496 387.348 29.608C387.861 29.72 388.286 29.8787 388.622 30.084L387.95 31.414C387.595 31.1993 387.236 31.0547 386.872 30.98C386.517 30.896 386.162 30.854 385.808 30.854C385.276 30.854 384.879 30.9333 384.618 31.092C384.366 31.2507 384.24 31.4513 384.24 31.694C384.24 31.918 384.324 32.086 384.492 32.198C384.66 32.31 384.879 32.3987 385.15 32.464C385.42 32.5293 385.719 32.5853 386.046 32.632C386.382 32.6693 386.713 32.73 387.04 32.814C387.366 32.898 387.665 33.0147 387.936 33.164C388.216 33.304 388.44 33.5047 388.608 33.766C388.776 34.0273 388.86 34.368 388.86 34.788C388.86 35.2547 388.72 35.6607 388.44 36.006C388.169 36.3513 387.782 36.622 387.278 36.818C386.774 37.0047 386.172 37.098 385.472 37.098Z" fill="white"></path>
  <path d="M448.573 361.14C447.229 361.14 446.174 360.762 445.409 360.006C444.653 359.25 444.275 358.158 444.275 356.73V351.2H446.095V356.66C446.095 357.668 446.31 358.401 446.739 358.858C447.178 359.315 447.794 359.544 448.587 359.544C449.38 359.544 449.992 359.315 450.421 358.858C450.85 358.401 451.065 357.668 451.065 356.66V351.2H452.857V356.73C452.857 358.158 452.474 359.25 451.709 360.006C450.953 360.762 449.908 361.14 448.573 361.14ZM459.48 353.44C460.077 353.44 460.609 353.557 461.076 353.79C461.552 354.023 461.925 354.383 462.196 354.868C462.467 355.344 462.602 355.96 462.602 356.716V361H460.852V356.94C460.852 356.277 460.693 355.783 460.376 355.456C460.068 355.129 459.634 354.966 459.074 354.966C458.663 354.966 458.299 355.05 457.982 355.218C457.665 355.386 457.417 355.638 457.24 355.974C457.072 356.301 456.988 356.716 456.988 357.22V361H455.238V353.524H456.904V355.54L456.61 354.924C456.871 354.448 457.249 354.084 457.744 353.832C458.248 353.571 458.827 353.44 459.48 353.44ZM464.822 361V350.612H466.572V361H464.822ZM468.869 361V353.524H470.619V361H468.869ZM469.751 352.292C469.424 352.292 469.153 352.189 468.939 351.984C468.733 351.779 468.631 351.531 468.631 351.242C468.631 350.943 468.733 350.696 468.939 350.5C469.153 350.295 469.424 350.192 469.751 350.192C470.077 350.192 470.343 350.29 470.549 350.486C470.763 350.673 470.871 350.911 470.871 351.2C470.871 351.508 470.768 351.769 470.563 351.984C470.357 352.189 470.087 352.292 469.751 352.292ZM482.352 353.44C482.949 353.44 483.476 353.557 483.934 353.79C484.4 354.023 484.764 354.383 485.026 354.868C485.287 355.344 485.418 355.96 485.418 356.716V361H483.668V356.94C483.668 356.277 483.523 355.783 483.234 355.456C482.944 355.129 482.529 354.966 481.988 354.966C481.605 354.966 481.264 355.05 480.966 355.218C480.676 355.386 480.448 355.633 480.28 355.96C480.121 356.287 480.042 356.702 480.042 357.206V361H478.292V356.94C478.292 356.277 478.147 355.783 477.858 355.456C477.568 355.129 477.153 354.966 476.612 354.966C476.229 354.966 475.888 355.05 475.59 355.218C475.3 355.386 475.072 355.633 474.904 355.96C474.745 356.287 474.666 356.702 474.666 357.206V361H472.916V353.524H474.582V355.512L474.288 354.924C474.54 354.439 474.904 354.07 475.38 353.818C475.865 353.566 476.416 353.44 477.032 353.44C477.732 353.44 478.338 353.613 478.852 353.958C479.374 354.303 479.72 354.826 479.888 355.526L479.202 355.288C479.444 354.728 479.846 354.28 480.406 353.944C480.966 353.608 481.614 353.44 482.352 353.44ZM487.654 361V353.524H489.404V361H487.654ZM488.536 352.292C488.209 352.292 487.939 352.189 487.724 351.984C487.519 351.779 487.416 351.531 487.416 351.242C487.416 350.943 487.519 350.696 487.724 350.5C487.939 350.295 488.209 350.192 488.536 350.192C488.863 350.192 489.129 350.29 489.334 350.486C489.549 350.673 489.656 350.911 489.656 351.2C489.656 351.508 489.553 351.769 489.348 351.984C489.143 352.189 488.872 352.292 488.536 352.292ZM494.515 361.098C493.693 361.098 493.059 360.888 492.611 360.468C492.163 360.039 491.939 359.409 491.939 358.578V351.872H493.689V358.536C493.689 358.891 493.777 359.166 493.955 359.362C494.141 359.558 494.398 359.656 494.725 359.656C495.117 359.656 495.443 359.553 495.705 359.348L496.195 360.594C495.989 360.762 495.737 360.888 495.439 360.972C495.14 361.056 494.832 361.098 494.515 361.098ZM490.707 354.98V353.58H495.691V354.98H490.707ZM500.902 361.098C500.072 361.098 499.344 360.935 498.718 360.608C498.102 360.272 497.622 359.815 497.276 359.236C496.94 358.657 496.772 357.999 496.772 357.262C496.772 356.515 496.936 355.857 497.262 355.288C497.598 354.709 498.056 354.257 498.634 353.93C499.222 353.603 499.89 353.44 500.636 353.44C501.364 353.44 502.013 353.599 502.582 353.916C503.152 354.233 503.6 354.681 503.926 355.26C504.253 355.839 504.416 356.52 504.416 357.304C504.416 357.379 504.412 357.463 504.402 357.556C504.402 357.649 504.398 357.738 504.388 357.822H498.158V356.66H503.464L502.778 357.024C502.788 356.595 502.699 356.217 502.512 355.89C502.326 355.563 502.069 355.307 501.742 355.12C501.425 354.933 501.056 354.84 500.636 354.84C500.207 354.84 499.829 354.933 499.502 355.12C499.185 355.307 498.933 355.568 498.746 355.904C498.569 356.231 498.48 356.618 498.48 357.066V357.346C498.48 357.794 498.583 358.191 498.788 358.536C498.994 358.881 499.283 359.147 499.656 359.334C500.03 359.521 500.459 359.614 500.944 359.614C501.364 359.614 501.742 359.549 502.078 359.418C502.414 359.287 502.713 359.082 502.974 358.802L503.912 359.88C503.576 360.272 503.152 360.575 502.638 360.79C502.134 360.995 501.556 361.098 500.902 361.098ZM509.261 361.098C508.543 361.098 507.894 360.939 507.315 360.622C506.746 360.295 506.298 359.847 505.971 359.278C505.645 358.709 505.481 358.037 505.481 357.262C505.481 356.487 505.645 355.815 505.971 355.246C506.298 354.677 506.746 354.233 507.315 353.916C507.894 353.599 508.543 353.44 509.261 353.44C509.887 353.44 510.447 353.58 510.941 353.86C511.436 354.131 511.828 354.546 512.117 355.106C512.407 355.666 512.551 356.385 512.551 357.262C512.551 358.13 512.411 358.849 512.131 359.418C511.851 359.978 511.464 360.398 510.969 360.678C510.475 360.958 509.905 361.098 509.261 361.098ZM509.471 359.6C509.891 359.6 510.265 359.507 510.591 359.32C510.927 359.133 511.193 358.863 511.389 358.508C511.595 358.153 511.697 357.738 511.697 357.262C511.697 356.777 511.595 356.361 511.389 356.016C511.193 355.661 510.927 355.391 510.591 355.204C510.265 355.017 509.891 354.924 509.471 354.924C509.051 354.924 508.673 355.017 508.337 355.204C508.011 355.391 507.745 355.661 507.539 356.016C507.343 356.361 507.245 356.777 507.245 357.262C507.245 357.738 507.343 358.153 507.539 358.508C507.745 358.863 508.011 359.133 508.337 359.32C508.673 359.507 509.051 359.6 509.471 359.6ZM511.739 361V359.236L511.809 357.248L511.669 355.26V350.612H513.405V361H511.739ZM523.722 361.098C523.115 361.098 522.56 360.958 522.056 360.678C521.561 360.398 521.164 359.978 520.866 359.418C520.576 358.849 520.432 358.13 520.432 357.262C520.432 356.385 520.572 355.666 520.852 355.106C521.141 354.546 521.533 354.131 522.028 353.86C522.522 353.58 523.087 353.44 523.722 353.44C524.459 353.44 525.108 353.599 525.668 353.916C526.237 354.233 526.685 354.677 527.012 355.246C527.348 355.815 527.516 356.487 527.516 357.262C527.516 358.037 527.348 358.713 527.012 359.292C526.685 359.861 526.237 360.305 525.668 360.622C525.108 360.939 524.459 361.098 523.722 361.098ZM519.578 363.716V353.524H521.244V355.288L521.188 357.276L521.328 359.264V363.716H519.578ZM523.526 359.6C523.946 359.6 524.319 359.507 524.646 359.32C524.982 359.133 525.248 358.863 525.444 358.508C525.64 358.153 525.738 357.738 525.738 357.262C525.738 356.777 525.64 356.361 525.444 356.016C525.248 355.661 524.982 355.391 524.646 355.204C524.319 355.017 523.946 354.924 523.526 354.924C523.106 354.924 522.728 355.017 522.392 355.204C522.056 355.391 521.79 355.661 521.594 356.016C521.398 356.361 521.3 356.777 521.3 357.262C521.3 357.738 521.398 358.153 521.594 358.508C521.79 358.863 522.056 359.133 522.392 359.32C522.728 359.507 523.106 359.6 523.526 359.6ZM529.175 361V353.524H530.841V355.582L530.645 354.98C530.869 354.476 531.219 354.093 531.695 353.832C532.181 353.571 532.783 353.44 533.501 353.44V355.106C533.427 355.087 533.357 355.078 533.291 355.078C533.226 355.069 533.161 355.064 533.095 355.064C532.433 355.064 531.905 355.26 531.513 355.652C531.121 356.035 530.925 356.609 530.925 357.374V361H529.175ZM538.278 361.098C537.512 361.098 536.831 360.935 536.234 360.608C535.636 360.272 535.165 359.815 534.82 359.236C534.474 358.657 534.302 357.999 534.302 357.262C534.302 356.515 534.474 355.857 534.82 355.288C535.165 354.709 535.636 354.257 536.234 353.93C536.831 353.603 537.512 353.44 538.278 353.44C539.052 353.44 539.738 353.603 540.336 353.93C540.942 354.257 541.414 354.705 541.75 355.274C542.095 355.843 542.268 356.506 542.268 357.262C542.268 357.999 542.095 358.657 541.75 359.236C541.414 359.815 540.942 360.272 540.336 360.608C539.738 360.935 539.052 361.098 538.278 361.098ZM538.278 359.6C538.707 359.6 539.09 359.507 539.426 359.32C539.762 359.133 540.023 358.863 540.21 358.508C540.406 358.153 540.504 357.738 540.504 357.262C540.504 356.777 540.406 356.361 540.21 356.016C540.023 355.661 539.762 355.391 539.426 355.204C539.09 355.017 538.712 354.924 538.292 354.924C537.862 354.924 537.48 355.017 537.144 355.204C536.817 355.391 536.556 355.661 536.36 356.016C536.164 356.361 536.066 356.777 536.066 357.262C536.066 357.738 536.164 358.153 536.36 358.508C536.556 358.863 536.817 359.133 537.144 359.32C537.48 359.507 537.858 359.6 538.278 359.6ZM543.171 363.814C542.844 363.814 542.536 363.777 542.247 363.702C541.948 363.637 541.696 363.529 541.491 363.38L541.995 362.078C542.266 362.274 542.606 362.372 543.017 362.372C543.334 362.372 543.582 362.269 543.759 362.064C543.936 361.868 544.025 361.574 544.025 361.182V353.524H545.775V361.14C545.775 361.961 545.546 362.61 545.089 363.086C544.641 363.571 544.002 363.814 543.171 363.814ZM544.893 352.292C544.566 352.292 544.296 352.189 544.081 351.984C543.876 351.779 543.773 351.531 543.773 351.242C543.773 350.943 543.876 350.696 544.081 350.5C544.296 350.295 544.566 350.192 544.893 350.192C545.22 350.192 545.486 350.29 545.691 350.486C545.906 350.673 546.013 350.911 546.013 351.2C546.013 351.508 545.91 351.769 545.705 351.984C545.5 352.189 545.229 352.292 544.893 352.292ZM551.584 361.098C550.753 361.098 550.025 360.935 549.4 360.608C548.784 360.272 548.303 359.815 547.958 359.236C547.622 358.657 547.454 357.999 547.454 357.262C547.454 356.515 547.617 355.857 547.944 355.288C548.28 354.709 548.737 354.257 549.316 353.93C549.904 353.603 550.571 353.44 551.318 353.44C552.046 353.44 552.695 353.599 553.264 353.916C553.833 354.233 554.281 354.681 554.608 355.26C554.935 355.839 555.098 356.52 555.098 357.304C555.098 357.379 555.093 357.463 555.084 357.556C555.084 357.649 555.079 357.738 555.07 357.822H548.84V356.66H554.146L553.46 357.024C553.469 356.595 553.381 356.217 553.194 355.89C553.007 355.563 552.751 355.307 552.424 355.12C552.107 354.933 551.738 354.84 551.318 354.84C550.889 354.84 550.511 354.933 550.184 355.12C549.867 355.307 549.615 355.568 549.428 355.904C549.251 356.231 549.162 356.618 549.162 357.066V357.346C549.162 357.794 549.265 358.191 549.47 358.536C549.675 358.881 549.965 359.147 550.338 359.334C550.711 359.521 551.141 359.614 551.626 359.614C552.046 359.614 552.424 359.549 552.76 359.418C553.096 359.287 553.395 359.082 553.656 358.802L554.594 359.88C554.258 360.272 553.833 360.575 553.32 360.79C552.816 360.995 552.237 361.098 551.584 361.098ZM560.209 361.098C559.425 361.098 558.725 360.935 558.109 360.608C557.502 360.272 557.026 359.815 556.681 359.236C556.336 358.657 556.163 357.999 556.163 357.262C556.163 356.515 556.336 355.857 556.681 355.288C557.026 354.709 557.502 354.257 558.109 353.93C558.725 353.603 559.425 353.44 560.209 353.44C560.937 353.44 561.576 353.589 562.127 353.888C562.687 354.177 563.112 354.607 563.401 355.176L562.057 355.96C561.833 355.605 561.558 355.344 561.231 355.176C560.914 355.008 560.568 354.924 560.195 354.924C559.766 354.924 559.378 355.017 559.033 355.204C558.688 355.391 558.417 355.661 558.221 356.016C558.025 356.361 557.927 356.777 557.927 357.262C557.927 357.747 558.025 358.167 558.221 358.522C558.417 358.867 558.688 359.133 559.033 359.32C559.378 359.507 559.766 359.6 560.195 359.6C560.568 359.6 560.914 359.516 561.231 359.348C561.558 359.18 561.833 358.919 562.057 358.564L563.401 359.348C563.112 359.908 562.687 360.342 562.127 360.65C561.576 360.949 560.937 361.098 560.209 361.098ZM567.823 361.098C567.002 361.098 566.367 360.888 565.919 360.468C565.471 360.039 565.247 359.409 565.247 358.578V351.872H566.997V358.536C566.997 358.891 567.086 359.166 567.263 359.362C567.45 359.558 567.707 359.656 568.033 359.656C568.425 359.656 568.752 359.553 569.013 359.348L569.503 360.594C569.298 360.762 569.046 360.888 568.747 360.972C568.449 361.056 568.141 361.098 567.823 361.098ZM564.015 354.98V353.58H568.999V354.98H564.015ZM573.253 361.098C572.628 361.098 572.026 361.019 571.447 360.86C570.878 360.692 570.425 360.491 570.089 360.258L570.761 358.928C571.097 359.143 571.498 359.32 571.965 359.46C572.432 359.6 572.898 359.67 573.365 359.67C573.916 359.67 574.312 359.595 574.555 359.446C574.807 359.297 574.933 359.096 574.933 358.844C574.933 358.639 574.849 358.485 574.681 358.382C574.513 358.27 574.294 358.186 574.023 358.13C573.752 358.074 573.449 358.023 573.113 357.976C572.786 357.929 572.455 357.869 572.119 357.794C571.792 357.71 571.494 357.593 571.223 357.444C570.952 357.285 570.733 357.075 570.565 356.814C570.397 356.553 570.313 356.207 570.313 355.778C570.313 355.302 570.448 354.891 570.719 354.546C570.99 354.191 571.368 353.921 571.853 353.734C572.348 353.538 572.931 353.44 573.603 353.44C574.107 353.44 574.616 353.496 575.129 353.608C575.642 353.72 576.067 353.879 576.403 354.084L575.731 355.414C575.376 355.199 575.017 355.055 574.653 354.98C574.298 354.896 573.944 354.854 573.589 354.854C573.057 354.854 572.66 354.933 572.399 355.092C572.147 355.251 572.021 355.451 572.021 355.694C572.021 355.918 572.105 356.086 572.273 356.198C572.441 356.31 572.66 356.399 572.931 356.464C573.202 356.529 573.5 356.585 573.827 356.632C574.163 356.669 574.494 356.73 574.821 356.814C575.148 356.898 575.446 357.015 575.717 357.164C575.997 357.304 576.221 357.505 576.389 357.766C576.557 358.027 576.641 358.368 576.641 358.788C576.641 359.255 576.501 359.661 576.221 360.006C575.95 360.351 575.563 360.622 575.059 360.818C574.555 361.005 573.953 361.098 573.253 361.098Z" fill="white"></path>
  <path d="M369.977 380.141L411.43 364.796L361.783 365.66L369.977 380.141Z" stroke="white"></path>
  <path d="M353.381 347.135L358.958 358.721L411.43 364.795L353.381 347.135Z" stroke="white"></path>
  <path d="M354.132 370.039L358.957 358.723L411.43 364.797L361.783 365.662L354.132 370.039ZM354.132 370.039L363.69 369.283" stroke="white"></path>
  <path d="M350.877 364.031L347.152 362.319" stroke="white" stroke-linecap="round"></path>
  <path d="M349.752 367.283L345.323 367.117" stroke="white" stroke-linecap="round"></path>
  <path d="M350.34 370.926L345.809 372.603" stroke="white" stroke-linecap="round"></path>
  <circle cx="108.5" cy="281.5" r="170.75" stroke="white" stroke-opacity="0.5" stroke-width="1.5" stroke-linecap="round" stroke-linejoin="round" stroke-dasharray="12 12"></circle>
  <path d="M127.202 510.148C123.726 510.421 120.228 510.617 116.709 510.733C116.696 510.319 116.351 509.994 115.937 510.007C113.943 510.066 111.942 510.1 109.935 510.109C107.928 510.117 105.927 510.099 103.933 510.056C103.519 510.047 103.176 510.375 103.166 510.788C99.6473 510.701 96.1477 510.534 92.6694 510.29C92.699 509.877 92.389 509.518 91.9763 509.488C87.9768 509.194 84.0058 508.797 80.066 508.3C79.6554 508.248 79.2806 508.539 79.2282 508.949C75.7403 508.497 72.277 507.968 68.8399 507.361C68.9125 506.954 68.6416 506.565 68.2343 506.491C64.2916 505.782 60.384 504.972 56.514 504.064C56.1112 503.97 55.7079 504.219 55.6128 504.622C52.1946 503.808 48.806 502.917 45.4488 501.952C45.5638 501.555 45.3352 501.139 44.9379 501.023C41.0954 499.905 37.2945 498.688 33.5382 497.377C33.1475 497.24 32.7202 497.446 32.5832 497.836C29.2723 496.668 25.9961 495.426 22.7566 494.111C22.9128 493.728 22.7293 493.291 22.3463 493.134C18.6458 491.619 14.9937 490.009 11.3931 488.309C11.0189 488.132 10.5724 488.292 10.3951 488.665C7.22725 487.156 4.09936 485.577 1.01349 483.929C1.20896 483.564 1.07233 483.11 0.707969 482.914C-2.81141 481.02 -6.27558 479.036 -9.68143 476.965C-10.035 476.75 -10.4958 476.863 -10.7113 477.216C-13.7025 475.384 -16.6484 473.486 -19.5472 471.523C-19.3147 471.181 -19.4031 470.715 -19.745 470.482C-23.045 468.231 -26.2831 465.897 -29.4561 463.482C-29.7854 463.231 -30.2554 463.294 -30.5064 463.623C-33.2888 461.491 -36.0209 459.296 -38.7007 457.041C-38.4339 456.725 -38.4733 456.253 -38.7891 455.985C-41.8352 453.405 -44.8129 450.747 -47.7191 448.013C-48.0205 447.73 -48.4945 447.744 -48.7784 448.045C-51.3228 445.636 -53.8121 443.169 -56.2442 440.647C-55.9459 440.36 -55.936 439.886 -56.2223 439.587C-58.9825 436.706 -61.6679 433.753 -64.2757 430.731C-64.546 430.417 -65.0189 430.382 -65.3325 430.652C-67.6118 427.993 -69.8314 425.281 -71.989 422.518C-71.6625 422.264 -71.6034 421.794 -71.857 421.467C-74.3014 418.316 -76.6652 415.099 -78.9452 411.82C-79.1814 411.48 -79.6481 411.396 -79.9882 411.631C-81.9773 408.751 -83.9022 405.822 -85.7608 402.848C-85.4097 402.629 -85.3018 402.167 -85.5199 401.816C-87.6211 398.428 -89.6361 394.982 -91.562 391.48C-91.7614 391.118 -92.2167 390.985 -92.5795 391.184C-94.2553 388.113 -95.8629 384.999 -97.4002 381.845C-97.0281 381.664 -96.8723 381.217 -97.0524 380.844C-98.7853 377.259 -100.427 373.621 -101.975 369.934C-102.136 369.553 -102.574 369.373 -102.956 369.533C-104.299 366.305 -105.57 363.04 -106.768 359.739C-106.379 359.599 -106.177 359.17 -106.316 358.78C-107.661 355.036 -108.911 351.246 -110.063 347.413C-110.182 347.017 -110.599 346.792 -110.996 346.91C-111.99 343.562 -112.91 340.181 -113.754 336.77C-113.352 336.671 -113.106 336.266 -113.204 335.864C-114.145 332.002 -114.989 328.101 -115.731 324.165C-115.808 323.758 -116.2 323.491 -116.606 323.567C-117.242 320.135 -117.801 316.676 -118.282 313.192C-117.872 313.136 -117.585 312.759 -117.64 312.349C-118.171 308.414 -118.601 304.446 -118.928 300.449C-118.962 300.037 -119.323 299.73 -119.735 299.763C-120.009 296.287 -120.204 292.789 -120.321 289.27C-119.908 289.257 -119.583 288.912 -119.595 288.498C-119.655 286.504 -119.689 284.503 -119.697 282.496C-119.705 280.489 -119.687 278.488 -119.644 276.494C-119.635 276.08 -119.963 275.737 -120.376 275.727C-120.289 272.208 -120.122 268.709 -119.877 265.23C-119.464 265.26 -119.105 264.95 -119.075 264.537C-118.78 260.538 -118.383 256.567 -117.885 252.627C-117.833 252.217 -118.123 251.842 -118.534 251.789C-118.081 248.302 -117.55 244.839 -116.943 241.402C-116.535 241.474 -116.146 241.204 -116.073 240.796C-115.362 236.854 -114.551 232.947 -113.641 229.077C-113.546 228.674 -113.796 228.271 -114.198 228.176C-113.382 224.758 -112.49 221.37 -111.523 218.013C-111.126 218.128 -110.71 217.9 -110.595 217.503C-109.474 213.661 -108.255 209.861 -106.941 206.105C-106.805 205.715 -107.01 205.287 -107.4 205.15C-106.23 201.84 -104.986 198.564 -103.669 195.326C-103.286 195.482 -102.849 195.299 -102.692 194.916C-101.174 191.217 -99.5617 187.566 -97.8582 183.967C-97.6812 183.593 -97.8406 183.146 -98.2142 182.968C-96.7027 179.802 -95.1207 176.675 -93.4701 173.59C-93.1057 173.786 -92.6515 173.65 -92.4551 173.286C-90.5579 169.768 -88.5711 166.306 -86.4978 162.901C-86.2826 162.548 -86.3943 162.087 -86.7472 161.871C-84.913 158.882 -83.0121 155.938 -81.0466 153.041C-80.7046 153.273 -80.2387 153.185 -80.0052 152.844C-77.7521 149.546 -75.4147 146.31 -72.9963 143.139C-72.7453 142.81 -72.8083 142.34 -73.1368 142.089C-71.0019 139.308 -68.8046 136.578 -66.5472 133.901C-66.2314 134.168 -65.7587 134.129 -65.491 133.813C-62.9081 130.77 -60.2469 127.795 -57.5104 124.891C-57.2266 124.59 -57.2403 124.116 -57.5409 123.832C-55.1296 121.29 -52.6606 118.803 -50.136 116.373C-49.8496 116.672 -49.3755 116.682 -49.0764 116.396C-46.1927 113.639 -43.2369 110.956 -40.212 108.352C-39.8984 108.081 -39.8628 107.609 -40.1323 107.295C-37.471 105.018 -34.757 102.801 -31.9922 100.646C-31.7384 100.973 -31.2679 101.032 -30.9407 100.779C-27.7875 98.3377 -24.5687 95.9769 -21.2872 93.6998C-20.9472 93.4639 -20.8626 92.9972 -21.0979 92.657C-18.2153 90.6705 -15.285 88.7482 -12.3089 86.8922C-12.0906 87.2435 -11.6289 87.3518 -11.277 87.134C-7.88824 85.0359 -4.44045 83.0238 -0.936696 81.1007C-0.573922 80.9016 -0.441049 80.4464 -0.639496 80.0834C2.43278 78.4103 5.54764 76.8052 8.70306 75.2703C8.88339 75.6425 9.33121 75.7986 9.70392 75.6188C13.2905 73.8887 16.9293 72.2494 20.6172 70.7038C20.9989 70.5439 21.1788 70.1051 21.0195 69.7234C24.2481 68.3828 27.5141 67.1138 30.8154 65.9183C30.9555 66.3075 31.3845 66.5097 31.774 66.3701C35.5195 65.0277 39.3103 63.7801 43.1435 62.6303C43.5399 62.5114 43.7649 62.0941 43.6467 61.6977C46.9959 60.7051 50.3771 59.7868 53.7885 58.9447C53.887 59.3465 54.2923 59.5928 54.6943 59.4949C58.5567 58.5551 62.4576 57.7131 66.3943 56.972C66.801 56.8954 67.0687 56.504 66.9928 56.0974C70.4248 55.4629 73.8837 54.9046 77.3677 54.4245C77.4235 54.8344 77.8007 55.1218 78.2108 55.0667C82.1465 54.5374 86.1141 54.1082 90.111 53.7815C90.5234 53.7478 90.8306 53.3865 90.7975 52.9741C94.2737 52.7014 97.7718 52.506 101.29 52.3897C101.303 52.8032 101.649 53.1281 102.062 53.1158C104.056 53.0563 106.057 53.0223 108.064 53.0141C110.071 53.0059 112.072 53.0235 114.067 53.0667C114.481 53.0757 114.823 52.7479 114.833 52.3343C118.352 52.4219 121.852 52.5887 125.33 52.833C125.3 53.2456 125.61 53.6044 126.023 53.6347C130.023 53.9287 133.994 54.3255 137.933 54.8226C138.344 54.8743 138.719 54.5839 138.771 54.1735C142.259 54.6251 145.722 55.155 149.16 55.7615C149.087 56.1687 149.358 56.5579 149.765 56.6312C153.708 57.3401 157.616 58.1501 161.485 59.0584C161.888 59.153 162.292 58.9034 162.387 58.5008C165.805 59.3149 169.194 60.2055 172.551 61.1707C172.436 61.5681 172.664 61.9836 173.062 62.0992C176.904 63.2177 180.705 64.4342 184.461 65.746C184.852 65.8824 185.279 65.6766 185.416 65.2863C188.727 66.4548 192.003 67.6971 195.243 69.0112C195.087 69.3942 195.27 69.8315 195.653 69.9883C199.354 71.5037 203.006 73.1132 206.606 74.8139C206.981 74.9907 207.427 74.8309 207.604 74.4572C210.772 75.9663 213.9 77.5458 216.986 79.1938C216.79 79.5584 216.927 80.0125 217.291 80.2086C220.811 82.103 224.275 84.0869 227.681 86.1572C228.034 86.3721 228.495 86.2601 228.711 85.9069C231.702 87.7386 234.648 89.6369 237.547 91.5997C237.314 91.9419 237.403 92.4078 237.744 92.6409C241.044 94.8911 244.283 97.2255 247.456 99.641C247.785 99.8916 248.255 99.8282 248.506 99.4994C251.288 101.632 254.02 103.826 256.7 106.081C256.433 106.397 256.473 106.87 256.789 107.137C259.835 109.717 262.812 112.376 265.719 115.109C266.02 115.393 266.494 115.379 266.778 115.078C269.322 117.487 271.812 119.953 274.244 122.476C273.945 122.762 273.935 123.236 274.222 123.535C276.982 126.416 279.667 129.37 282.275 132.392C282.545 132.705 283.018 132.74 283.332 132.471C285.611 135.13 287.831 137.842 289.988 140.604C289.662 140.858 289.603 141.329 289.856 141.656C292.301 144.807 294.665 148.024 296.945 151.303C297.181 151.643 297.648 151.727 297.988 151.491C299.977 154.372 301.902 157.301 303.76 160.275C303.409 160.494 303.301 160.955 303.519 161.307C305.621 164.694 307.636 168.14 309.561 171.642C309.761 172.005 310.216 172.137 310.579 171.939C312.255 175.01 313.862 178.123 315.4 181.278C315.028 181.458 314.872 181.906 315.052 182.279C316.785 185.864 318.427 189.502 319.975 193.188C320.135 193.57 320.574 193.75 320.956 193.59C322.298 196.818 323.57 200.083 324.767 203.383C324.378 203.524 324.176 203.953 324.316 204.342C325.661 208.087 326.91 211.877 328.062 215.71C328.181 216.106 328.599 216.331 328.995 216.212C329.99 219.561 330.91 222.942 331.753 226.353C331.351 226.451 331.105 226.857 331.203 227.259C332.145 231.121 332.988 235.021 333.731 238.958C333.808 239.364 334.199 239.632 334.606 239.556C335.241 242.988 335.801 246.446 336.282 249.93C335.872 249.986 335.585 250.363 335.64 250.774C336.17 254.709 336.6 258.677 336.927 262.673C336.961 263.086 337.323 263.393 337.735 263.36C338.008 266.836 338.204 270.334 338.32 273.852C337.907 273.865 337.582 274.211 337.594 274.624C337.654 276.619 337.688 278.62 337.696 280.626C337.705 282.633 337.687 284.634 337.644 286.629C337.635 287.043 337.962 287.386 338.376 287.395C338.288 290.914 338.121 294.414 337.876 297.892C337.464 297.862 337.105 298.172 337.074 298.585C336.78 302.585 336.382 306.555 335.884 310.495C335.832 310.906 336.123 311.281 336.533 311.333C336.081 314.821 335.55 318.284 334.942 321.721C334.535 321.648 334.146 321.919 334.072 322.326C333.362 326.269 332.55 330.176 331.64 334.045C331.546 334.448 331.795 334.852 332.198 334.947C331.382 338.365 330.49 341.753 329.523 345.11C329.125 344.994 328.71 345.223 328.594 345.62C327.474 349.462 326.255 353.262 324.941 357.017C324.804 357.408 325.01 357.835 325.4 357.973C324.229 361.283 322.985 364.558 321.669 367.797C321.286 367.64 320.848 367.824 320.691 368.206C319.173 371.906 317.561 375.557 315.858 379.156C315.681 379.53 315.84 379.977 316.214 380.154C314.702 383.321 313.12 386.448 311.47 389.532C311.105 389.337 310.651 389.473 310.455 389.837C308.557 393.355 306.571 396.817 304.497 400.221C304.282 400.575 304.394 401.036 304.747 401.251C302.912 404.241 301.012 407.185 299.046 410.082C298.704 409.849 298.238 409.937 298.005 410.279C295.752 413.577 293.414 416.813 290.996 419.983C290.745 420.312 290.808 420.783 291.136 421.034C289.001 423.814 286.804 426.544 284.547 429.222C284.231 428.955 283.758 428.994 283.49 429.309C280.908 432.353 278.246 435.328 275.51 438.231C275.226 438.533 275.24 439.007 275.54 439.291C273.129 441.833 270.66 444.32 268.135 446.749C267.849 446.451 267.375 446.44 267.076 446.726C264.192 449.484 261.236 452.166 258.211 454.771C257.898 455.041 257.862 455.514 258.132 455.828C255.47 458.105 252.756 460.322 249.992 462.477C249.738 462.15 249.267 462.09 248.94 462.344C245.787 464.785 242.568 467.146 239.287 469.423C238.947 469.659 238.862 470.125 239.097 470.466C236.215 472.452 233.284 474.374 230.308 476.23C230.09 475.879 229.628 475.771 229.277 475.989C225.888 478.087 222.44 480.099 218.936 482.022C218.573 482.221 218.441 482.676 218.639 483.039C215.567 484.712 212.452 486.317 209.296 487.852C209.116 487.48 208.668 487.324 208.296 487.504C204.709 489.234 201.07 490.873 197.382 492.419C197.001 492.579 196.821 493.018 196.98 493.399C193.751 494.74 190.485 496.009 187.184 497.204C187.044 496.815 186.615 496.613 186.225 496.752C182.48 498.095 178.689 499.342 174.856 500.492C174.46 500.611 174.234 501.029 174.353 501.425C171.004 502.418 167.622 503.336 164.211 504.178C164.112 503.776 163.707 503.53 163.305 503.628C159.443 504.568 155.542 505.409 151.605 506.151C151.198 506.227 150.931 506.619 151.007 507.025C147.575 507.66 144.116 508.218 140.632 508.698C140.576 508.288 140.199 508.001 139.789 508.056C135.853 508.585 131.885 509.014 127.888 509.341C127.476 509.375 127.169 509.736 127.202 510.148Z" stroke="white" stroke-opacity="0.3" stroke-width="1.5" stroke-linecap="round" stroke-linejoin="round" stroke-dasharray="12 12"></path>
  <path d="M250.89 263.534C251.34 267.148 251.656 270.804 251.833 274.496C251.42 274.515 251.1 274.864 251.117 275.277C251.205 277.34 251.25 279.415 251.25 281.5C251.25 283.585 251.205 285.66 251.117 287.723C251.1 288.136 251.42 288.485 251.833 288.504C251.656 292.196 251.34 295.852 250.89 299.466C250.48 299.414 250.105 299.704 250.052 300.114C249.514 304.254 248.8 308.339 247.917 312.36C247.829 312.764 248.084 313.163 248.487 313.253C247.678 316.848 246.734 320.392 245.661 323.88C245.267 323.757 244.847 323.977 244.723 324.372C243.478 328.346 242.064 332.246 240.489 336.062C240.332 336.445 240.513 336.882 240.895 337.041C239.474 340.435 237.927 343.762 236.259 347.017C235.892 346.828 235.441 346.971 235.25 347.338C233.336 351.027 231.266 354.622 229.048 358.114C228.827 358.463 228.929 358.925 229.278 359.148C227.293 362.238 225.192 365.247 222.983 368.168C222.654 367.917 222.185 367.981 221.934 368.309C219.413 371.606 216.753 374.789 213.962 377.85C213.683 378.155 213.704 378.629 214.009 378.908C211.523 381.606 208.935 384.207 206.251 386.706C205.97 386.403 205.497 386.384 205.193 386.665C202.146 389.473 198.976 392.15 195.693 394.686C195.366 394.938 195.305 395.408 195.557 395.736C192.646 397.96 189.648 400.075 186.568 402.075C186.344 401.727 185.881 401.627 185.533 401.85C182.051 404.085 178.466 406.171 174.786 408.101C174.42 408.293 174.278 408.745 174.469 409.111C171.22 410.793 167.899 412.353 164.512 413.787C164.352 413.406 163.913 413.226 163.532 413.385C159.721 414.974 155.826 416.401 151.856 417.658C151.462 417.783 151.243 418.203 151.367 418.597C147.882 419.681 144.341 420.634 140.748 421.451C140.657 421.048 140.257 420.794 139.853 420.883C135.834 421.775 131.751 422.496 127.612 423.039C127.202 423.093 126.913 423.469 126.965 423.878C123.352 424.333 119.696 424.652 116.004 424.831C115.985 424.418 115.635 424.098 115.222 424.116C113.159 424.205 111.085 424.25 109 424.25C106.915 424.25 104.841 424.205 102.778 424.116C102.365 424.098 102.015 424.418 101.996 424.831C98.3039 424.652 94.6484 424.333 91.0347 423.878C91.0874 423.469 90.7984 423.093 90.3884 423.039C86.2491 422.496 82.1659 421.775 78.1466 420.883C77.7428 420.794 77.3429 421.048 77.2523 421.451C73.6593 420.634 70.1177 419.681 66.633 418.597C66.7568 418.203 66.5381 417.783 66.1438 417.658C62.174 416.401 58.2794 414.974 54.4684 413.385C54.0867 413.226 53.6483 413.406 53.4883 413.787C50.1007 412.353 46.7795 410.793 43.5309 409.111C43.7219 408.745 43.5803 408.293 43.214 408.101C39.5343 406.171 35.949 404.085 32.4672 401.85C32.1191 401.627 31.6561 401.727 31.432 402.075C28.3522 400.075 25.3538 397.96 22.4431 395.736C22.6949 395.408 22.6341 394.938 22.3068 394.686C19.0239 392.15 15.8544 389.473 12.8073 386.665C12.5032 386.384 12.0297 386.403 11.7488 386.706C9.06509 384.207 6.47714 381.606 3.99112 378.908C4.29579 378.629 4.3171 378.155 4.03842 377.85C1.24691 374.789 -1.41341 371.606 -3.93361 368.309C-4.18477 367.981 -4.65439 367.917 -4.98339 368.168C-7.19246 365.247 -9.29257 362.238 -11.2777 359.148C-10.9293 358.925 -10.8265 358.463 -11.0483 358.114C-13.2656 354.622 -15.3357 351.027 -17.2501 347.338C-17.4405 346.971 -17.8921 346.828 -18.2595 347.017C-19.927 343.762 -21.4741 340.435 -22.8949 337.041C-22.5133 336.882 -22.3317 336.445 -22.4894 336.062C-24.0638 332.246 -25.4779 328.346 -26.7234 324.372C-26.8471 323.977 -27.2667 323.757 -27.6615 323.88C-28.7341 320.392 -29.6779 316.848 -30.4872 313.253C-30.0837 313.163 -29.8287 312.764 -29.9174 312.36C-30.8004 308.339 -31.5145 304.254 -32.0517 300.114C-32.1049 299.704 -32.48 299.414 -32.8901 299.466C-33.3399 295.852 -33.6558 292.196 -33.8326 288.504C-33.4197 288.485 -33.0996 288.136 -33.1173 287.723C-33.2055 285.66 -33.25 283.585 -33.25 281.5C-33.25 279.415 -33.2055 277.34 -33.1173 275.277C-33.0996 274.864 -33.4197 274.515 -33.8327 274.496C-33.6558 270.804 -33.3399 267.148 -32.8901 263.534C-32.48 263.586 -32.1049 263.296 -32.0517 262.886C-31.5145 258.746 -30.8004 254.661 -29.9174 250.64C-29.8287 250.236 -30.0837 249.837 -30.4872 249.747C-29.6779 246.152 -28.7341 242.608 -27.6615 239.12C-27.2668 239.243 -26.8471 239.023 -26.7234 238.628C-25.4779 234.654 -24.0638 230.754 -22.4895 226.938C-22.3317 226.555 -22.5133 226.118 -22.8949 225.959C-21.4741 222.565 -19.927 219.238 -18.2595 215.983C-17.8921 216.172 -17.4405 216.029 -17.2501 215.662C-15.3357 211.973 -13.2656 208.378 -11.0483 204.886C-10.8265 204.537 -10.9293 204.075 -11.2777 203.852C-9.29256 200.762 -7.19245 197.753 -4.98338 194.832C-4.65438 195.083 -4.18476 195.019 -3.9336 194.691C-1.4134 191.394 1.24693 188.211 4.03843 185.15C4.31712 184.845 4.2958 184.371 3.99113 184.092C6.47716 181.394 9.06511 178.793 11.7488 176.294C12.0297 176.597 12.5032 176.616 12.8073 176.335C15.8544 173.527 19.0239 170.85 22.3068 168.314C22.6341 168.062 22.6949 167.592 22.4431 167.264C25.3538 165.04 28.3522 162.925 31.432 160.925C31.6561 161.273 32.1191 161.373 32.4672 161.15C35.9491 158.915 39.5343 156.829 43.214 154.899C43.5803 154.707 43.7219 154.255 43.5309 153.889C46.7795 152.207 50.1006 150.646 53.4883 149.213C53.6483 149.594 54.0867 149.774 54.4684 149.615C58.2794 148.026 62.174 146.599 66.1438 145.342C66.5381 145.217 66.7567 144.797 66.633 144.403C70.1176 143.319 73.6593 142.366 77.2523 141.549C77.3429 141.952 77.7428 142.206 78.1465 142.117C82.1658 141.225 86.2491 140.504 90.3883 139.961C90.7984 139.907 91.0874 139.531 91.0347 139.122C94.6483 138.667 98.3038 138.348 101.996 138.169C102.015 138.582 102.365 138.902 102.778 138.884C104.841 138.795 106.915 138.75 109 138.75C111.085 138.75 113.159 138.795 115.222 138.884C115.635 138.902 115.985 138.582 116.004 138.169C119.696 138.348 123.352 138.667 126.965 139.122C126.913 139.531 127.202 139.907 127.612 139.961C131.751 140.504 135.834 141.225 139.853 142.117C140.257 142.206 140.657 141.952 140.748 141.549C144.341 142.366 147.882 143.319 151.367 144.403C151.243 144.797 151.462 145.217 151.856 145.342C155.826 146.599 159.721 148.026 163.532 149.615C163.913 149.774 164.352 149.594 164.512 149.213C167.899 150.646 171.22 152.207 174.469 153.889C174.278 154.255 174.42 154.707 174.786 154.899C178.466 156.829 182.051 158.915 185.533 161.15C185.881 161.373 186.344 161.273 186.568 160.925C189.648 162.925 192.646 165.04 195.557 167.264C195.305 167.592 195.366 168.062 195.693 168.314C198.976 170.85 202.146 173.527 205.193 176.335C205.497 176.616 205.97 176.597 206.251 176.294C208.935 178.793 211.523 181.394 214.009 184.092C213.704 184.371 213.683 184.845 213.962 185.15C216.753 188.211 219.413 191.394 221.934 194.691C222.185 195.019 222.654 195.083 222.983 194.832C225.192 197.753 227.293 200.762 229.278 203.852C228.929 204.075 228.827 204.537 229.048 204.886C231.266 208.378 233.336 211.973 235.25 215.662C235.441 216.029 235.892 216.172 236.259 215.983C237.927 219.238 239.474 222.565 240.895 225.959C240.513 226.118 240.332 226.555 240.489 226.938C242.064 230.754 243.478 234.654 244.723 238.628C244.847 239.023 245.267 239.243 245.661 239.12C246.734 242.608 247.678 246.152 248.487 249.747C248.084 249.837 247.829 250.236 247.917 250.64C248.8 254.661 249.514 258.746 250.052 262.886C250.105 263.296 250.48 263.586 250.89 263.534Z" stroke="white" stroke-opacity="0.6" stroke-width="1.5" stroke-linecap="round" stroke-linejoin="round" stroke-dasharray="12 12"></path>
  <path d="M218.589 263.636C219.16 267.211 219.562 270.843 219.787 274.524C219.375 274.548 219.059 274.901 219.082 275.314C219.193 277.361 219.25 279.424 219.25 281.5C219.25 283.576 219.193 285.639 219.082 287.686C219.059 288.099 219.375 288.452 219.787 288.476C219.562 292.157 219.16 295.789 218.589 299.364C218.182 299.298 217.797 299.574 217.729 299.982C217.046 304.084 216.139 308.111 215.022 312.047C214.909 312.445 215.14 312.859 215.537 312.973C214.511 316.498 213.317 319.951 211.964 323.323C211.581 323.167 211.144 323.351 210.988 323.734C209.419 327.568 207.643 331.295 205.674 334.898C205.476 335.261 205.609 335.716 205.97 335.915C204.193 339.117 202.263 342.221 200.191 345.218C199.852 344.982 199.386 345.064 199.149 345.403C196.776 348.786 194.221 352.028 191.497 355.116C191.223 355.426 191.252 355.898 191.561 356.173C189.125 358.897 186.558 361.498 183.87 363.968C183.591 363.663 183.118 363.64 182.812 363.918C179.758 366.686 176.549 369.284 173.201 371.697C172.865 371.938 172.789 372.406 173.029 372.742C170.056 374.853 166.976 376.82 163.797 378.633C163.594 378.273 163.138 378.146 162.778 378.348C159.194 380.36 155.486 382.176 151.67 383.78C151.289 383.94 151.11 384.378 151.269 384.759C147.909 386.145 144.466 387.368 140.95 388.419C140.833 388.023 140.417 387.796 140.021 387.911C136.091 389.057 132.071 389.987 127.974 390.688C127.566 390.758 127.292 391.144 127.36 391.551C123.787 392.137 120.156 392.55 116.476 392.781C116.451 392.369 116.098 392.054 115.685 392.077C113.638 392.192 111.576 392.25 109.5 392.25C107.424 392.25 105.362 392.192 103.315 392.077C102.902 392.054 102.549 392.369 102.524 392.781C98.8442 392.55 95.2131 392.137 91.6396 391.551C91.7078 391.144 91.4338 390.758 91.0263 390.688C86.9289 389.987 82.9088 389.057 78.9794 387.911C78.5826 387.796 78.1672 388.023 78.0502 388.419C74.5343 387.368 71.0915 386.145 67.7314 384.759C67.8902 384.378 67.7107 383.94 67.3296 383.78C63.5135 382.176 59.8063 380.36 56.2224 378.348C55.862 378.146 55.4059 378.273 55.2025 378.633C52.0242 376.82 48.9437 374.853 45.971 372.742C46.2114 372.406 46.1348 371.938 45.7994 371.697C42.4508 369.284 39.2421 366.686 36.188 363.918C35.8817 363.64 35.4087 363.663 35.1303 363.968C32.442 361.498 29.8749 358.896 27.439 356.173C27.7479 355.898 27.7769 355.426 27.5034 355.116C24.7791 352.028 22.2236 348.786 19.8513 345.403C19.614 345.064 19.1476 344.982 18.8087 345.218C16.7369 342.221 14.8073 339.117 13.0296 335.915C13.3915 335.716 13.5242 335.261 13.326 334.898C11.3568 331.294 9.5808 327.568 8.01203 323.734C7.8555 323.351 7.41904 323.167 7.03622 323.323C5.68349 319.951 4.4894 316.498 3.46332 312.973C3.86031 312.859 4.09051 312.445 3.97767 312.047C2.86069 308.111 1.95416 304.084 1.27119 299.982C1.20331 299.574 0.818365 299.298 0.41069 299.364C-0.159933 295.789 -0.562071 292.157 -0.787245 288.476C-0.374856 288.452 -0.0591666 288.099 -0.0816859 287.686C-0.193402 285.639 -0.25 283.576 -0.25 281.5C-0.25 279.424 -0.193402 277.361 -0.0816847 275.314C-0.0591652 274.901 -0.374855 274.548 -0.787244 274.524C-0.562069 270.843 -0.159931 267.211 0.410692 263.636C0.818367 263.702 1.20331 263.426 1.27119 263.018C1.95417 258.916 2.86069 254.889 3.97768 250.953C4.09052 250.555 3.86032 250.141 3.46332 250.027C4.48941 246.502 5.6835 243.049 7.03623 239.677C7.41904 239.833 7.85551 239.649 8.01204 239.266C9.58081 235.432 11.3568 231.705 13.326 228.102C13.5242 227.739 13.3915 227.284 13.0297 227.085C14.8073 223.883 16.7369 220.779 18.8087 217.782C19.1477 218.018 19.614 217.936 19.8513 217.597C22.2236 214.214 24.7791 210.972 27.5034 207.884C27.7769 207.574 27.7479 207.102 27.4391 206.827C29.8749 204.103 32.442 201.502 35.1303 199.032C35.4087 199.337 35.8817 199.36 36.188 199.082C39.2421 196.314 42.4508 193.716 45.7994 191.303C46.1348 191.062 46.2113 190.594 45.971 190.258C48.9437 188.147 52.0242 186.18 55.2025 184.367C55.4059 184.727 55.862 184.854 56.2224 184.652C59.8063 182.64 63.5135 180.824 67.3296 179.22C67.7107 179.06 67.8901 178.622 67.7314 178.241C71.0915 176.855 74.5343 175.632 78.0502 174.581C78.1672 174.977 78.5826 175.204 78.9794 175.089C82.9088 173.943 86.9289 173.013 91.0263 172.312C91.4338 172.242 91.7078 171.856 91.6396 171.449C95.2131 170.863 98.8442 170.45 102.524 170.219C102.549 170.631 102.902 170.946 103.315 170.923C105.362 170.808 107.424 170.75 109.5 170.75C111.576 170.75 113.638 170.808 115.685 170.923C116.098 170.946 116.451 170.631 116.476 170.219C120.156 170.45 123.787 170.863 127.36 171.449C127.292 171.856 127.566 172.242 127.974 172.312C132.071 173.013 136.091 173.943 140.021 175.089C140.417 175.204 140.833 174.977 140.95 174.581C144.466 175.632 147.909 176.855 151.269 178.241C151.11 178.622 151.289 179.06 151.67 179.22C155.486 180.824 159.194 182.64 162.778 184.652C163.138 184.854 163.594 184.727 163.797 184.367C166.976 186.18 170.056 188.147 173.029 190.258C172.789 190.594 172.865 191.062 173.201 191.303C176.549 193.716 179.758 196.314 182.812 199.082C183.118 199.36 183.591 199.337 183.87 199.032C186.558 201.502 189.125 204.103 191.561 206.827C191.252 207.102 191.223 207.574 191.497 207.884C194.221 210.972 196.776 214.214 199.149 217.597C199.386 217.936 199.852 218.018 200.191 217.782C202.263 220.779 204.193 223.883 205.97 227.085C205.609 227.284 205.476 227.739 205.674 228.102C207.643 231.706 209.419 235.432 210.988 239.266C211.145 239.649 211.581 239.833 211.964 239.677C213.317 243.049 214.511 246.502 215.537 250.027C215.14 250.141 214.909 250.555 215.022 250.953C216.139 254.889 217.046 258.916 217.729 263.018C217.797 263.426 218.182 263.702 218.589 263.636Z" stroke="white" stroke-opacity="0.7" stroke-width="1.5" stroke-linecap="round" stroke-linejoin="round" stroke-dasharray="12 12"></path>
  <path d="M186.016 263.719C186.816 267.239 187.383 270.848 187.7 274.528C187.289 274.562 186.982 274.922 187.014 275.333C187.17 277.368 187.25 279.425 187.25 281.5C187.25 283.575 187.17 285.632 187.014 287.667C186.982 288.078 187.289 288.438 187.7 288.472C187.383 292.152 186.816 295.761 186.016 299.281C185.615 299.188 185.212 299.437 185.117 299.839C184.16 303.877 182.894 307.795 181.345 311.565C181.188 311.947 181.37 312.384 181.751 312.542C180.325 315.923 178.672 319.184 176.814 322.306C176.46 322.093 176.001 322.206 175.786 322.559C173.642 326.082 171.231 329.423 168.581 332.553C168.314 332.868 168.352 333.34 168.666 333.608C166.279 336.373 163.706 338.97 160.966 341.381C160.695 341.069 160.223 341.036 159.91 341.305C156.803 343.987 153.484 346.428 149.982 348.599C149.631 348.817 149.522 349.277 149.738 349.629C146.629 351.515 143.381 353.192 140.012 354.641C139.851 354.261 139.413 354.082 139.032 354.242C135.271 355.816 131.361 357.104 127.329 358.078C126.928 358.175 126.68 358.578 126.775 358.979C123.258 359.793 119.651 360.371 115.971 360.695C115.937 360.284 115.577 359.977 115.165 360.009C113.131 360.169 111.075 360.25 109 360.25C106.925 360.25 104.869 360.169 102.835 360.009C102.423 359.977 102.063 360.284 102.029 360.695C98.3492 360.371 94.7421 359.793 91.2246 358.979C91.3195 358.578 91.0723 358.175 90.6708 358.078C86.6394 357.104 82.7295 355.816 78.9679 354.242C78.5869 354.082 78.1489 354.261 77.9878 354.641C74.6192 353.192 71.371 351.515 68.2623 349.629C68.4781 349.277 68.3692 348.817 68.0182 348.599C64.5164 346.428 61.1973 343.987 58.0896 341.305C57.7769 341.036 57.3051 341.069 57.0341 341.381C54.2939 338.97 51.7207 336.373 49.3341 333.608C49.6477 333.34 49.686 332.868 49.419 332.553C46.7687 329.423 44.3575 326.082 42.214 322.559C41.9994 322.206 41.54 322.093 41.1865 322.306C39.3276 319.184 37.6755 315.923 36.2492 312.542C36.6302 312.384 36.8117 311.947 36.6547 311.565C35.106 307.795 33.8399 303.877 32.8828 299.839C32.7876 299.437 32.3854 299.188 31.9835 299.281C31.1843 295.761 30.6173 292.152 30.2996 288.472C30.7108 288.438 31.018 288.078 30.9863 287.667C30.8298 285.632 30.75 283.575 30.75 281.5C30.75 279.425 30.8298 277.368 30.9863 275.333C31.018 274.922 30.7108 274.562 30.2996 274.528C30.6173 270.848 31.1843 267.239 31.9835 263.719C32.3854 263.812 32.7876 263.563 32.8828 263.161C33.8399 259.123 35.106 255.205 36.6547 251.435C36.8117 251.053 36.6302 250.616 36.2492 250.458C37.6755 247.077 39.3276 243.816 41.1865 240.694C41.54 240.907 41.9994 240.794 42.214 240.441C44.3575 236.918 46.7687 233.577 49.419 230.447C49.686 230.132 49.6477 229.66 49.3341 229.392C51.7207 226.627 54.2939 224.03 57.0341 221.619C57.3051 221.931 57.7769 221.964 58.0896 221.695C61.1973 219.013 64.5164 216.572 68.0182 214.401C68.3692 214.183 68.4781 213.723 68.2623 213.371C71.371 211.485 74.6192 209.808 77.9878 208.36C78.1489 208.739 78.5869 208.918 78.9679 208.758C82.7295 207.184 86.6394 205.896 90.6708 204.922C91.0723 204.825 91.3196 204.422 91.2246 204.021C94.7421 203.207 98.3492 202.629 102.029 202.305C102.063 202.716 102.423 203.023 102.835 202.991C104.869 202.831 106.925 202.75 109 202.75C111.075 202.75 113.131 202.831 115.165 202.991C115.577 203.023 115.937 202.716 115.971 202.305C119.651 202.629 123.258 203.207 126.775 204.021C126.68 204.422 126.928 204.825 127.329 204.922C131.361 205.896 135.271 207.184 139.032 208.758C139.413 208.918 139.851 208.739 140.012 208.36C143.381 209.808 146.629 211.485 149.738 213.371C149.522 213.723 149.631 214.183 149.982 214.401C153.484 216.572 156.803 219.013 159.91 221.695C160.223 221.964 160.695 221.931 160.966 221.619C163.706 224.03 166.279 226.627 168.666 229.392C168.352 229.66 168.314 230.132 168.581 230.447C171.231 233.577 173.642 236.918 175.786 240.441C176.001 240.794 176.46 240.907 176.813 240.694C178.672 243.816 180.325 247.077 181.751 250.458C181.37 250.616 181.188 251.053 181.345 251.435C182.894 255.205 184.16 259.123 185.117 263.161C185.212 263.563 185.615 263.812 186.016 263.719Z" stroke="white" stroke-width="1.5" stroke-linecap="round" stroke-linejoin="round" stroke-dasharray="12 12"></path>
  <circle cx="108.5" cy="281.5" r="277.75" stroke="white" stroke-opacity="0.1" stroke-width="1.5" stroke-linecap="round" stroke-linejoin="round" stroke-dasharray="12 12"></circle>
  <path d="M125.858 535.45C122.468 535.672 119.06 535.827 115.636 535.915C115.626 535.501 115.283 535.174 114.869 535.183C112.918 535.228 110.962 535.25 109 535.25C107.038 535.25 105.082 535.228 103.131 535.183C102.717 535.174 102.374 535.501 102.364 535.915C98.9396 535.827 95.5319 535.672 92.1423 535.449C92.17 535.037 91.8581 534.679 91.4452 534.651C87.5373 534.384 83.6538 534.027 79.7967 533.585C79.3855 533.537 79.0139 533.832 78.9662 534.243C75.5666 533.842 72.1876 533.375 68.8305 532.842C68.8961 532.433 68.6184 532.049 68.2099 531.982C64.3464 531.357 60.5122 530.644 56.7095 529.846C56.3045 529.761 55.9072 530.02 55.8216 530.424C52.4757 529.712 49.1543 528.933 45.8586 528.09C45.9617 527.689 45.7209 527.281 45.3203 527.177C41.5334 526.196 37.7809 525.13 34.065 523.981C33.6696 523.858 33.25 524.079 33.1272 524.474C29.8627 523.454 26.6266 522.369 23.4202 521.222C23.5602 520.833 23.3584 520.404 22.9692 520.263C19.2922 518.935 15.6548 517.525 12.0592 516.034C11.6769 515.875 11.2386 516.056 11.0795 516.438C7.92625 515.119 4.80525 513.739 1.718 512.298C1.8935 511.924 1.73249 511.478 1.35798 511.302C-2.17742 509.639 -5.66811 507.897 -9.11184 506.078C-9.47774 505.885 -9.93102 506.025 -10.1248 506.39C-13.1406 504.786 -16.1202 503.122 -19.0621 501.402C-18.8527 501.045 -18.9717 500.586 -19.3283 500.376C-22.6929 498.394 -26.0076 496.337 -29.2703 494.207C-29.6168 493.981 -30.081 494.078 -30.3077 494.424C-33.1612 492.549 -35.9747 490.618 -38.7466 488.632C-38.5051 488.296 -38.5814 487.828 -38.9171 487.586C-42.0833 485.304 -45.1947 482.951 -48.2489 480.528C-48.5731 480.271 -49.0443 480.325 -49.3018 480.649C-51.9698 478.52 -54.5939 476.339 -57.1725 474.106C-56.9013 473.794 -56.9342 473.321 -57.2462 473.049C-60.1882 470.487 -63.0705 467.858 -65.8906 465.164C-66.1899 464.878 -66.6641 464.889 -66.9502 465.188C-69.4107 462.824 -71.8237 460.411 -74.1875 457.95C-73.8887 457.664 -73.8781 457.19 -74.164 456.891C-76.8575 454.071 -79.4866 451.188 -82.0488 448.246C-82.3206 447.934 -82.7938 447.901 -83.1061 448.173C-85.3386 445.594 -87.5201 442.97 -89.6489 440.302C-89.3252 440.044 -89.2711 439.573 -89.5282 439.249C-91.9507 436.195 -94.3041 433.083 -96.5861 429.917C-96.8281 429.581 -97.2963 429.505 -97.6322 429.747C-99.6177 426.975 -101.549 424.161 -103.424 421.308C-103.078 421.081 -102.981 420.617 -103.207 420.27C-105.337 417.008 -107.394 413.693 -109.376 410.328C-109.586 409.972 -110.045 409.853 -110.401 410.062C-112.122 407.12 -113.786 404.141 -115.39 401.125C-115.025 400.931 -114.885 400.478 -115.078 400.112C-116.897 396.668 -118.639 393.177 -120.302 389.642C-120.478 389.268 -120.924 389.106 -121.298 389.282C-122.739 386.195 -124.119 383.074 -125.438 379.92C-125.056 379.761 -124.875 379.323 -125.034 378.941C-126.525 375.345 -127.935 371.708 -129.263 368.031C-129.404 367.642 -129.833 367.44 -130.222 367.58C-131.369 364.373 -132.454 361.137 -133.474 357.873C-133.079 357.75 -132.858 357.33 -132.981 356.935C-134.13 353.219 -135.196 349.467 -136.177 345.68C-136.281 345.279 -136.689 345.038 -137.09 345.141C-137.933 341.846 -138.712 338.524 -139.424 335.178C-139.02 335.093 -138.761 334.696 -138.846 334.291C-139.644 330.488 -140.357 326.654 -140.982 322.79C-141.049 322.382 -141.433 322.104 -141.841 322.169C-142.375 318.812 -142.842 315.433 -143.243 312.034C-142.832 311.986 -142.537 311.614 -142.584 311.203C-143.027 307.346 -143.384 303.463 -143.651 299.555C-143.679 299.142 -144.037 298.83 -144.449 298.858C-144.672 295.468 -144.827 292.06 -144.915 288.636C-144.501 288.626 -144.174 288.283 -144.183 287.869C-144.228 285.918 -144.25 283.962 -144.25 282C-144.25 280.038 -144.228 278.082 -144.183 276.131C-144.174 275.717 -144.501 275.374 -144.915 275.364C-144.827 271.94 -144.672 268.532 -144.449 265.142C-144.037 265.17 -143.679 264.858 -143.651 264.445C-143.384 260.537 -143.027 256.654 -142.584 252.797C-142.537 252.386 -142.832 252.014 -143.243 251.966C-142.842 248.567 -142.375 245.188 -141.841 241.831C-141.433 241.896 -141.048 241.618 -140.982 241.21C-140.357 237.346 -139.644 233.512 -138.846 229.709C-138.761 229.304 -139.02 228.907 -139.424 228.822C-138.712 225.476 -137.933 222.154 -137.09 218.859C-136.689 218.962 -136.281 218.721 -136.177 218.32C-135.196 214.533 -134.13 210.781 -132.981 207.065C-132.858 206.67 -133.079 206.25 -133.474 206.127C-132.454 202.863 -131.369 199.627 -130.222 196.42C-129.833 196.56 -129.404 196.358 -129.263 195.969C-127.935 192.292 -126.525 188.655 -125.034 185.059C-124.875 184.677 -125.056 184.239 -125.438 184.08C-124.119 180.926 -122.739 177.805 -121.298 174.718C-120.924 174.893 -120.478 174.732 -120.302 174.358C-118.639 170.823 -116.897 167.332 -115.078 163.888C-114.885 163.522 -115.025 163.069 -115.39 162.875C-113.786 159.859 -112.122 156.88 -110.401 153.938C-110.045 154.147 -109.586 154.028 -109.376 153.672C-107.394 150.307 -105.337 146.992 -103.207 143.73C-102.981 143.383 -103.078 142.919 -103.424 142.692C-101.549 139.839 -99.6177 137.025 -97.6322 134.253C-97.2962 134.495 -96.8281 134.419 -96.5861 134.083C-94.3041 130.917 -91.9507 127.805 -89.5283 124.751C-89.2711 124.427 -89.3252 123.956 -89.649 123.698C-87.5201 121.03 -85.3386 118.406 -83.1061 115.827C-82.7938 116.099 -82.3206 116.066 -82.0488 115.754C-79.4866 112.812 -76.8575 109.93 -74.164 107.109C-73.8781 106.81 -73.8888 106.336 -74.1875 106.05C-71.8237 103.589 -69.4107 101.176 -66.9503 98.8125C-66.6641 99.1112 -66.1899 99.1219 -65.8906 98.836C-63.0705 96.1425 -60.1882 93.5134 -57.2462 90.9512C-56.9342 90.6794 -56.9012 90.2063 -57.1725 89.8939C-54.5938 87.6614 -51.9698 85.4799 -49.3019 83.351C-49.0443 83.6748 -48.5731 83.7289 -48.2489 83.4717C-45.1947 81.0493 -42.0833 78.6959 -38.9171 76.4139C-38.5814 76.1719 -38.5052 75.7038 -38.7466 75.3678C-35.9747 73.3823 -33.1612 71.4512 -30.3077 69.5761C-30.0811 69.9222 -29.6168 70.0194 -29.2703 69.7931C-26.0077 67.6629 -22.6929 65.6059 -19.3283 63.6244C-18.9717 63.4144 -18.8527 62.9553 -19.0621 62.5985C-16.1202 60.8776 -13.1406 59.2142 -10.1248 57.6099C-9.931 57.9754 -9.47775 58.1151 -9.11182 57.9218C-5.66812 56.1028 -2.1774 54.3609 1.358 52.6984C1.73248 52.5223 1.89349 52.0762 1.71799 51.7016C4.80524 50.2609 7.92627 48.8806 11.0795 47.562C11.2386 47.9439 11.6769 48.125 12.0592 47.9664C15.6548 46.4754 19.2923 45.0648 22.9692 43.7369C23.3585 43.5963 23.5602 43.1671 23.4203 42.7778C26.6266 41.6306 29.8627 40.5461 33.1272 39.5256C33.25 39.9207 33.6696 40.1418 34.065 40.0195C37.7809 38.87 41.5334 37.8039 45.3203 36.8231C45.7209 36.7193 45.9618 36.3107 45.8586 35.9101C49.1543 35.067 52.4758 34.2884 55.8217 33.5756C55.9073 33.9804 56.3045 34.2395 56.7095 34.1544C60.5123 33.3562 64.3464 32.6432 68.2099 32.0176C68.6184 31.9515 68.8961 31.567 68.8306 31.1585C72.1877 30.6251 75.5667 30.1575 78.9662 29.757C79.014 30.168 79.3856 30.4627 79.7968 30.4155C83.6539 29.9726 87.5374 29.6164 91.4453 29.3489C91.8582 29.3206 92.17 28.9633 92.1423 28.5505C95.5319 28.3284 98.9397 28.1728 102.364 28.085C102.374 28.4986 102.717 28.8261 103.131 28.8167C105.082 28.7723 107.038 28.75 109 28.75C110.962 28.75 112.918 28.7723 114.869 28.8167C115.283 28.8261 115.626 28.4986 115.636 28.085C119.06 28.1728 122.468 28.3284 125.858 28.5505C125.83 28.9633 126.142 29.3206 126.555 29.3489C130.463 29.6164 134.346 29.9726 138.203 30.4155C138.614 30.4627 138.986 30.168 139.034 29.757C142.433 30.1575 145.812 30.6251 149.169 31.1585C149.104 31.567 149.382 31.9515 149.79 32.0176C153.654 32.6432 157.488 33.3562 161.291 34.1544C161.696 34.2395 162.093 33.9804 162.178 33.5756C165.524 34.2884 168.846 35.067 172.141 35.9101C172.038 36.3107 172.279 36.7193 172.68 36.8231C176.467 37.8039 180.219 38.87 183.935 40.0195C184.33 40.1418 184.75 39.9207 184.873 39.5257C188.137 40.5461 191.373 41.6306 194.58 42.7778C194.44 43.1671 194.642 43.5963 195.031 43.7369C198.708 45.0648 202.345 46.4754 205.941 47.9664C206.323 48.125 206.761 47.9439 206.92 47.562C210.074 48.8806 213.195 50.2609 216.282 51.7016C216.107 52.0762 216.268 52.5223 216.642 52.6984C220.177 54.3609 223.668 56.1028 227.112 57.9218C227.478 58.1151 227.931 57.9754 228.125 57.6099C231.141 59.2142 234.12 60.8776 237.062 62.5985C236.853 62.9553 236.972 63.4144 237.328 63.6244C240.693 65.6059 244.008 67.6629 247.27 69.7931C247.617 70.0194 248.081 69.9222 248.308 69.5761C251.161 71.4512 253.975 73.3823 256.747 75.3678C256.505 75.7037 256.581 76.1719 256.917 76.4138C260.083 78.6959 263.195 81.0493 266.249 83.4717C266.573 83.7289 267.044 83.6748 267.302 83.351C269.97 85.4799 272.594 87.6614 275.173 89.8939C274.901 90.2063 274.934 90.6794 275.246 90.9512C278.188 93.5134 281.07 96.1425 283.891 98.836C284.19 99.1219 284.664 99.1112 284.95 98.8125C287.411 101.176 289.824 103.589 292.188 106.05C291.889 106.336 291.878 106.81 292.164 107.109C294.858 109.93 297.487 112.812 300.049 115.754C300.321 116.066 300.794 116.099 301.106 115.827C303.339 118.406 305.52 121.03 307.649 123.698C307.325 123.956 307.271 124.427 307.528 124.751C309.951 127.805 312.304 130.917 314.586 134.083C314.828 134.419 315.296 134.495 315.632 134.253C317.618 137.025 319.549 139.839 321.424 142.692C321.078 142.919 320.981 143.383 321.207 143.73C323.337 146.992 325.394 150.307 327.376 153.672C327.586 154.028 328.045 154.147 328.401 153.938C330.122 156.88 331.786 159.859 333.39 162.875C333.025 163.069 332.885 163.522 333.078 163.888C334.897 167.332 336.639 170.823 338.302 174.358C338.478 174.732 338.924 174.894 339.298 174.718C340.739 177.805 342.119 180.926 343.438 184.08C343.056 184.239 342.875 184.677 343.034 185.059C344.525 188.655 345.935 192.292 347.263 195.969C347.404 196.358 347.833 196.56 348.222 196.42C349.369 199.627 350.454 202.863 351.474 206.127C351.079 206.25 350.858 206.67 350.981 207.065C352.13 210.781 353.196 214.533 354.177 218.32C354.281 218.721 354.689 218.962 355.09 218.859C355.933 222.154 356.712 225.476 357.424 228.822C357.02 228.907 356.761 229.304 356.846 229.71C357.644 233.512 358.357 237.346 358.982 241.21C359.049 241.618 359.433 241.896 359.841 241.831C360.375 245.188 360.842 248.567 361.243 251.966C360.832 252.014 360.537 252.386 360.584 252.797C361.027 256.654 361.384 260.537 361.651 264.445C361.679 264.858 362.037 265.17 362.449 265.142C362.672 268.532 362.827 271.94 362.915 275.364C362.501 275.374 362.174 275.717 362.183 276.131C362.228 278.082 362.25 280.038 362.25 282C362.25 283.962 362.228 285.918 362.183 287.869C362.174 288.283 362.501 288.626 362.915 288.636C362.827 292.06 362.672 295.468 362.449 298.858C362.037 298.83 361.679 299.142 361.651 299.555C361.384 303.463 361.027 307.346 360.584 311.203C360.537 311.614 360.832 311.986 361.243 312.034C360.842 315.433 360.375 318.812 359.841 322.169C359.433 322.104 359.048 322.382 358.982 322.79C358.357 326.654 357.644 330.488 356.846 334.291C356.761 334.696 357.02 335.093 357.424 335.178C356.712 338.524 355.933 341.846 355.09 345.141C354.689 345.038 354.281 345.279 354.177 345.68C353.196 349.467 352.13 353.219 350.981 356.935C350.858 357.33 351.079 357.75 351.474 357.873C350.454 361.137 349.369 364.373 348.222 367.58C347.833 367.44 347.404 367.642 347.263 368.031C345.935 371.708 344.525 375.345 343.034 378.941C342.875 379.323 343.056 379.761 343.438 379.921C342.119 383.074 340.739 386.195 339.298 389.282C338.924 389.107 338.478 389.268 338.302 389.642C336.639 393.177 334.897 396.668 333.078 400.112C332.885 400.478 333.025 400.931 333.39 401.125C331.786 404.141 330.122 407.12 328.401 410.062C328.045 409.853 327.586 409.972 327.376 410.328C325.394 413.693 323.337 417.008 321.207 420.27C320.981 420.617 321.078 421.081 321.424 421.308C319.549 424.161 317.618 426.975 315.632 429.747C315.296 429.505 314.828 429.581 314.586 429.917C312.304 433.083 309.951 436.195 307.528 439.249C307.271 439.573 307.325 440.044 307.649 440.302C305.52 442.97 303.339 445.594 301.106 448.173C300.794 447.901 300.321 447.934 300.049 448.246C297.487 451.188 294.858 454.07 292.164 456.891C291.878 457.19 291.889 457.664 292.188 457.95C289.824 460.411 287.411 462.824 284.95 465.188C284.664 464.889 284.19 464.878 283.891 465.164C281.071 467.858 278.188 470.487 275.246 473.049C274.934 473.321 274.901 473.794 275.173 474.106C272.594 476.339 269.97 478.52 267.302 480.649C267.044 480.325 266.573 480.271 266.249 480.528C263.195 482.951 260.083 485.304 256.917 487.586C256.581 487.828 256.505 488.296 256.747 488.632C253.975 490.618 251.161 492.549 248.308 494.424C248.081 494.078 247.617 493.981 247.27 494.207C244.008 496.337 240.693 498.394 237.328 500.376C236.972 500.586 236.853 501.045 237.062 501.401C234.12 503.122 231.141 504.786 228.125 506.39C227.931 506.025 227.478 505.885 227.112 506.078C223.668 507.897 220.177 509.639 216.642 511.302C216.268 511.478 216.107 511.924 216.282 512.298C213.195 513.739 210.074 515.119 206.92 516.438C206.761 516.056 206.323 515.875 205.941 516.034C202.345 517.525 198.708 518.935 195.031 520.263C194.642 520.404 194.44 520.833 194.58 521.222C191.373 522.369 188.137 523.454 184.873 524.474C184.75 524.079 184.33 523.858 183.935 523.981C180.219 525.13 176.467 526.196 172.68 527.177C172.279 527.281 172.038 527.689 172.141 528.09C168.846 528.933 165.524 529.712 162.178 530.424C162.093 530.02 161.696 529.761 161.291 529.846C157.488 530.644 153.654 531.357 149.79 531.982C149.382 532.049 149.104 532.433 149.169 532.842C145.812 533.375 142.433 533.842 139.034 534.243C138.986 533.832 138.614 533.537 138.203 533.585C134.346 534.027 130.463 534.384 126.555 534.651C126.142 534.679 125.83 535.037 125.858 535.45Z" stroke="white" stroke-opacity="0.2" stroke-width="1.5" stroke-linecap="round" stroke-linejoin="round" stroke-dasharray="12 12"></path>
  <path d="M473.726 178.804L474.214 178.792V178.304V156.512C478.327 156.606 482.333 157.864 485.765 160.145C489.337 162.519 492.13 165.895 493.793 169.85C495.457 173.805 495.918 178.164 495.118 182.38C494.318 186.596 492.292 190.482 489.296 193.551C486.299 196.62 482.464 198.735 478.272 199.633C474.079 200.531 469.715 200.17 465.727 198.597C461.738 197.023 458.302 194.307 455.848 190.787C453.49 187.405 452.141 183.425 451.953 179.311L473.726 178.804Z" stroke="#F9FBFD"></path>
  <path d="M467.441 150.519L467.771 171.803L446.505 172.286C446.628 166.639 448.82 161.227 452.673 157.085C456.613 153.131 461.88 150.794 467.441 150.519Z" fill="white" stroke="white"></path>
  <path d="M518.204 165.2H520.024V175H518.204V165.2ZM513.136 175H511.316V165.2H513.136V175ZM518.344 170.8H512.982V169.246H518.344V170.8ZM525.996 175.098C525.165 175.098 524.437 174.935 523.812 174.608C523.196 174.272 522.715 173.815 522.37 173.236C522.034 172.657 521.866 171.999 521.866 171.262C521.866 170.515 522.029 169.857 522.356 169.288C522.692 168.709 523.149 168.257 523.728 167.93C524.316 167.603 524.983 167.44 525.73 167.44C526.458 167.44 527.107 167.599 527.676 167.916C528.245 168.233 528.693 168.681 529.02 169.26C529.347 169.839 529.51 170.52 529.51 171.304C529.51 171.379 529.505 171.463 529.496 171.556C529.496 171.649 529.491 171.738 529.482 171.822H523.252V170.66H528.558L527.872 171.024C527.881 170.595 527.793 170.217 527.606 169.89C527.419 169.563 527.163 169.307 526.836 169.12C526.519 168.933 526.15 168.84 525.73 168.84C525.301 168.84 524.923 168.933 524.596 169.12C524.279 169.307 524.027 169.568 523.84 169.904C523.663 170.231 523.574 170.618 523.574 171.066V171.346C523.574 171.794 523.677 172.191 523.882 172.536C524.087 172.881 524.377 173.147 524.75 173.334C525.123 173.521 525.553 173.614 526.038 173.614C526.458 173.614 526.836 173.549 527.172 173.418C527.508 173.287 527.807 173.082 528.068 172.802L529.006 173.88C528.67 174.272 528.245 174.575 527.732 174.79C527.228 174.995 526.649 175.098 525.996 175.098ZM531.191 175V164.612H532.941V175H531.191ZM539.382 175.098C538.775 175.098 538.22 174.958 537.716 174.678C537.221 174.398 536.825 173.978 536.526 173.418C536.237 172.849 536.092 172.13 536.092 171.262C536.092 170.385 536.232 169.666 536.512 169.106C536.801 168.546 537.193 168.131 537.688 167.86C538.183 167.58 538.747 167.44 539.382 167.44C540.119 167.44 540.768 167.599 541.328 167.916C541.897 168.233 542.345 168.677 542.672 169.246C543.008 169.815 543.176 170.487 543.176 171.262C543.176 172.037 543.008 172.713 542.672 173.292C542.345 173.861 541.897 174.305 541.328 174.622C540.768 174.939 540.119 175.098 539.382 175.098ZM535.238 177.716V167.524H536.904V169.288L536.848 171.276L536.988 173.264V177.716H535.238ZM539.186 173.6C539.606 173.6 539.979 173.507 540.306 173.32C540.642 173.133 540.908 172.863 541.104 172.508C541.3 172.153 541.398 171.738 541.398 171.262C541.398 170.777 541.3 170.361 541.104 170.016C540.908 169.661 540.642 169.391 540.306 169.204C539.979 169.017 539.606 168.924 539.186 168.924C538.766 168.924 538.388 169.017 538.052 169.204C537.716 169.391 537.45 169.661 537.254 170.016C537.058 170.361 536.96 170.777 536.96 171.262C536.96 171.738 537.058 172.153 537.254 172.508C537.45 172.863 537.716 173.133 538.052 173.32C538.388 173.507 538.766 173.6 539.186 173.6ZM551.519 175.098C550.697 175.098 550.063 174.888 549.615 174.468C549.167 174.039 548.943 173.409 548.943 172.578V165.872H550.693V172.536C550.693 172.891 550.781 173.166 550.959 173.362C551.145 173.558 551.402 173.656 551.729 173.656C552.121 173.656 552.447 173.553 552.709 173.348L553.199 174.594C552.993 174.762 552.741 174.888 552.443 174.972C552.144 175.056 551.836 175.098 551.519 175.098ZM547.711 168.98V167.58H552.695V168.98H547.711ZM557.752 175.098C556.987 175.098 556.305 174.935 555.708 174.608C555.111 174.272 554.639 173.815 554.294 173.236C553.949 172.657 553.776 171.999 553.776 171.262C553.776 170.515 553.949 169.857 554.294 169.288C554.639 168.709 555.111 168.257 555.708 167.93C556.305 167.603 556.987 167.44 557.752 167.44C558.527 167.44 559.213 167.603 559.81 167.93C560.417 168.257 560.888 168.705 561.224 169.274C561.569 169.843 561.742 170.506 561.742 171.262C561.742 171.999 561.569 172.657 561.224 173.236C560.888 173.815 560.417 174.272 559.81 174.608C559.213 174.935 558.527 175.098 557.752 175.098ZM557.752 173.6C558.181 173.6 558.564 173.507 558.9 173.32C559.236 173.133 559.497 172.863 559.684 172.508C559.88 172.153 559.978 171.738 559.978 171.262C559.978 170.777 559.88 170.361 559.684 170.016C559.497 169.661 559.236 169.391 558.9 169.204C558.564 169.017 558.186 168.924 557.766 168.924C557.337 168.924 556.954 169.017 556.618 169.204C556.291 169.391 556.03 169.661 555.834 170.016C555.638 170.361 555.54 170.777 555.54 171.262C555.54 171.738 555.638 172.153 555.834 172.508C556.03 172.863 556.291 173.133 556.618 173.32C556.954 173.507 557.332 173.6 557.752 173.6ZM570.673 177.814C569.982 177.814 569.305 177.721 568.643 177.534C567.989 177.357 567.453 177.095 567.033 176.75L567.817 175.434C568.143 175.705 568.554 175.919 569.049 176.078C569.553 176.246 570.061 176.33 570.575 176.33C571.396 176.33 571.998 176.139 572.381 175.756C572.763 175.383 572.955 174.818 572.955 174.062V172.732L573.095 171.038L573.039 169.344V167.524H574.705V173.866C574.705 175.219 574.359 176.213 573.669 176.848C572.978 177.492 571.979 177.814 570.673 177.814ZM570.449 174.664C569.739 174.664 569.095 174.515 568.517 174.216C567.947 173.908 567.495 173.483 567.159 172.942C566.832 172.401 566.669 171.766 566.669 171.038C566.669 170.319 566.832 169.689 567.159 169.148C567.495 168.607 567.947 168.187 568.517 167.888C569.095 167.589 569.739 167.44 570.449 167.44C571.083 167.44 571.653 167.566 572.157 167.818C572.661 168.07 573.062 168.462 573.361 168.994C573.669 169.526 573.823 170.207 573.823 171.038C573.823 171.869 573.669 172.555 573.361 173.096C573.062 173.628 572.661 174.025 572.157 174.286C571.653 174.538 571.083 174.664 570.449 174.664ZM570.715 173.18C571.153 173.18 571.545 173.091 571.891 172.914C572.236 172.727 572.502 172.475 572.689 172.158C572.885 171.831 572.983 171.458 572.983 171.038C572.983 170.618 572.885 170.249 572.689 169.932C572.502 169.605 572.236 169.358 571.891 169.19C571.545 169.013 571.153 168.924 570.715 168.924C570.276 168.924 569.879 169.013 569.525 169.19C569.179 169.358 568.909 169.605 568.713 169.932C568.526 170.249 568.433 170.618 568.433 171.038C568.433 171.458 568.526 171.831 568.713 172.158C568.909 172.475 569.179 172.727 569.525 172.914C569.879 173.091 570.276 173.18 570.715 173.18ZM577.005 175V167.524H578.671V169.582L578.475 168.98C578.699 168.476 579.049 168.093 579.525 167.832C580.011 167.571 580.613 167.44 581.331 167.44V169.106C581.257 169.087 581.187 169.078 581.121 169.078C581.056 169.069 580.991 169.064 580.925 169.064C580.263 169.064 579.735 169.26 579.343 169.652C578.951 170.035 578.755 170.609 578.755 171.374V175H577.005ZM586.108 175.098C585.342 175.098 584.661 174.935 584.064 174.608C583.466 174.272 582.995 173.815 582.65 173.236C582.304 172.657 582.132 171.999 582.132 171.262C582.132 170.515 582.304 169.857 582.65 169.288C582.995 168.709 583.466 168.257 584.064 167.93C584.661 167.603 585.342 167.44 586.108 167.44C586.882 167.44 587.568 167.603 588.166 167.93C588.772 168.257 589.244 168.705 589.58 169.274C589.925 169.843 590.098 170.506 590.098 171.262C590.098 171.999 589.925 172.657 589.58 173.236C589.244 173.815 588.772 174.272 588.166 174.608C587.568 174.935 586.882 175.098 586.108 175.098ZM586.108 173.6C586.537 173.6 586.92 173.507 587.256 173.32C587.592 173.133 587.853 172.863 588.04 172.508C588.236 172.153 588.334 171.738 588.334 171.262C588.334 170.777 588.236 170.361 588.04 170.016C587.853 169.661 587.592 169.391 587.256 169.204C586.92 169.017 586.542 168.924 586.122 168.924C585.692 168.924 585.31 169.017 584.974 169.204C584.647 169.391 584.386 169.661 584.19 170.016C583.994 170.361 583.896 170.777 583.896 171.262C583.896 171.738 583.994 172.153 584.19 172.508C584.386 172.863 584.647 173.133 584.974 173.32C585.31 173.507 585.688 173.6 586.108 173.6ZM593.218 175L590.474 167.524H592.126L594.478 174.118H593.694L596.158 167.524H597.628L600.022 174.118H599.252L601.674 167.524H603.228L600.47 175H598.79L596.606 169.162H597.124L594.898 175H593.218ZM511.386 196V188.104C511.386 187.32 511.615 186.695 512.072 186.228C512.539 185.752 513.201 185.514 514.06 185.514C514.368 185.514 514.657 185.547 514.928 185.612C515.208 185.677 515.441 185.78 515.628 185.92L515.152 187.236C515.021 187.133 514.872 187.059 514.704 187.012C514.536 186.956 514.363 186.928 514.186 186.928C513.822 186.928 513.547 187.031 513.36 187.236C513.173 187.432 513.08 187.731 513.08 188.132V188.972L513.136 189.756V196H511.386ZM510.154 189.98V188.58H515.138V189.98H510.154ZM520.785 196V194.488L520.687 194.166V191.52C520.687 191.007 520.533 190.61 520.225 190.33C519.917 190.041 519.451 189.896 518.825 189.896C518.405 189.896 517.99 189.961 517.579 190.092C517.178 190.223 516.837 190.405 516.557 190.638L515.871 189.364C516.273 189.056 516.749 188.827 517.299 188.678C517.859 188.519 518.438 188.44 519.035 188.44C520.118 188.44 520.953 188.701 521.541 189.224C522.139 189.737 522.437 190.535 522.437 191.618V196H520.785ZM518.433 196.098C517.873 196.098 517.383 196.005 516.963 195.818C516.543 195.622 516.217 195.356 515.983 195.02C515.759 194.675 515.647 194.287 515.647 193.858C515.647 193.438 515.745 193.06 515.941 192.724C516.147 192.388 516.478 192.122 516.935 191.926C517.393 191.73 517.999 191.632 518.755 191.632H520.925V192.794H518.881C518.284 192.794 517.883 192.892 517.677 193.088C517.472 193.275 517.369 193.508 517.369 193.788C517.369 194.105 517.495 194.357 517.747 194.544C517.999 194.731 518.349 194.824 518.797 194.824C519.227 194.824 519.609 194.726 519.945 194.53C520.291 194.334 520.538 194.045 520.687 193.662L520.981 194.712C520.813 195.151 520.51 195.491 520.071 195.734C519.642 195.977 519.096 196.098 518.433 196.098ZM526.993 196.098C526.368 196.098 525.766 196.019 525.187 195.86C524.618 195.692 524.165 195.491 523.829 195.258L524.501 193.928C524.837 194.143 525.238 194.32 525.705 194.46C526.172 194.6 526.638 194.67 527.105 194.67C527.656 194.67 528.052 194.595 528.295 194.446C528.547 194.297 528.673 194.096 528.673 193.844C528.673 193.639 528.589 193.485 528.421 193.382C528.253 193.27 528.034 193.186 527.763 193.13C527.492 193.074 527.189 193.023 526.853 192.976C526.526 192.929 526.195 192.869 525.859 192.794C525.532 192.71 525.234 192.593 524.963 192.444C524.692 192.285 524.473 192.075 524.305 191.814C524.137 191.553 524.053 191.207 524.053 190.778C524.053 190.302 524.188 189.891 524.459 189.546C524.73 189.191 525.108 188.921 525.593 188.734C526.088 188.538 526.671 188.44 527.343 188.44C527.847 188.44 528.356 188.496 528.869 188.608C529.382 188.72 529.807 188.879 530.143 189.084L529.471 190.414C529.116 190.199 528.757 190.055 528.393 189.98C528.038 189.896 527.684 189.854 527.329 189.854C526.797 189.854 526.4 189.933 526.139 190.092C525.887 190.251 525.761 190.451 525.761 190.694C525.761 190.918 525.845 191.086 526.013 191.198C526.181 191.31 526.4 191.399 526.671 191.464C526.942 191.529 527.24 191.585 527.567 191.632C527.903 191.669 528.234 191.73 528.561 191.814C528.888 191.898 529.186 192.015 529.457 192.164C529.737 192.304 529.961 192.505 530.129 192.766C530.297 193.027 530.381 193.368 530.381 193.788C530.381 194.255 530.241 194.661 529.961 195.006C529.69 195.351 529.303 195.622 528.799 195.818C528.295 196.005 527.693 196.098 526.993 196.098ZM534.702 196.098C533.881 196.098 533.246 195.888 532.798 195.468C532.35 195.039 532.126 194.409 532.126 193.578V186.872H533.876V193.536C533.876 193.891 533.965 194.166 534.142 194.362C534.329 194.558 534.586 194.656 534.912 194.656C535.304 194.656 535.631 194.553 535.892 194.348L536.382 195.594C536.177 195.762 535.925 195.888 535.626 195.972C535.328 196.056 535.02 196.098 534.702 196.098ZM530.894 189.98V188.58H535.878V189.98H530.894ZM541.09 196.098C540.259 196.098 539.531 195.935 538.906 195.608C538.29 195.272 537.809 194.815 537.464 194.236C537.128 193.657 536.96 192.999 536.96 192.262C536.96 191.515 537.123 190.857 537.45 190.288C537.786 189.709 538.243 189.257 538.822 188.93C539.41 188.603 540.077 188.44 540.824 188.44C541.552 188.44 542.2 188.599 542.77 188.916C543.339 189.233 543.787 189.681 544.114 190.26C544.44 190.839 544.604 191.52 544.604 192.304C544.604 192.379 544.599 192.463 544.59 192.556C544.59 192.649 544.585 192.738 544.576 192.822H538.346V191.66H543.652L542.966 192.024C542.975 191.595 542.886 191.217 542.7 190.89C542.513 190.563 542.256 190.307 541.93 190.12C541.612 189.933 541.244 189.84 540.824 189.84C540.394 189.84 540.016 189.933 539.69 190.12C539.372 190.307 539.12 190.568 538.934 190.904C538.756 191.231 538.668 191.618 538.668 192.066V192.346C538.668 192.794 538.77 193.191 538.976 193.536C539.181 193.881 539.47 194.147 539.844 194.334C540.217 194.521 540.646 194.614 541.132 194.614C541.552 194.614 541.93 194.549 542.266 194.418C542.602 194.287 542.9 194.082 543.162 193.802L544.1 194.88C543.764 195.272 543.339 195.575 542.826 195.79C542.322 195.995 541.743 196.098 541.09 196.098ZM546.285 196V188.524H547.951V190.582L547.755 189.98C547.979 189.476 548.329 189.093 548.805 188.832C549.29 188.571 549.892 188.44 550.611 188.44V190.106C550.536 190.087 550.466 190.078 550.401 190.078C550.335 190.069 550.27 190.064 550.205 190.064C549.542 190.064 549.015 190.26 548.623 190.652C548.231 191.035 548.035 191.609 548.035 192.374V196H546.285Z" fill="white"></path>
  <path d="M180.666 61.8452C180.664 62.6035 180.438 63.3443 180.015 63.974C179.593 64.6037 178.994 65.094 178.293 65.383C177.593 65.672 176.823 65.7467 176.08 65.5977C175.337 65.4486 174.655 65.0826 174.119 64.5457C173.584 64.0088 173.22 63.3253 173.073 62.5814C172.926 61.8375 173.002 61.0666 173.293 60.3661C173.583 59.6657 174.074 59.0671 174.704 58.6459C175.334 58.2248 176.075 58 176.833 58C177.337 58 177.836 58.0995 178.302 58.2929C178.767 58.4862 179.19 58.7696 179.546 59.1268C179.902 59.4839 180.184 59.9079 180.377 60.3744C180.569 60.8408 180.667 61.3406 180.666 61.8452Z" fill="white"></path>
  <path d="M238.666 213.845C238.664 214.604 238.438 215.344 238.015 215.974C237.593 216.604 236.994 217.094 236.293 217.383C235.593 217.672 234.823 217.747 234.08 217.598C233.337 217.449 232.655 217.083 232.119 216.546C231.584 216.009 231.22 215.325 231.073 214.581C230.926 213.837 231.002 213.067 231.293 212.366C231.583 211.666 232.074 211.067 232.704 210.646C233.334 210.225 234.075 210 234.833 210C235.337 210 235.836 210.1 236.302 210.293C236.767 210.486 237.19 210.77 237.546 211.127C237.902 211.484 238.184 211.908 238.377 212.374C238.569 212.841 238.667 213.341 238.666 213.845Z" fill="white"></path>
  <path d="M130.666 359.845C130.664 360.604 130.438 361.344 130.015 361.974C129.593 362.604 128.994 363.094 128.293 363.383C127.593 363.672 126.823 363.747 126.08 363.598C125.337 363.449 124.655 363.083 124.119 362.546C123.584 362.009 123.22 361.325 123.073 360.581C122.926 359.837 123.002 359.067 123.293 358.366C123.583 357.666 124.074 357.067 124.704 356.646C125.334 356.225 126.075 356 126.833 356C127.337 356 127.836 356.1 128.302 356.293C128.767 356.486 129.19 356.77 129.546 357.127C129.902 357.484 130.184 357.908 130.377 358.374C130.569 358.841 130.667 359.341 130.666 359.845Z" fill="white"></path>
  <path d="M378.666 191.845C378.664 192.604 378.438 193.344 378.015 193.974C377.593 194.604 376.994 195.094 376.293 195.383C375.593 195.672 374.823 195.747 374.08 195.598C373.337 195.449 372.655 195.083 372.119 194.546C371.584 194.009 371.22 193.325 371.073 192.581C370.926 191.837 371.002 191.067 371.293 190.366C371.583 189.666 372.074 189.067 372.704 188.646C373.334 188.225 374.075 188 374.833 188C375.337 188 375.836 188.1 376.302 188.293C376.767 188.486 377.19 188.77 377.546 189.127C377.902 189.484 378.184 189.908 378.377 190.374C378.569 190.841 378.667 191.341 378.666 191.845Z" fill="white"></path>
  <path d="M316.666 388.845C316.664 389.604 316.438 390.344 316.015 390.974C315.593 391.604 314.994 392.094 314.293 392.383C313.593 392.672 312.823 392.747 312.08 392.598C311.337 392.449 310.655 392.083 310.119 391.546C309.584 391.009 309.22 390.325 309.073 389.581C308.926 388.837 309.002 388.067 309.293 387.366C309.583 386.666 310.074 386.067 310.704 385.646C311.334 385.225 312.075 385 312.833 385C313.337 385 313.836 385.1 314.302 385.293C314.767 385.486 315.19 385.77 315.546 386.127C315.902 386.484 316.184 386.908 316.377 387.374C316.569 387.841 316.667 388.341 316.666 388.845Z" fill="white"></path>
</svg>
