<?xml version="1.0" encoding="UTF-8"?>
<svg xmlns="http://www.w3.org/2000/svg" width="117" height="117" viewBox="0 0 117 117" fill="none">
  <path d="M80.763 35.6097C80.7446 35.5209 80.7012 35.4391 80.6379 35.3741C80.5747 35.3091 80.4942 35.2635 80.406 35.2427C74.5234 33.8028 60.9343 38.9334 53.5642 46.3041C52.2507 47.6079 51.053 49.0236 49.9847 50.5351C47.713 50.3294 45.4413 50.5026 43.5071 51.3471C38.0453 53.7506 36.4562 60.0278 36.0127 62.7225C35.9886 62.8702 35.9989 63.0214 36.0427 63.1644C36.0864 63.3075 36.1625 63.4385 36.265 63.5474C36.3675 63.6563 36.4937 63.7401 36.6338 63.7923C36.7739 63.8445 36.9241 63.8637 37.0728 63.8485L45.8426 62.8849C45.8487 63.5469 45.8884 64.2082 45.9616 64.8662C46.0074 65.3209 46.2101 65.7455 46.535 66.0668L49.9306 69.4653C50.2519 69.7906 50.6766 69.9935 51.1314 70.0391C51.7848 70.112 52.4416 70.1517 53.0991 70.1581L52.1374 78.9276C52.1224 79.0762 52.1417 79.2263 52.1939 79.3663C52.2461 79.5063 52.3297 79.6323 52.4384 79.7348C52.547 79.8372 52.6777 79.9133 52.8204 79.9571C52.9631 80.001 53.114 80.0114 53.2613 79.9875C55.9549 79.5545 62.24 77.9641 64.6274 72.4988C65.4712 70.5609 65.6443 68.2992 65.4495 66.0365C66.9643 64.9683 68.3828 63.7695 69.689 62.454C77.086 55.092 82.1801 41.7906 80.763 35.6097ZM63.114 52.917C62.4679 52.2705 62.0279 51.4467 61.8496 50.55C61.6713 49.6532 61.7627 48.7236 62.1122 47.8788C62.4618 47.034 63.0539 46.312 63.8135 45.8039C64.5731 45.2959 65.4662 45.0248 66.3799 45.0248C67.2935 45.0248 68.1866 45.2959 68.9462 45.8039C69.7058 46.312 70.2979 47.034 70.6475 47.8788C70.997 48.7236 71.0885 49.6532 70.9101 50.55C70.7318 51.4467 70.2918 52.2705 69.6457 52.917C69.2171 53.3468 68.7081 53.6878 68.1477 53.9204C67.5873 54.1531 66.9866 54.2728 66.3799 54.2728C65.7732 54.2728 65.1724 54.1531 64.612 53.9204C64.0516 53.6878 63.5426 53.3468 63.114 52.917Z" stroke="#005CBE" stroke-linecap="round" stroke-linejoin="round"></path>
  <path d="M42.6657 67.8936C41.5873 68.026 40.584 68.5153 39.8152 69.2837C37.9092 71.1978 37.7285 78.287 37.7285 78.287C37.7285 78.287 44.8162 78.1062 46.7234 76.1964C47.4942 75.4282 47.9839 74.4224 48.1134 73.3414" stroke="#005CBE" stroke-linecap="round" stroke-linejoin="round"></path>
  <path d="M104.786 69.8855C106.938 61.2915 106.67 52.2695 104.012 43.8185C101.353 35.3674 96.407 27.8171 89.7219 22.0036C83.0367 16.19 74.873 12.34 66.1347 10.88C57.3964 9.41992 48.4245 10.4067 40.2125 13.7312C32.0005 17.0556 24.8688 22.5879 19.607 29.7155C14.3452 36.8432 11.1587 45.288 10.4004 54.1149C9.64199 62.9417 11.3413 71.8063 15.3102 79.727C19.2791 87.6477 25.3627 94.3154 32.8873 98.9918L33.3115 98.3093C25.9129 93.7112 19.9311 87.1551 16.0287 79.367C12.1262 71.5789 10.4553 62.8628 11.201 54.1836C11.9467 45.5045 15.0798 37.2011 20.2535 30.1928C25.4272 23.1845 32.4395 17.7448 40.5141 14.476C48.5886 11.2073 57.4103 10.237 66.0023 11.6726C74.5943 13.1082 82.6213 16.8937 89.1946 22.6099C95.7678 28.3262 100.631 35.7501 103.245 44.0597C105.859 52.3692 106.123 61.2402 104.006 69.6903L104.786 69.8855Z" fill="url(#paint0_linear_646_184151)"></path>
  <circle cx="105" cy="69" r="4" fill="#47EEC7"></circle>
  <defs>
    <linearGradient id="paint0_linear_646_184151" x1="111.724" y1="3.22364" x2="46.5623" y2="104.785" gradientUnits="userSpaceOnUse">
      <stop stop-color="#005CBE"></stop>
      <stop offset="1" stop-color="#005CBE" stop-opacity="0.06"></stop>
    </linearGradient>
  </defs>
</svg>
