<?xml version="1.0" encoding="UTF-8"?>
<svg xmlns="http://www.w3.org/2000/svg" width="12" height="12" viewBox="0 0 12 12" fill="none">
  <path fill-rule="evenodd" clip-rule="evenodd" d="M11 6C11 8.76142 8.76142 11 6 11C3.23858 11 1 8.76142 1 6C1 3.23858 3.23858 1 6 1C8.76142 1 11 3.23858 11 6ZM12 6C12 9.31371 9.31371 12 6 12C2.68629 12 0 9.31371 0 6C0 2.68629 2.68629 0 6 0C9.31371 0 12 2.68629 12 6ZM8.75317 3.95901C8.90092 4.15831 8.82049 4.434 8.6036 4.55444C8.3867 4.67488 8.11602 4.59336 7.95917 4.40115C7.69983 4.08337 7.36559 3.83157 6.98363 3.67018C6.46289 3.45016 5.88346 3.41087 5.33778 3.55858C4.7921 3.70629 4.31161 4.03249 3.97296 4.48515C3.6343 4.93781 3.457 5.49084 3.46933 6.05602C3.48166 6.62121 3.68292 7.16598 4.04099 7.60344C4.39906 8.04089 4.89332 8.34583 5.44492 8.4696C5.99652 8.59338 6.57369 8.52885 7.08434 8.28633C7.4589 8.10844 7.78184 7.8423 8.02707 7.51351C8.17539 7.31464 8.44226 7.22139 8.6642 7.33226C8.88614 7.44313 8.97851 7.71504 8.8396 7.9206C8.49795 8.42615 8.02583 8.83378 7.46977 9.09787C6.77779 9.42651 5.99569 9.51395 5.24822 9.34622C4.50075 9.1785 3.83099 8.76528 3.34577 8.17249C2.86055 7.5797 2.58784 6.84149 2.57113 6.07562C2.55442 5.30975 2.79468 4.56034 3.25358 3.94696C3.71249 3.33357 4.36359 2.89153 5.10303 2.69137C5.84247 2.49121 6.62765 2.54445 7.3333 2.8426C7.90035 3.08219 8.38979 3.46884 8.75317 3.95901Z" fill="white"></path>
</svg>
