<?xml version="1.0" encoding="UTF-8"?>
<svg xmlns="http://www.w3.org/2000/svg" width="95" height="87" viewBox="0 0 95 87" fill="none">
  <path d="M66.0586 43.5C66.0586 55.4585 63.8847 66.2607 60.3909 74.0546C58.6438 77.9521 56.5763 81.0755 54.3057 83.2179C52.0378 85.3577 49.5898 86.5 47.0586 86.5C44.5274 86.5 42.0794 85.3577 39.8115 83.2179C37.5409 81.0755 35.4734 77.9521 33.7263 74.0546C30.2324 66.2607 28.0586 55.4585 28.0586 43.5C28.0586 31.5415 30.2324 20.7393 33.7263 12.9454C35.4734 9.04786 37.5409 5.92447 39.8115 3.78212C42.0794 1.64227 44.5274 0.5 47.0586 0.5C49.5898 0.5 52.0378 1.64227 54.3057 3.78212C56.5763 5.92447 58.6438 9.04786 60.3909 12.9454C63.8847 20.7393 66.0586 31.5415 66.0586 43.5Z" stroke="#005CBE"></path>
  <path d="M56.8039 59.6564C46.5677 65.5663 36.2348 69.0221 27.8173 69.8484C19.3501 70.6796 13.0316 68.8405 10.4978 64.4519C7.96403 60.0633 9.53067 53.6719 14.4841 46.7546C19.4084 39.878 27.5677 32.6573 37.8039 26.7475C48.04 20.8376 58.373 17.3818 66.7904 16.5555C75.2577 15.7243 81.5762 17.5633 84.11 21.9519C86.6437 26.3405 85.0771 32.732 80.1237 39.6493C75.1994 46.5259 67.04 53.7466 56.8039 59.6564Z" stroke="#005CBE"></path>
  <path d="M37.5109 59.8381C27.2748 53.9282 19.1154 46.7076 14.1911 39.8309C9.2377 32.9137 7.67107 26.5222 10.2048 22.1336C12.7386 17.745 19.0571 15.906 27.5243 16.7371C35.9418 17.5634 46.2748 21.0193 56.5109 26.9291C66.7471 32.839 74.9064 40.0596 79.8307 46.9362C84.7841 53.8535 86.3507 60.245 83.817 64.6336C81.2832 69.0222 74.9647 70.8612 66.4975 70.03C58.08 69.2038 47.7471 65.7479 37.5109 59.8381Z" stroke="#005CBE"></path>
  <circle cx="47.5" cy="43.5" r="7" stroke="#005CBE"></circle>
  <circle cx="74.5" cy="16.5" r="4.5" fill="#47EEC7"></circle>
</svg>
