<?xml version="1.0" encoding="UTF-8"?>
<svg xmlns="http://www.w3.org/2000/svg" width="60" height="60" viewBox="0 0 60 60" fill="none">
  <rect width="60" height="60" rx="30" fill="url(#paint0_linear_147_90951)"></rect>
  <path d="M30.0009 41.0009V31.8134M30.0009 31.8134C30.8863 31.8141 31.7683 31.7029 32.6259 31.4826M30.0009 31.8134C29.1154 31.8141 28.2335 31.7029 27.3759 31.4826M33.9384 44.5691C31.3366 45.0632 28.6651 45.0632 26.0634 44.5691M32.6259 48.7394C30.8806 48.9221 29.1211 48.9221 27.3759 48.7394M33.9384 41.0009V40.6649C33.9384 38.9446 35.0899 37.4746 36.5774 36.6119C39.0764 35.1647 41.0284 32.9338 42.1309 30.2647C43.2333 27.5957 43.4248 24.6375 42.6756 21.8486C41.9263 19.0597 40.2782 16.5958 37.9866 14.8385C35.695 13.0813 32.8878 12.1289 30 12.1289C27.1122 12.1289 24.305 13.0813 22.0134 14.8385C19.7218 16.5958 18.0737 19.0597 17.3245 21.8486C16.5752 24.6375 16.7667 27.5957 17.8692 30.2647C18.9716 32.9338 20.9236 35.1647 23.4226 36.6119C24.9101 37.4746 26.0634 38.9446 26.0634 40.6649V41.0009" stroke="white" stroke-width="1.5" stroke-linecap="round" stroke-linejoin="round"></path>
  <defs>
    <linearGradient id="paint0_linear_147_90951" x1="30.1357" y1="-11.7647" x2="30.1357" y2="69.4118" gradientUnits="userSpaceOnUse">
      <stop offset="0.0932689" stop-color="#00EAB2"></stop>
      <stop offset="0.708522" stop-color="#005CBE"></stop>
    </linearGradient>
  </defs>
</svg>
