<svg xmlns="http://www.w3.org/2000/svg" width="370" height="370" viewBox="0 0 370 370" fill="none"><path d="M316.881 185.006L316.526 185.36L316.881 185.714C318.122 186.951 318.779 188.314 318.783 189.722C318.782 191.917 317.163 194.022 314.268 195.66L313.939 195.847L314.028 196.214C314.087 196.454 314.116 196.7 314.117 196.947C314.117 198.586 312.837 200.191 310.495 201.417C308.177 202.63 304.939 203.395 301.337 203.395C297.734 203.395 294.497 202.63 292.179 201.417C289.838 200.192 288.559 198.587 288.558 196.947C288.559 196.699 288.589 196.452 288.646 196.211L288.733 195.846L288.406 195.661C285.512 194.022 283.893 191.916 283.893 189.72C283.893 188.314 284.553 186.952 285.795 185.714L286.15 185.36L285.795 185.006C284.553 183.768 283.893 182.405 283.893 180.999C283.893 178.686 285.694 176.47 288.88 174.803C292.042 173.148 296.445 172.109 301.337 172.109C306.229 172.109 310.632 173.148 313.795 174.803C316.981 176.47 318.783 178.686 318.783 180.999C318.783 182.405 318.123 183.768 316.881 185.006Z" stroke="#080E54"></path><mask id="mask0_646_183644" style="mask-type:luminance" maskUnits="userSpaceOnUse" x="0" y="0" width="370" height="370"><path d="M146.468 10.9555C138.421 13.4632 102.731 25.1163 67.0892 56.0383C58.4566 63.5288 23.5603 93.8062 8.64925 134.514C-16.7293 203.804 13.6385 309.216 101.11 351.578C202.994 400.921 331.694 340.188 361.047 258.909C374.065 222.859 374.651 163.08 341.85 123.661C315.457 91.9371 270.315 76.8631 272.069 46.8544C272.91 32.4027 283.816 28.4059 280.791 19.3049C273.621 -2.28375 203.318 -6.76353 146.468 10.9555Z" fill="white"></path></mask><g mask="url(#mask0_646_183644)"><path d="M195.132 229.309H225.836C231.487 229.309 236.068 233.889 236.068 239.54V315.088C236.068 320.739 231.487 325.32 225.836 325.32H195.132C189.481 325.32 184.9 320.739 184.9 315.088V239.54C184.9 233.889 189.481 229.309 195.132 229.309Z" fill="#F1F3FF" stroke="#080E54"></path><path d="M231.519 320.771C230.011 322.279 227.967 323.127 225.834 323.129H195.132C193 323.127 190.955 322.279 189.447 320.771C187.939 319.264 187.09 317.219 187.088 315.087V239.54C187.09 237.407 187.939 235.363 189.447 233.855C190.955 232.347 192.999 231.499 195.132 231.496H225.834C227.967 231.499 230.011 232.347 231.519 233.855C233.027 235.363 233.874 237.407 233.876 239.54V315.087C233.874 317.219 233.027 319.263 231.519 320.771Z" stroke="#080E54"></path><path d="M223.311 246.498H223.311H197.648C196.316 246.495 195.039 245.964 194.097 245.021C193.155 244.078 192.625 242.8 192.623 241.468V240.713C192.625 239.378 193.155 238.099 194.099 237.155C195.042 236.212 196.322 235.681 197.656 235.68H223.319C224.653 235.681 225.933 236.212 226.876 237.155C227.82 238.099 228.351 239.378 228.352 240.713V241.467C228.35 242.803 227.818 244.083 226.873 245.026C225.928 245.969 224.647 246.499 223.311 246.498Z" stroke="#080E54"></path><path d="M223.311 305.02H223.311H197.648C196.316 305.016 195.039 304.485 194.097 303.542C193.155 302.599 192.625 301.322 192.623 299.989V299.234C192.625 297.9 193.155 296.62 194.099 295.677C195.042 294.733 196.322 294.203 197.656 294.201H223.319C224.653 294.203 225.933 294.733 226.876 295.677C227.82 296.621 228.351 297.9 228.352 299.234V299.989C228.35 301.324 227.818 302.604 226.873 303.547C225.928 304.491 224.647 305.02 223.311 305.02Z" stroke="#080E54"></path><path d="M223.311 290.411H223.311H197.648C196.316 290.407 195.039 289.876 194.097 288.933C193.155 287.99 192.625 286.712 192.623 285.38V284.625C192.625 283.29 193.155 282.011 194.099 281.068C195.042 280.124 196.322 279.593 197.656 279.592H223.319C224.653 279.593 225.933 280.124 226.876 281.068C227.82 282.011 228.351 283.29 228.352 284.625V285.379C228.35 286.715 227.818 287.995 226.873 288.938C225.928 289.881 224.647 290.411 223.311 290.411Z" stroke="#080E54"></path><path d="M223.311 275.801H223.311H197.648C196.316 275.798 195.039 275.266 194.097 274.323C193.155 273.381 192.625 272.103 192.623 270.77V270.015C192.625 268.681 193.155 267.402 194.099 266.458C195.042 265.515 196.322 264.984 197.656 264.982H223.319C224.653 264.984 225.933 265.515 226.876 266.458C227.82 267.402 228.351 268.681 228.352 270.016V270.77C228.35 272.105 227.818 273.385 226.873 274.329C225.928 275.272 224.647 275.802 223.311 275.801Z" stroke="#080E54"></path><path d="M223.311 261.192H223.311H197.648C196.316 261.188 195.039 260.657 194.097 259.714C193.155 258.771 192.625 257.494 192.623 256.161V255.406C192.625 254.072 193.155 252.792 194.099 251.849C195.042 250.905 196.322 250.375 197.656 250.373H223.319C224.653 250.375 225.933 250.905 226.876 251.849C227.82 252.792 228.351 254.072 228.352 255.406V256.161C228.35 257.496 227.818 258.776 226.873 259.719C225.928 260.663 224.647 261.192 223.311 261.192Z" stroke="#080E54"></path><path d="M223.311 319.449H197.648C196.181 319.447 194.775 318.864 193.738 317.827C192.7 316.789 192.117 315.383 192.115 313.916V313.16C192.117 311.694 192.7 310.287 193.738 309.25C194.775 308.213 196.181 307.63 197.648 307.628H223.311C224.778 307.63 226.185 308.213 227.222 309.25C228.259 310.287 228.843 311.694 228.844 313.16V313.916C228.843 315.383 228.259 316.789 227.222 317.827C226.185 318.864 224.778 319.447 223.311 319.449ZM197.648 308.519C196.415 308.519 195.233 309.009 194.362 309.88C193.49 310.752 193 311.934 193 313.167V313.922C193 315.155 193.49 316.337 194.362 317.209C195.233 318.08 196.415 318.57 197.648 318.57H223.311C224.544 318.57 225.726 318.08 226.598 317.209C227.47 316.337 227.959 315.155 227.959 313.922V313.167C227.959 311.934 227.47 310.752 226.598 309.88C225.726 309.009 224.544 308.519 223.311 308.519H197.648Z" fill="white"></path><path d="M198.389 222.701C199.463 221.626 200.919 221.022 202.437 221.02L219.452 221.02C219.452 221.02 219.452 221.02 219.452 221.02C220.972 221.02 222.429 221.624 223.503 222.699C224.46 223.655 225.043 224.915 225.16 226.251H196.735C196.852 224.916 197.434 223.657 198.389 222.701Z" fill="#F1F3FF" stroke="#080E54"></path><path d="M251.795 229.309H282.498C288.149 229.309 292.73 233.889 292.73 239.54V315.088C292.73 320.739 288.149 325.32 282.498 325.32H251.795C246.144 325.32 241.562 320.739 241.562 315.088V239.54C241.562 233.889 246.144 229.309 251.795 229.309Z" fill="#F1F3FF" stroke="#080E54"></path><path d="M282.498 323.129H251.794C249.662 323.127 247.617 322.279 246.109 320.771C244.601 319.264 243.753 317.219 243.75 315.087V239.54C243.753 237.407 244.601 235.363 246.109 233.855C247.617 232.347 249.661 231.499 251.794 231.496H282.499C284.631 231.499 286.675 232.348 288.182 233.856C289.69 235.363 290.538 237.408 290.541 239.54V315.087C290.538 317.219 289.69 319.263 288.182 320.771C286.675 322.278 284.631 323.126 282.498 323.129Z" stroke="#080E54"></path><path d="M279.974 319.449H254.31C252.843 319.447 251.437 318.864 250.399 317.827C249.361 316.789 248.778 315.383 248.775 313.916V313.16C248.778 311.693 249.361 310.287 250.399 309.25C251.437 308.213 252.843 307.63 254.31 307.628H279.974C281.44 307.63 282.847 308.214 283.884 309.251C284.921 310.288 285.504 311.694 285.507 313.16V313.916C285.505 315.383 284.921 316.789 283.884 317.827C282.847 318.864 281.441 319.447 279.974 319.449ZM254.31 308.519C253.078 308.519 251.895 309.009 251.024 309.88C250.152 310.752 249.663 311.934 249.663 313.167V313.922C249.663 315.155 250.152 316.337 251.024 317.209C251.895 318.08 253.078 318.57 254.31 318.57H279.974C281.206 318.57 282.389 318.08 283.26 317.209C284.132 316.337 284.621 315.155 284.621 313.922V313.167C284.621 311.934 284.132 310.752 283.26 309.88C282.389 309.009 281.206 308.519 279.974 308.519H254.31Z" fill="white"></path><path d="M259.099 221.02H276.102C277.622 221.02 279.08 221.623 280.155 222.698C281.111 223.655 281.695 224.914 281.812 226.251H253.389C253.506 224.914 254.09 223.655 255.046 222.698C256.121 221.623 257.579 221.02 259.099 221.02Z" fill="#F1F3FF" stroke="#080E54"></path><path d="M279.505 246.498H279.505H253.842C252.509 246.495 251.232 245.964 250.29 245.021C249.348 244.078 248.818 242.8 248.816 241.468V240.713C248.818 239.378 249.349 238.099 250.292 237.155C251.236 236.212 252.515 235.681 253.849 235.68H279.512C280.847 235.681 282.126 236.212 283.07 237.155C284.013 238.099 284.544 239.378 284.545 240.713V241.467C284.544 242.803 284.012 244.083 283.066 245.026C282.121 245.969 280.84 246.499 279.505 246.498Z" fill="#F9FBFD" stroke="#080E54"></path><path d="M308.457 229.309H339.16C344.811 229.309 349.392 233.889 349.392 239.54V315.088C349.392 320.739 344.811 325.32 339.16 325.32H308.457C302.806 325.32 298.225 320.739 298.225 315.088V239.54C298.225 233.889 302.806 229.309 308.457 229.309Z" fill="#F1F3FF" stroke="#080E54"></path><path d="M336.563 246.498H336.563H310.9C309.568 246.495 308.291 245.964 307.349 245.021C306.407 244.078 305.877 242.8 305.875 241.468V240.713C305.877 239.378 306.407 238.099 307.351 237.155C308.294 236.212 309.574 235.681 310.908 235.68H336.571C337.905 235.681 339.185 236.212 340.128 237.155C341.072 238.099 341.603 239.378 341.604 240.713V241.467C341.602 242.803 341.07 244.083 340.125 245.026C339.18 245.969 337.899 246.499 336.563 246.498Z" stroke="#080E54"></path><path d="M279.505 305.02H279.505H253.842C252.509 305.016 251.232 304.485 250.29 303.542C249.348 302.599 248.818 301.322 248.816 299.989V299.234C248.818 297.9 249.349 296.62 250.292 295.677C251.236 294.733 252.515 294.203 253.849 294.201H279.512C280.847 294.203 282.126 294.733 283.07 295.677C284.013 296.621 284.544 297.9 284.545 299.234V299.989C284.544 301.324 284.012 302.604 283.066 303.547C282.121 304.491 280.84 305.02 279.505 305.02Z" fill="#F9FBFD" stroke="#080E54"></path><path d="M336.563 305.02H336.563H310.9C309.568 305.016 308.291 304.485 307.349 303.542C306.407 302.599 305.877 301.322 305.875 299.989V299.234C305.877 297.9 306.407 296.62 307.351 295.677C308.294 294.733 309.574 294.203 310.908 294.201H336.571C337.905 294.203 339.185 294.733 340.128 295.677C341.072 296.621 341.603 297.9 341.604 299.234V299.989C341.602 301.324 341.07 302.604 340.125 303.547C339.18 304.491 337.899 305.02 336.563 305.02Z" stroke="#080E54"></path><path d="M279.505 290.411H279.505H253.842C252.509 290.407 251.232 289.876 250.29 288.933C249.348 287.99 248.818 286.712 248.816 285.38V284.625C248.818 283.29 249.349 282.011 250.292 281.068C251.236 280.124 252.515 279.593 253.849 279.592H279.512C280.847 279.593 282.126 280.124 283.07 281.068C284.013 282.011 284.544 283.29 284.545 284.625V285.379C284.544 286.715 284.012 287.995 283.066 288.938C282.121 289.881 280.84 290.411 279.505 290.411Z" fill="#F9FBFD" stroke="#080E54"></path><path d="M339.157 323.13H308.455C306.322 323.127 304.278 322.279 302.771 320.772C301.263 319.264 300.415 317.22 300.412 315.088V239.541C300.415 237.408 301.263 235.364 302.771 233.857C304.278 232.349 306.322 231.5 308.454 231.497H339.157C341.29 231.5 343.334 232.348 344.842 233.856C346.35 235.364 347.198 237.408 347.201 239.541V315.088C347.198 317.22 346.35 319.265 344.842 320.772C343.334 322.28 341.289 323.128 339.157 323.13Z" stroke="#080E54"></path><path d="M336.563 290.411H336.563H310.9C309.568 290.407 308.291 289.876 307.349 288.933C306.407 287.99 305.877 286.712 305.875 285.38V284.625C305.877 283.29 306.407 282.011 307.351 281.068C308.294 280.124 309.574 279.593 310.908 279.592H336.571C337.905 279.593 339.185 280.124 340.128 281.068C341.072 282.011 341.603 283.29 341.604 284.625V285.379C341.602 286.715 341.07 287.995 340.125 288.938C339.18 289.881 337.899 290.411 336.563 290.411Z" stroke="#080E54"></path><path d="M279.505 275.801H279.505H253.842C252.509 275.798 251.232 275.266 250.29 274.323C249.348 273.381 248.818 272.103 248.816 270.77V270.015C248.818 268.681 249.349 267.402 250.292 266.458C251.236 265.515 252.515 264.984 253.849 264.982H279.512C280.847 264.984 282.126 265.515 283.07 266.458C284.013 267.402 284.544 268.681 284.545 270.016V270.77C284.544 272.105 284.012 273.385 283.066 274.329C282.121 275.272 280.84 275.802 279.505 275.801Z" fill="#F9FBFD" stroke="#080E54"></path><path d="M336.634 319.449H310.97C309.503 319.447 308.097 318.864 307.059 317.827C306.022 316.789 305.438 315.383 305.436 313.916V313.16C305.438 311.693 306.022 310.287 307.059 309.25C308.097 308.213 309.503 307.63 310.97 307.628H336.634C338.101 307.63 339.507 308.213 340.545 309.25C341.583 310.287 342.167 311.693 342.169 313.16V313.916C342.167 315.383 341.583 316.789 340.545 317.827C339.507 318.864 338.101 319.447 336.634 319.449ZM310.97 308.519C309.738 308.519 308.556 309.009 307.684 309.88C306.812 310.752 306.323 311.934 306.323 313.167V313.922C306.323 315.155 306.812 316.337 307.684 317.209C308.556 318.08 309.738 318.57 310.97 318.57H336.634C337.866 318.57 339.049 318.08 339.92 317.209C340.792 316.337 341.282 315.155 341.282 313.922V313.167C341.282 311.934 340.792 310.752 339.92 309.88C339.049 309.009 337.866 308.519 336.634 308.519H310.97Z" fill="white"></path><path d="M336.563 275.801H336.563H310.9C309.568 275.798 308.291 275.266 307.349 274.323C306.407 273.381 305.877 272.103 305.875 270.77V270.015C305.877 268.681 306.407 267.402 307.351 266.458C308.294 265.515 309.574 264.984 310.908 264.982H336.571C337.905 264.984 339.185 265.515 340.128 266.458C341.072 267.402 341.603 268.681 341.604 270.016V270.77C341.602 272.105 341.07 273.385 340.125 274.329C339.18 275.272 337.899 275.802 336.563 275.801Z" stroke="#080E54"></path><path d="M279.505 261.192H279.505H253.842C252.509 261.188 251.232 260.657 250.29 259.714C249.348 258.771 248.818 257.494 248.816 256.161V255.406C248.818 254.072 249.349 252.792 250.292 251.849C251.236 250.905 252.515 250.375 253.849 250.373H279.512C280.847 250.375 282.126 250.905 283.07 251.849C284.013 252.792 284.544 254.072 284.545 255.406V256.161C284.544 257.496 284.012 258.776 283.066 259.719C282.121 260.663 280.84 261.192 279.505 261.192Z" fill="#F9FBFD" stroke="#080E54"></path><path d="M315.761 221.02H332.764C334.284 221.02 335.742 221.623 336.817 222.698C337.773 223.655 338.357 224.914 338.474 226.251H310.051C310.168 224.914 310.752 223.655 311.708 222.698C312.783 221.623 314.241 221.02 315.761 221.02Z" fill="#F1F3FF" stroke="#080E54"></path><path d="M336.563 261.192H336.563H310.9C309.568 261.188 308.291 260.657 307.349 259.714C306.407 258.771 305.877 257.494 305.875 256.161V255.406C305.877 254.072 306.407 252.792 307.351 251.849C308.294 250.905 309.574 250.375 310.908 250.373H336.571C337.905 250.375 339.185 250.905 340.128 251.849C341.072 252.792 341.603 254.072 341.604 255.406V256.161C341.602 257.496 341.07 258.776 340.125 259.719C339.18 260.663 337.899 261.192 336.563 261.192Z" stroke="#080E54"></path></g><path d="M104.432 204.943H181.223L181.213 204.937C183.863 204.936 186.421 203.968 188.407 202.215C190.394 200.462 191.672 198.045 192.002 195.416C192.332 192.788 191.691 190.129 190.2 187.94C188.709 185.75 186.469 184.18 183.902 183.524C182.478 174.665 174.693 168.007 165.671 168.007C163.118 168.01 160.593 168.541 158.255 169.566C155.916 170.592 153.816 172.09 152.084 173.966" stroke="#080E54" stroke-linecap="round"></path><path d="M53.4375 110.121L132.749 110.121L132.735 110.113C136.518 110.111 140.17 108.724 143.006 106.212C145.842 103.7 147.667 100.236 148.138 96.4704C148.609 92.7043 147.695 88.8952 145.566 85.7578C143.437 82.6205 140.239 80.3707 136.575 79.4307C134.542 66.7371 123.426 57.1973 110.546 57.1973C106.901 57.2018 103.296 57.9626 99.9579 59.4319C96.6197 60.9012 93.6204 63.0473 91.1483 65.7354" stroke="#080E54" stroke-linecap="round"></path><path d="M108.291 196.95H153.371C154.936 196.95 156.448 196.38 157.627 195.346C158.805 194.312 159.57 192.884 159.779 191.327C159.988 189.77 159.627 188.189 158.763 186.879C157.9 185.569 156.592 184.618 155.083 184.202C154.618 181.516 153.166 179.103 151.015 177.439C148.864 175.775 146.17 174.981 143.464 175.214C140.758 175.447 138.238 176.69 136.4 178.697C134.563 180.705 133.542 183.331 133.54 186.057" stroke="#080E54" stroke-linecap="round"></path><path d="M58.6758 98.5441L92.9961 98.5441C95.2308 98.5442 97.3897 97.7363 99.0722 96.2703C100.755 94.8043 101.846 92.7797 102.145 90.5723C102.443 88.3648 101.928 86.1244 100.695 84.2668C99.4622 82.4092 97.5948 81.0604 95.4398 80.4709C94.776 76.6631 92.7037 73.2419 89.6324 70.8827C86.561 68.5236 82.7138 67.3981 78.8504 67.7284C74.987 68.0588 71.3883 69.8211 68.765 72.6672C66.1417 75.5133 64.6845 79.2364 64.6811 83.1013" stroke="#080E54" stroke-linecap="round"></path><path d="M102.778 196.949H99.7461" stroke="#080E54" stroke-linecap="round"></path><path d="M50.9574 98.5449H46.2715" stroke="#080E54" stroke-linecap="round"></path><path d="M99.7458 204.943H93.9572" stroke="#080E54" stroke-linecap="round"></path><path d="M50.9572 110.121L38.002 110.121" stroke="#080E54" stroke-linecap="round"></path><path d="M209.382 353.223H209.382V353.21V154.623H214.349L214.349 353.21L214.349 353.223C214.358 353.554 214.3 353.884 214.179 354.193C214.058 354.502 213.877 354.783 213.645 355.021C213.414 355.259 213.137 355.447 212.831 355.576C212.526 355.705 212.197 355.772 211.866 355.772C211.534 355.772 211.205 355.705 210.9 355.576C210.594 355.447 210.317 355.259 210.086 355.021C209.854 354.783 209.673 354.502 209.552 354.193C209.431 353.884 209.373 353.554 209.382 353.223Z" fill="#F1F3FF" stroke="#080E54"></path><path d="M103.888 164.12L103.536 164.12L103.15 162.04L211.179 142.257L212.624 150.148C187.428 158.741 161.036 163.309 134.417 163.683L134.417 163.683L103.888 164.12ZM212.671 150.132L212.67 150.132L212.671 150.132ZM103.093 162.051L103.094 162.051L103.093 162.051Z" stroke="#080E54"></path><path d="M277.433 228.476L210.404 149.665L214.195 146.442C234.073 163.882 251.097 184.329 264.648 207.039C264.648 207.039 264.648 207.039 264.648 207.039L277.433 228.476Z" fill="#F1F3FF" stroke="#080E54"></path><path d="M279.243 234.788L280.93 233.354L209.707 149.612L208.02 151.046L279.243 234.788Z" fill="#F1F3FF"></path><path d="M278.902 235.074C278.944 235.123 278.995 235.163 279.054 235.19C279.113 235.218 279.177 235.232 279.241 235.231L279.24 234.793L279.24 234.789V234.789L279.24 234.786L279.24 234.779L279.24 234.731C279.249 234.731 279.257 234.733 279.265 234.737C279.267 234.738 279.269 234.739 279.271 234.74C279.275 234.743 279.279 234.746 279.283 234.75L279.246 234.706M278.902 235.074L279.246 234.706M278.902 235.074L207.679 151.332M278.902 235.074L207.679 151.332M279.246 234.706L280.857 233.336L265.031 206.807L265.03 206.806C251.397 183.945 234.246 163.374 214.208 145.852L208.096 151.05L279.246 234.706ZM207.679 151.332C207.602 151.242 207.565 151.126 207.574 151.009L207.679 151.332Z" fill="#F1F3FF" stroke="#080E54"></path><path d="M237.084 72.142L237.084 72.1419L252.146 45.1727L254.137 45.8837L217.261 149.327L209.704 146.634C214.86 120.519 224.1 95.3799 237.084 72.142ZM209.658 146.617C209.659 146.618 209.659 146.618 209.659 146.618L209.659 146.618L209.658 146.617Z" stroke="#080E54"></path><path d="M219.858 151.276C219.293 152.856 218.272 154.233 216.925 155.233C215.577 156.233 213.964 156.811 212.288 156.895C210.612 156.978 208.949 156.563 207.509 155.701C206.069 154.84 204.916 153.571 204.197 152.055C203.478 150.539 203.225 148.843 203.469 147.183C203.713 145.523 204.444 143.973 205.569 142.728C206.695 141.483 208.164 140.6 209.791 140.189C211.418 139.779 213.13 139.86 214.711 140.423C215.762 140.797 216.729 141.374 217.557 142.122C218.384 142.87 219.057 143.774 219.535 144.782C220.013 145.79 220.287 146.882 220.343 147.997C220.398 149.111 220.233 150.225 219.858 151.276Z" fill="#F1F3FF"></path><path d="M211.87 156.866C209.789 156.87 207.779 156.107 206.225 154.722C204.672 153.337 203.684 151.428 203.45 149.36C203.216 147.292 203.754 145.21 204.959 143.513C206.165 141.817 207.954 140.624 209.984 140.164C212.013 139.704 214.142 140.009 215.961 141.02C217.78 142.031 219.162 143.678 219.843 145.645C220.524 147.612 220.456 149.76 219.651 151.68C218.846 153.599 217.362 155.154 215.482 156.048C214.353 156.584 213.12 156.863 211.87 156.866Z" fill="#F1F3FF" stroke="#080E54"></path><path d="M216.785 148.38C216.804 151.095 214.618 153.311 211.904 153.33C209.189 153.349 206.973 151.163 206.954 148.449C206.935 145.734 209.12 143.518 211.835 143.499C214.55 143.48 216.766 145.666 216.785 148.38Z" stroke="#080E54"></path><path d="M158.374 353.209L158.375 353.222C158.383 353.553 158.325 353.883 158.205 354.192C158.084 354.501 157.902 354.783 157.671 355.02C157.439 355.258 157.162 355.447 156.857 355.576C156.551 355.704 156.223 355.771 155.891 355.771C155.559 355.771 155.231 355.704 154.925 355.576C154.619 355.447 154.343 355.258 154.111 355.02C153.88 354.783 153.698 354.501 153.577 354.192C153.456 353.883 153.398 353.553 153.407 353.222H153.407V353.209V129.398H158.375L158.374 353.209Z" fill="#F9FBFD" stroke="#080E54"></path><path d="M156.147 124.621C131.108 133.111 104.893 137.628 78.4555 138.007L49.5123 137.06L48.8935 135.469L155.162 119.371L156.147 124.621Z" fill="#F9FBFD" stroke="#080E54"></path><path d="M223.277 209.491L152.122 125.83L158.238 120.639C178.277 138.16 195.428 158.729 209.061 181.591L209.061 181.591L224.888 208.12L223.277 209.491Z" fill="#F9FBFD" stroke="#080E54"></path><path d="M198.212 20.6767L198.231 20.6245L198.212 20.6767ZM198.212 20.6767L198.212 20.6769M198.212 20.6767L198.212 20.6769M198.212 20.6769L198.231 20.6247L198.212 20.6769ZM181.107 46.9204L181.107 46.9203L196.169 19.9471L198.16 20.6581L161.284 124.102L153.727 121.408C158.883 95.2947 168.124 70.1571 181.107 46.9204Z" fill="#F9FBFD" stroke="#080E54"></path><path d="M163.884 126.05C163.32 127.631 162.299 129.008 160.952 130.009C159.605 131.009 157.991 131.588 156.315 131.672C154.639 131.756 152.976 131.341 151.536 130.48C150.096 129.619 148.943 128.35 148.224 126.834C147.504 125.318 147.251 123.623 147.494 121.962C147.738 120.302 148.469 118.752 149.594 117.506C150.719 116.261 152.188 115.378 153.815 114.967C155.442 114.556 157.154 114.637 158.735 115.2C159.786 115.573 160.753 116.151 161.581 116.898C162.409 117.646 163.081 118.55 163.559 119.558C164.037 120.565 164.312 121.658 164.368 122.772C164.424 123.886 164.259 125 163.884 126.05Z" fill="#F1F3FF"></path><path d="M155.884 131.636L155.882 131.636C154.09 131.634 152.346 131.062 150.901 130.003C149.456 128.943 148.386 127.451 147.846 125.743C147.306 124.035 147.323 122.199 147.896 120.502C148.469 118.804 149.567 117.333 151.032 116.301C152.497 115.269 154.252 114.731 156.043 114.763C157.835 114.795 159.569 115.397 160.996 116.481C162.422 117.565 163.467 119.075 163.978 120.792C164.489 122.509 164.44 124.344 163.839 126.032L163.838 126.034C163.261 127.68 162.184 129.105 160.758 130.109C159.332 131.113 157.629 131.647 155.884 131.636Z" fill="#F1F3FF" stroke="#080E54"></path><path d="M160.764 122.527C161.134 125.216 159.253 127.696 156.564 128.066C153.874 128.436 151.394 126.555 151.024 123.866C150.654 121.177 152.535 118.697 155.224 118.327C157.914 117.957 160.394 119.837 160.764 122.527Z" fill="#F9FBFD" stroke="#080E54"></path><path d="M348.993 108.331V108.331C349.001 114.689 347.733 120.984 345.263 126.842C342.793 132.701 339.172 138.003 334.615 142.437L334.615 142.437C328.132 148.76 323.604 156.805 321.327 165.559L321.26 165.813L321.26 165.814C320.217 169.827 317.871 173.381 314.59 175.918C311.31 178.454 307.28 179.831 303.133 179.831H299.542C295.395 179.831 291.365 178.454 288.085 175.918C284.804 173.381 282.458 169.827 281.415 165.814L281.415 165.812L281.304 165.392C281.304 165.391 281.304 165.391 281.304 165.391C279.011 156.569 274.289 148.604 267.814 142.197C261.1 135.553 256.511 127.063 254.632 117.806C252.753 108.549 253.668 98.942 257.26 90.2057C260.853 81.4694 266.961 73.998 274.809 68.7403C282.656 63.4826 291.89 60.6759 301.336 60.6768C327.657 60.6768 348.993 82.0132 348.993 108.331Z" fill="#F9FBFD" stroke="#080E54"></path><path d="M304.74 172.719C304.74 172.719 304.74 172.719 304.74 172.718L304.74 172.719Z" stroke="#080E54"></path><path d="M298.679 171.612C298.679 171.611 298.679 171.611 298.679 171.61C298.679 171.611 298.679 171.611 298.679 171.612Z" stroke="#080E54"></path><mask id="path-57-inside-1_646_183644" fill="white"><path d="M301.185 112.911H301.027C299.8 112.855 298.735 112.131 297.883 111.093C297.109 111.747 296.135 112.118 295.122 112.146C292.683 112.2 290.317 110.232 289.385 107.375C289.367 107.319 289.36 107.261 289.365 107.202C289.369 107.144 289.385 107.087 289.412 107.035C289.438 106.983 289.475 106.936 289.519 106.898C289.563 106.86 289.615 106.831 289.67 106.813C289.726 106.795 289.785 106.788 289.843 106.792C289.901 106.797 289.958 106.813 290.01 106.839C290.062 106.866 290.109 106.902 290.147 106.946C290.185 106.991 290.214 107.042 290.232 107.098C291.04 109.547 293.083 111.301 295.104 111.256C295.933 111.227 296.727 110.916 297.355 110.375C296.474 109.009 295.909 107.462 295.702 105.849C295.478 103.861 295.933 101.513 296.741 100.505C296.847 100.353 296.982 100.225 297.138 100.127C297.295 100.03 297.47 99.9648 297.652 99.9367C297.844 99.9248 298.036 99.9524 298.216 100.018C298.397 100.083 298.562 100.185 298.701 100.317C299.623 101.074 300.419 102.857 300.556 104.463C300.686 106.649 299.962 108.8 298.535 110.462L298.517 110.485C299.249 111.376 300.134 111.974 301.059 112.016C302.403 112.079 303.614 111.022 304.551 109.559C303.565 108.096 302.987 106.065 302.914 104.437C302.809 102.044 303.706 99.6316 304.6 98.7789C304.712 98.6534 304.849 98.5536 305.004 98.4867C305.158 98.4197 305.325 98.387 305.493 98.3909C305.641 98.4093 305.784 98.4579 305.912 98.5337C306.041 98.6094 306.153 98.7108 306.24 98.8314C307.031 99.7913 307.489 102.448 307.251 104.633C307.031 106.353 306.482 108.014 305.634 109.527C306.186 110.19 306.847 110.616 307.564 110.616H307.592C308.926 110.596 310.375 109.074 311.195 106.827C311.239 106.72 311.322 106.635 311.427 106.588C311.532 106.541 311.652 106.537 311.76 106.577C311.868 106.616 311.957 106.696 312.007 106.8C312.058 106.904 312.066 107.023 312.03 107.132C311.07 109.759 309.334 111.481 307.604 111.507C306.657 111.507 305.828 111.052 305.143 110.315C304.111 111.82 302.753 112.911 301.185 112.911ZM297.77 100.83H297.749C297.62 100.869 297.509 100.954 297.436 101.068C296.852 101.798 296.371 103.857 296.587 105.758C296.762 107.176 297.245 108.538 298.002 109.749C299.142 108.403 299.821 106.29 299.679 104.548C299.55 103.036 298.784 101.535 298.145 101.012C298.042 100.913 297.911 100.85 297.77 100.83ZM305.424 99.28C304.982 99.3204 303.69 101.681 303.808 104.406C303.898 105.912 304.325 107.378 305.058 108.696C305.733 107.396 306.175 105.987 306.364 104.534C306.671 101.84 305.844 99.3871 305.424 99.2719V99.28Z"></path></mask><path d="M301.027 112.911L300.981 113.91L301.004 113.911H301.027V112.911ZM297.883 111.093L298.656 110.458L298.012 109.674L297.237 110.329L297.883 111.093ZM295.122 112.146L295.145 113.145L295.149 113.145L295.122 112.146ZM289.385 107.375L290.336 107.065L290.336 107.064L289.385 107.375ZM290.232 107.098L289.282 107.409L289.283 107.411L290.232 107.098ZM295.104 111.256L295.126 112.256L295.14 112.256L295.104 111.256ZM297.355 110.375L298.008 111.133L298.668 110.565L298.196 109.833L297.355 110.375ZM295.702 105.849L294.709 105.961L294.709 105.969L294.71 105.976L295.702 105.849ZM296.741 100.505L297.521 101.13L297.542 101.104L297.561 101.077L296.741 100.505ZM297.652 99.9367L297.59 98.9387L297.545 98.9415L297.5 98.9484L297.652 99.9367ZM298.701 100.317L298.014 101.043L298.039 101.067L298.066 101.089L298.701 100.317ZM300.556 104.463L301.554 104.404L301.554 104.391L301.552 104.378L300.556 104.463ZM298.535 110.462L297.777 109.811L297.769 109.82L297.761 109.829L298.535 110.462ZM298.517 110.485L297.743 109.852L297.224 110.486L297.744 111.119L298.517 110.485ZM301.059 112.016L301.106 111.017L301.105 111.017L301.059 112.016ZM304.551 109.559L305.393 110.099L305.748 109.545L305.38 109L304.551 109.559ZM302.914 104.437L301.915 104.481L301.915 104.481L302.914 104.437ZM304.6 98.7789L305.29 99.5022L305.319 99.4743L305.346 99.4442L304.6 98.7789ZM305.493 98.3909L305.616 97.3986L305.566 97.3924L305.516 97.3912L305.493 98.3909ZM306.24 98.8314L305.432 99.4201L305.45 99.4441L305.468 99.467L306.24 98.8314ZM307.251 104.633L308.243 104.759L308.244 104.75L308.245 104.741L307.251 104.633ZM305.634 109.527L304.762 109.038L304.426 109.638L304.866 110.166L305.634 109.527ZM307.592 110.616V111.616H307.6L307.608 111.616L307.592 110.616ZM311.195 106.827L310.269 106.452L310.262 106.468L310.256 106.484L311.195 106.827ZM312.03 107.132L312.969 107.475L312.975 107.459L312.98 107.443L312.03 107.132ZM307.604 111.507V112.507H307.612L307.62 112.507L307.604 111.507ZM305.143 110.315L305.876 109.634L305.025 108.719L304.319 109.749L305.143 110.315ZM297.77 100.83L297.909 99.8397L297.84 99.8299H297.77V100.83ZM297.749 100.83V99.8299H297.601L297.458 99.8732L297.749 100.83ZM297.436 101.068L298.217 101.693L298.251 101.65L298.281 101.604L297.436 101.068ZM296.587 105.758L295.594 105.871L295.595 105.881L296.587 105.758ZM298.002 109.749L297.154 110.279L297.88 111.441L298.765 110.395L298.002 109.749ZM299.679 104.548L300.676 104.467L300.676 104.463L299.679 104.548ZM298.145 101.012L297.456 101.736L297.483 101.761L297.512 101.785L298.145 101.012ZM305.424 99.28L305.515 100.276L306.424 100.193V99.28H305.424ZM303.808 104.406L302.808 104.449L302.809 104.458L302.809 104.466L303.808 104.406ZM305.058 108.696L304.184 109.182L305.089 110.809L305.946 109.157L305.058 108.696ZM306.364 104.534L307.355 104.662L307.356 104.655L307.357 104.647L306.364 104.534ZM305.424 99.2719L305.688 98.3075L304.424 97.9611V99.2719H305.424ZM301.185 111.911H301.027V113.911H301.185V111.911ZM301.073 111.912C300.234 111.874 299.408 111.374 298.656 110.458L297.11 111.727C298.063 112.888 299.367 113.836 300.981 113.91L301.073 111.912ZM297.237 110.329C296.637 110.836 295.881 111.125 295.095 111.146L295.149 113.145C296.389 113.112 297.581 112.657 298.528 111.857L297.237 110.329ZM295.1 111.146C293.223 111.188 291.173 109.631 290.336 107.065L288.435 107.685C289.461 110.833 292.143 113.212 295.145 113.145L295.1 111.146ZM290.336 107.064C290.359 107.133 290.367 107.206 290.362 107.279L288.368 107.126C288.353 107.315 288.376 107.505 288.435 107.686L290.336 107.064ZM290.362 107.279C290.356 107.352 290.336 107.422 290.303 107.487L288.52 106.583C288.434 106.752 288.382 106.936 288.368 107.126L290.362 107.279ZM290.303 107.487C290.27 107.552 290.225 107.61 290.17 107.657L288.868 106.139C288.724 106.262 288.606 106.413 288.52 106.583L290.303 107.487ZM290.17 107.657C290.115 107.705 290.05 107.741 289.981 107.763L289.36 105.863C289.179 105.922 289.012 106.016 288.868 106.139L290.17 107.657ZM289.981 107.763C289.912 107.786 289.839 107.795 289.766 107.789L289.92 105.795C289.73 105.781 289.54 105.804 289.36 105.863L289.981 107.763ZM289.766 107.789C289.694 107.784 289.623 107.764 289.558 107.731L290.463 105.947C290.293 105.861 290.109 105.81 289.92 105.795L289.766 107.789ZM289.558 107.731C289.493 107.698 289.435 107.653 289.388 107.597L290.906 106.296C290.783 106.151 290.632 106.033 290.463 105.947L289.558 107.731ZM289.388 107.597C289.34 107.542 289.304 107.478 289.282 107.409L291.183 106.787C291.124 106.607 291.03 106.44 290.906 106.296L289.388 107.597ZM289.283 107.411C290.178 110.123 292.522 112.313 295.126 112.256L295.082 110.257C293.644 110.288 291.903 108.97 291.182 106.785L289.283 107.411ZM295.14 112.256C296.195 112.218 297.207 111.822 298.008 111.133L296.703 109.617C296.247 110.01 295.67 110.236 295.069 110.257L295.14 112.256ZM298.196 109.833C297.395 108.592 296.882 107.187 296.694 105.722L294.71 105.976C294.936 107.737 295.553 109.425 296.515 110.917L298.196 109.833ZM296.696 105.737C296.596 104.852 296.647 103.87 296.816 103C296.99 102.102 297.266 101.449 297.521 101.13L295.961 99.8791C295.408 100.569 295.052 101.594 294.853 102.619C294.648 103.672 294.584 104.858 294.709 105.961L296.696 105.737ZM297.561 101.077C297.589 101.036 297.625 101.002 297.667 100.976L296.61 99.2784C296.338 99.4476 296.104 99.6701 295.921 99.9325L297.561 101.077ZM297.667 100.976C297.709 100.95 297.756 100.933 297.804 100.925L297.5 98.9484C297.184 98.997 296.881 99.1093 296.61 99.2784L297.667 100.976ZM297.714 100.935C297.769 100.931 297.824 100.939 297.876 100.958L298.557 99.0775C298.248 98.9655 297.919 98.9183 297.59 98.9387L297.714 100.935ZM297.876 100.958C297.927 100.977 297.974 101.006 298.014 101.043L299.388 99.5898C299.149 99.3639 298.866 99.1895 298.557 99.0775L297.876 100.958ZM298.066 101.089C298.362 101.333 298.713 101.815 299.01 102.48C299.3 103.13 299.502 103.868 299.56 104.548L301.552 104.378C301.473 103.452 301.208 102.496 300.836 101.663C300.47 100.846 299.961 100.058 299.336 99.5442L298.066 101.089ZM299.558 104.522C299.673 106.45 299.034 108.346 297.777 109.811L299.294 111.114C300.889 109.255 301.7 106.849 301.554 104.404L299.558 104.522ZM297.761 109.829L297.743 109.852L299.291 111.117L299.31 111.095L297.761 109.829ZM297.744 111.119C298.562 112.116 299.686 112.954 301.014 113.015L301.105 111.017C300.582 110.993 299.935 110.636 299.29 109.85L297.744 111.119ZM301.013 113.015C302.93 113.104 304.418 111.62 305.393 110.099L303.709 109.019C302.809 110.424 301.877 111.053 301.106 111.017L301.013 113.015ZM305.38 109C304.511 107.71 303.979 105.864 303.913 104.392L301.915 104.481C301.995 106.267 302.619 108.482 303.722 110.118L305.38 109ZM303.913 104.393C303.867 103.329 304.044 102.246 304.335 101.335C304.636 100.395 305.019 99.7614 305.29 99.5022L303.909 98.0556C303.287 98.6491 302.775 99.6487 302.43 100.726C302.076 101.833 301.857 103.152 301.915 104.481L303.913 104.393ZM305.346 99.4442C305.362 99.4269 305.381 99.4131 305.402 99.4039L304.605 97.5695C304.318 97.6942 304.061 97.8799 303.853 98.1137L305.346 99.4442ZM305.402 99.4039C305.423 99.3946 305.446 99.3901 305.469 99.3907L305.516 97.3912C305.203 97.3839 304.892 97.4447 304.605 97.5695L305.402 99.4039ZM305.37 99.3833C305.382 99.3849 305.394 99.3889 305.405 99.3953L306.42 97.6721C306.174 97.5269 305.9 97.4338 305.616 97.3986L305.37 99.3833ZM305.405 99.3953C305.415 99.4016 305.425 99.41 305.432 99.4201L307.049 98.2427C306.88 98.0115 306.666 97.8173 306.42 97.6721L305.405 99.3953ZM305.468 99.467C305.691 99.7372 305.969 100.423 306.146 101.444C306.315 102.418 306.365 103.534 306.257 104.524L308.245 104.741C308.375 103.547 308.315 102.243 308.117 101.102C307.927 100.008 307.58 98.8855 307.013 98.1959L305.468 99.467ZM306.259 104.506C306.056 106.099 305.547 107.637 304.762 109.038L306.506 110.016C307.417 108.391 308.007 106.607 308.243 104.759L306.259 104.506ZM304.866 110.166C305.513 110.945 306.429 111.616 307.564 111.616V109.616C307.265 109.616 306.858 109.434 306.403 108.887L304.866 110.166ZM307.564 111.616H307.592V109.616H307.564V111.616ZM307.608 111.616C308.648 111.6 309.582 111.012 310.311 110.246C311.055 109.464 311.687 108.395 312.135 107.17L310.256 106.484C309.883 107.506 309.381 108.322 308.862 108.867C308.328 109.428 307.871 109.612 307.577 109.616L307.608 111.616ZM312.122 107.203C312.068 107.336 311.964 107.443 311.833 107.502L311.021 105.674C310.679 105.826 310.409 106.105 310.269 106.452L312.122 107.203ZM311.833 107.502C311.701 107.56 311.552 107.565 311.417 107.516L312.103 105.637C311.752 105.509 311.364 105.522 311.021 105.674L311.833 107.502ZM311.417 107.516C311.281 107.466 311.171 107.366 311.108 107.237L312.907 106.363C312.743 106.026 312.455 105.766 312.103 105.637L311.417 107.516ZM311.108 107.237C311.045 107.107 311.035 106.958 311.079 106.821L312.98 107.443C313.097 107.087 313.07 106.7 312.907 106.363L311.108 107.237ZM311.091 106.789C310.651 107.993 310.048 108.946 309.403 109.584C308.753 110.227 308.119 110.499 307.589 110.507L307.62 112.507C308.82 112.489 309.919 111.887 310.809 111.006C311.704 110.12 312.449 108.898 312.969 107.475L311.091 106.789ZM307.604 110.507C307.007 110.507 306.427 110.228 305.876 109.634L304.411 110.995C305.229 111.877 306.306 112.507 307.604 112.507V110.507ZM304.319 109.749C303.357 111.151 302.261 111.911 301.185 111.911V113.911C303.244 113.911 304.864 112.489 305.968 110.88L304.319 109.749ZM297.77 99.8299H297.749V101.83H297.77V99.8299ZM297.458 99.8732C297.1 99.9823 296.792 100.216 296.591 100.533L298.281 101.604C298.225 101.691 298.14 101.756 298.04 101.787L297.458 99.8732ZM296.655 100.443C296.211 100.999 295.906 101.888 295.731 102.78C295.547 103.712 295.473 104.806 295.594 105.871L297.581 105.645C297.486 104.809 297.544 103.923 297.693 103.167C297.849 102.372 298.077 101.867 298.217 101.693L296.655 100.443ZM295.595 105.881C295.788 107.443 296.32 108.944 297.154 110.279L298.85 109.219C298.171 108.132 297.737 106.908 297.58 105.636L295.595 105.881ZM298.765 110.395C300.075 108.848 300.839 106.474 300.676 104.467L298.682 104.629C298.802 106.106 298.208 107.958 297.239 109.103L298.765 110.395ZM300.676 104.463C300.6 103.576 300.34 102.711 300.013 101.994C299.696 101.3 299.267 100.638 298.779 100.238L297.512 101.785C297.662 101.909 297.935 102.259 298.194 102.825C298.441 103.367 298.629 104.008 298.683 104.633L300.676 104.463ZM298.835 100.288C298.581 100.045 298.257 99.8887 297.909 99.8397L297.63 101.82C297.564 101.811 297.503 101.781 297.456 101.736L298.835 100.288ZM305.333 98.2842C304.921 98.3218 304.64 98.5742 304.533 98.6759C304.385 98.8169 304.253 98.9864 304.139 99.1563C303.907 99.501 303.676 99.9545 303.474 100.474C303.07 101.514 302.743 102.924 302.808 104.449L304.807 104.363C304.755 103.163 305.015 102.03 305.338 101.198C305.5 100.782 305.667 100.468 305.798 100.273C305.83 100.226 305.856 100.19 305.878 100.164C305.888 100.151 305.897 100.141 305.903 100.134C305.909 100.127 305.912 100.124 305.912 100.124C305.912 100.124 305.911 100.126 305.909 100.128C305.907 100.13 305.903 100.133 305.898 100.137C305.888 100.144 305.871 100.157 305.845 100.173C305.803 100.198 305.688 100.26 305.515 100.276L305.333 98.2842ZM302.809 104.466C302.909 106.121 303.379 107.733 304.184 109.182L305.932 108.21C305.272 107.023 304.887 105.703 304.806 104.347L302.809 104.466ZM305.946 109.157C306.675 107.753 307.152 106.231 307.355 104.662L305.372 104.405C305.198 105.742 304.792 107.039 304.171 108.236L305.946 109.157ZM307.357 104.647C307.525 103.173 307.384 101.772 307.142 100.713C307.021 100.185 306.868 99.7146 306.701 99.3481C306.618 99.1676 306.519 98.9829 306.399 98.8224C306.312 98.7057 306.082 98.4153 305.688 98.3075L305.16 100.236C304.996 100.191 304.894 100.112 304.856 100.079C304.833 100.06 304.818 100.044 304.809 100.034C304.801 100.025 304.797 100.019 304.796 100.019C304.796 100.018 304.798 100.022 304.803 100.029C304.808 100.036 304.814 100.047 304.822 100.061C304.839 100.09 304.859 100.129 304.882 100.18C304.978 100.39 305.092 100.723 305.192 101.159C305.391 102.028 305.509 103.2 305.37 104.42L307.357 104.647ZM304.424 99.2719V99.28H306.424V99.2719H304.424Z" fill="#080E54" mask="url(#path-57-inside-1_646_183644)"></path><path d="M316.456 81.0141L316.743 81.293C317.305 81.8398 317.91 82.3669 318.508 82.8881C318.586 82.9553 318.663 83.0225 318.739 83.0895C319.691 83.8818 320.602 84.7224 321.468 85.608L321.474 85.614L321.474 85.6141C323.109 87.3434 324.507 89.3696 325.771 91.2742L325.772 91.2761C327.251 93.5271 328.298 95.4462 329.051 97.3123L329.055 97.3219L329.055 97.3219C329.33 98.0455 329.558 98.786 329.737 99.5389C329.762 99.6326 329.787 99.725 329.811 99.8167C329.86 100 329.907 100.181 329.958 100.361C329.987 100.462 330.017 100.572 330.047 100.684C330.062 100.739 330.077 100.794 330.092 100.848L330.093 100.852L330.093 100.852C330.287 101.578 330.551 102.559 330.945 103.369C331.141 103.773 331.357 104.107 331.59 104.338C331.818 104.566 332.041 104.675 332.268 104.689C332.491 104.703 332.745 104.592 333.042 104.305C333.336 104.021 333.607 103.628 333.857 103.224C334.587 102.043 335.041 100.525 335.184 98.6897L316.456 81.0141ZM316.456 81.0141C316.031 80.5762 315.542 80.0141 315.14 79.3928C314.637 78.6175 314.307 77.8081 314.334 77.0632C314.365 76.4005 314.669 75.8082 315.36 75.2356C316.37 74.4471 317.643 74.0719 318.92 74.1861L318.92 74.1862L318.925 74.1866C320.542 74.3149 321.995 75.2938 323.58 76.4882L323.711 76.5894L323.721 76.5972L323.731 76.6045C324.979 77.4702 326.137 78.4585 327.188 79.5546L327.188 79.5551C329.709 82.1764 331.736 85.2308 333.172 88.5717L333.172 88.5721C334.751 92.236 335.418 95.6375 335.184 98.6892L316.456 81.0141Z" stroke="#080E54"></path><path d="M308.077 68.4459L308.077 68.4459C307.902 68.4466 307.728 68.4623 307.556 68.4928L307.553 68.4933L307.553 68.4933C307.008 68.5863 306.505 68.8453 306.113 69.2349C305.721 69.6245 305.459 70.1257 305.362 70.67L305.361 70.6759L305.361 70.6759C305.219 71.4247 305.519 72.2832 306.14 73.0655C306.756 73.8424 307.636 74.471 308.503 74.7551L308.504 74.7554C308.883 74.8802 309.375 74.9743 309.838 74.8773C310.27 74.7868 310.726 74.5214 311.066 73.8186L308.077 68.4459ZM308.077 68.4459L308.084 68.4458M308.077 68.4459L308.084 68.4458M308.084 68.4458C308.562 68.4369 309.035 68.5544 309.453 68.7863C309.852 69.0076 310.189 69.3255 310.432 69.7105C310.467 69.8197 310.522 69.922 310.594 70.012M308.084 68.4458L310.594 70.012M310.594 70.012C310.948 70.4565 311.202 71.1446 311.292 71.8833C311.383 72.6239 311.3 73.3344 311.066 73.8186L310.594 70.012Z" stroke="#080E54"></path><path d="M315.695 143.192C315.757 143.192 315.817 143.178 315.873 143.153C320.662 141.069 324.982 138.041 328.576 134.25C332.17 130.46 334.963 125.985 336.79 121.092" stroke="#080E54"></path><path d="M272.14 133.891C272.083 133.866 272.032 133.83 271.99 133.785C267.917 129.342 264.939 124.01 263.291 118.213C261.644 112.416 261.374 106.314 262.503 100.394C263.631 94.4735 266.127 88.8989 269.792 84.1141C273.456 79.3293 278.188 75.4666 283.609 72.834" stroke="#080E54"></path><mask id="path-63-inside-2_646_183644" fill="white"><path d="M294.574 188.183C291.993 188.201 289.413 188.038 286.855 187.694C286.797 187.685 286.742 187.665 286.692 187.634C286.642 187.603 286.599 187.563 286.565 187.516C286.531 187.468 286.506 187.415 286.493 187.358C286.479 187.301 286.477 187.242 286.486 187.184C286.495 187.126 286.516 187.071 286.547 187.021C286.577 186.972 286.617 186.928 286.665 186.894C286.712 186.86 286.766 186.835 286.823 186.822C286.88 186.808 286.939 186.806 286.996 186.815C287.152 186.84 302.734 189.24 315.554 183.069C315.607 183.044 315.664 183.029 315.723 183.026C315.782 183.023 315.84 183.031 315.896 183.051C315.951 183.071 316.002 183.101 316.046 183.14C316.09 183.18 316.125 183.227 316.151 183.28C316.176 183.333 316.191 183.391 316.194 183.45C316.197 183.508 316.188 183.567 316.169 183.623C316.149 183.678 316.119 183.729 316.079 183.773C316.04 183.816 315.993 183.852 315.939 183.877C308.604 187.403 300.396 188.183 294.574 188.183Z"></path></mask><path d="M294.574 188.183C291.993 188.201 289.413 188.038 286.855 187.694C286.797 187.685 286.742 187.665 286.692 187.634C286.642 187.603 286.599 187.563 286.565 187.516C286.531 187.468 286.506 187.415 286.493 187.358C286.479 187.301 286.477 187.242 286.486 187.184C286.495 187.126 286.516 187.071 286.547 187.021C286.577 186.972 286.617 186.928 286.665 186.894C286.712 186.86 286.766 186.835 286.823 186.822C286.88 186.808 286.939 186.806 286.996 186.815C287.152 186.84 302.734 189.24 315.554 183.069C315.607 183.044 315.664 183.029 315.723 183.026C315.782 183.023 315.84 183.031 315.896 183.051C315.951 183.071 316.002 183.101 316.046 183.14C316.09 183.18 316.125 183.227 316.151 183.28C316.176 183.333 316.191 183.391 316.194 183.45C316.197 183.508 316.188 183.567 316.169 183.623C316.149 183.678 316.119 183.729 316.079 183.773C316.04 183.816 315.993 183.852 315.939 183.877C308.604 187.403 300.396 188.183 294.574 188.183Z" fill="#F1F3FF"></path><path d="M294.574 188.183V187.183L294.567 187.183L294.574 188.183ZM286.855 187.694L286.696 188.682L286.709 188.684L286.722 188.685L286.855 187.694ZM286.996 186.815L286.837 187.803L286.842 187.803L286.996 186.815ZM315.554 183.069L315.123 182.167L315.12 182.168L315.554 183.069ZM315.939 183.877L315.509 182.975L315.506 182.976L315.939 183.877ZM294.567 187.183C292.033 187.201 289.5 187.04 286.988 186.703L286.722 188.685C289.327 189.035 291.953 189.202 294.581 189.183L294.567 187.183ZM287.014 186.707C287.086 186.719 287.155 186.744 287.217 186.782L286.168 188.485C286.329 188.585 286.509 188.652 286.696 188.682L287.014 186.707ZM287.217 186.782C287.279 186.821 287.333 186.871 287.375 186.93L285.754 188.101C285.866 188.255 286.006 188.386 286.168 188.485L287.217 186.782ZM287.375 186.93C287.418 186.989 287.449 187.056 287.465 187.127L285.52 187.589C285.563 187.773 285.643 187.948 285.754 188.101L287.375 186.93ZM287.465 187.127C287.482 187.198 287.485 187.271 287.473 187.343L285.499 187.025C285.469 187.213 285.476 187.404 285.52 187.589L287.465 187.127ZM287.473 187.343C287.462 187.415 287.436 187.484 287.398 187.546L285.695 186.497C285.596 186.658 285.529 186.838 285.499 187.025L287.473 187.343ZM287.398 187.546C287.36 187.608 287.31 187.662 287.251 187.705L286.079 186.084C285.925 186.195 285.795 186.335 285.695 186.497L287.398 187.546ZM287.251 187.705C287.192 187.747 287.125 187.778 287.054 187.795L286.592 185.849C286.407 185.893 286.233 185.972 286.079 186.084L287.251 187.705ZM287.054 187.795C286.983 187.812 286.909 187.814 286.837 187.803L287.155 185.828C286.968 185.798 286.776 185.805 286.592 185.849L287.054 187.795ZM286.842 187.803C286.958 187.821 290.957 188.436 296.556 188.265C302.145 188.095 309.402 187.14 315.987 183.97L315.12 182.168C308.886 185.169 301.941 186.1 296.495 186.266C291.06 186.432 287.191 185.834 287.15 185.827L286.842 187.803ZM315.984 183.972C315.919 184.003 315.848 184.021 315.776 184.025L315.67 182.027C315.48 182.037 315.294 182.085 315.123 182.167L315.984 183.972ZM315.776 184.025C315.703 184.028 315.631 184.018 315.562 183.994L316.229 182.108C316.05 182.045 315.86 182.017 315.67 182.027L315.776 184.025ZM315.562 183.994C315.494 183.97 315.431 183.932 315.377 183.884L316.715 182.397C316.573 182.27 316.408 182.172 316.229 182.108L315.562 183.994ZM315.377 183.884C315.323 183.835 315.28 183.777 315.248 183.711L317.053 182.849C316.971 182.678 316.856 182.524 316.715 182.397L315.377 183.884ZM315.248 183.711C315.217 183.646 315.199 183.575 315.195 183.502L317.192 183.397C317.182 183.207 317.135 183.021 317.053 182.849L315.248 183.711ZM315.195 183.502C315.191 183.43 315.202 183.357 315.226 183.289L317.112 183.956C317.175 183.777 317.202 183.587 317.192 183.397L315.195 183.502ZM315.226 183.289C315.25 183.221 315.288 183.158 315.336 183.104L316.823 184.442C316.95 184.3 317.048 184.135 317.112 183.956L315.226 183.289ZM315.336 183.104C315.385 183.05 315.443 183.006 315.509 182.975L316.37 184.78C316.542 184.698 316.696 184.583 316.823 184.442L315.336 183.104ZM315.506 182.976C308.365 186.409 300.328 187.183 294.574 187.183V189.183C300.464 189.183 308.844 188.398 316.373 184.779L315.506 182.976Z" fill="#080E54" mask="url(#path-63-inside-2_646_183644)"></path><mask id="path-65-inside-3_646_183644" fill="white"><path d="M296.418 196.609C294.536 196.623 292.654 196.504 290.788 196.254C290.731 196.244 290.675 196.224 290.626 196.193C290.576 196.162 290.533 196.122 290.498 196.075C290.464 196.028 290.44 195.974 290.426 195.917C290.413 195.86 290.41 195.801 290.42 195.743C290.429 195.686 290.45 195.63 290.48 195.581C290.511 195.531 290.551 195.488 290.598 195.453C290.646 195.419 290.699 195.395 290.756 195.381C290.813 195.368 290.872 195.365 290.93 195.375C291.041 195.393 302.337 197.131 311.624 192.661C311.677 192.636 311.735 192.621 311.794 192.618C311.852 192.615 311.911 192.623 311.967 192.643C312.022 192.662 312.073 192.693 312.117 192.732C312.161 192.771 312.196 192.819 312.222 192.872C312.247 192.925 312.261 192.983 312.265 193.041C312.268 193.1 312.259 193.159 312.24 193.214C312.22 193.27 312.19 193.321 312.15 193.365C312.111 193.408 312.063 193.444 312.01 193.469C306.655 196.039 300.666 196.609 296.418 196.609Z"></path></mask><path d="M296.418 196.609C294.536 196.623 292.654 196.504 290.788 196.254C290.731 196.244 290.675 196.224 290.626 196.193C290.576 196.162 290.533 196.122 290.498 196.075C290.464 196.028 290.44 195.974 290.426 195.917C290.413 195.86 290.41 195.801 290.42 195.743C290.429 195.686 290.45 195.63 290.48 195.581C290.511 195.531 290.551 195.488 290.598 195.453C290.646 195.419 290.699 195.395 290.756 195.381C290.813 195.368 290.872 195.365 290.93 195.375C291.041 195.393 302.337 197.131 311.624 192.661C311.677 192.636 311.735 192.621 311.794 192.618C311.852 192.615 311.911 192.623 311.967 192.643C312.022 192.662 312.073 192.693 312.117 192.732C312.161 192.771 312.196 192.819 312.222 192.872C312.247 192.925 312.261 192.983 312.265 193.041C312.268 193.1 312.259 193.159 312.24 193.214C312.22 193.27 312.19 193.321 312.15 193.365C312.111 193.408 312.063 193.444 312.01 193.469C306.655 196.039 300.666 196.609 296.418 196.609Z" fill="#F1F3FF"></path><path d="M296.418 196.609V195.609L296.411 195.609L296.418 196.609ZM290.788 196.254L290.63 197.241L290.643 197.243L290.656 197.245L290.788 196.254ZM290.93 195.375L291.091 194.388L291.089 194.387L290.93 195.375ZM311.624 192.661L311.194 191.758L311.191 191.76L311.624 192.661ZM312.01 193.469L311.579 192.567L311.578 192.568L312.01 193.469ZM296.411 195.609C294.575 195.622 292.741 195.507 290.921 195.262L290.656 197.245C292.568 197.501 294.496 197.623 296.425 197.609L296.411 195.609ZM290.947 195.266C291.019 195.278 291.088 195.304 291.15 195.342L290.101 197.044C290.263 197.144 290.442 197.211 290.63 197.241L290.947 195.266ZM291.15 195.342C291.212 195.38 291.266 195.43 291.309 195.489L289.688 196.661C289.799 196.815 289.94 196.945 290.101 197.044L291.15 195.342ZM291.309 195.489C291.352 195.548 291.382 195.615 291.399 195.686L289.453 196.148C289.497 196.333 289.577 196.507 289.688 196.661L291.309 195.489ZM291.399 195.686C291.416 195.757 291.419 195.83 291.407 195.902L289.432 195.585C289.402 195.772 289.409 195.963 289.453 196.148L291.399 195.686ZM291.407 195.902C291.395 195.974 291.37 196.043 291.332 196.105L289.629 195.056C289.529 195.218 289.463 195.397 289.432 195.585L291.407 195.902ZM291.332 196.105C291.293 196.167 291.243 196.221 291.184 196.264L290.013 194.643C289.859 194.754 289.728 194.894 289.629 195.056L291.332 196.105ZM291.184 196.264C291.125 196.307 291.058 196.337 290.987 196.354L290.525 194.408C290.341 194.452 290.167 194.532 290.013 194.643L291.184 196.264ZM290.987 196.354C290.917 196.371 290.843 196.374 290.771 196.362L291.089 194.387C290.901 194.357 290.71 194.364 290.525 194.408L290.987 196.354ZM290.768 196.362C290.87 196.378 293.788 196.825 297.867 196.7C301.937 196.576 307.239 195.881 312.058 193.562L311.191 191.76C306.723 193.91 301.733 194.581 297.806 194.701C295.849 194.761 294.173 194.683 292.982 194.59C291.79 194.496 291.091 194.388 291.091 194.388L290.768 196.362ZM312.055 193.563C311.99 193.595 311.919 193.613 311.846 193.616L311.741 191.619C311.551 191.629 311.365 191.677 311.194 191.758L312.055 193.563ZM311.846 193.616C311.774 193.62 311.702 193.61 311.633 193.586L312.3 191.7C312.121 191.637 311.931 191.609 311.741 191.619L311.846 193.616ZM311.633 193.586C311.565 193.561 311.502 193.524 311.448 193.476L312.786 191.989C312.644 191.862 312.479 191.763 312.3 191.7L311.633 193.586ZM311.448 193.476C311.394 193.427 311.35 193.368 311.319 193.303L313.124 192.441C313.042 192.27 312.927 192.116 312.786 191.989L311.448 193.476ZM311.319 193.303C311.288 193.238 311.27 193.167 311.266 193.094L313.263 192.989C313.253 192.799 313.206 192.613 313.124 192.441L311.319 193.303ZM311.266 193.094C311.262 193.022 311.273 192.949 311.297 192.881L313.182 193.548C313.246 193.368 313.273 193.178 313.263 192.989L311.266 193.094ZM311.297 192.881C311.321 192.812 311.358 192.75 311.407 192.696L312.894 194.033C313.021 193.892 313.119 193.727 313.182 193.548L311.297 192.881ZM311.407 192.696C311.455 192.642 311.514 192.598 311.579 192.567L312.441 194.372C312.613 194.29 312.767 194.175 312.894 194.033L311.407 192.696ZM311.578 192.568C306.416 195.045 300.598 195.609 296.418 195.609V197.609C300.734 197.609 306.895 197.034 312.443 194.371L311.578 192.568Z" fill="#080E54" mask="url(#path-65-inside-3_646_183644)"></path><path d="M67.6004 228.334C93.4763 230.615 111.514 241.76 129.18 255.005M67.6004 228.334L129.18 255.005M67.6004 228.334C46.1991 226.448 26.1508 231.216 8.31324 238.988C21.7865 284.497 52.7141 327.584 101.33 351.128C145.977 372.75 195.802 373.179 240.13 359.97C283.881 346.933 322.234 320.623 344.937 288.36M67.6004 228.334L344.937 288.36M129.18 255.005C132.518 257.508 135.844 260.087 139.207 262.695C153.634 273.882 168.756 285.608 188.488 294.154M129.18 255.005L188.488 294.154M188.488 294.154C220.829 308.169 269.924 315.543 344.937 288.36M188.488 294.154L344.937 288.36" fill="#F9FBFD" stroke="#080E54"></path><path d="M224.864 24.7221L222.926 22.7803" stroke="#080E54" stroke-linecap="round"></path><path d="M231.653 31.514L229.713 29.5742" stroke="#080E54" stroke-linecap="round"></path><path d="M225.495 29.5742L223.557 31.514" stroke="#080E54" stroke-linecap="round"></path><path d="M232.282 22.7803L230.344 24.7221" stroke="#080E54" stroke-linecap="round"></path><path d="M204.357 55.8265C204.358 56.7972 204.745 57.7279 205.431 58.4143C206.118 59.1007 207.048 59.4868 208.019 59.4879C208.99 59.4879 209.921 59.1021 210.608 58.4155C211.295 57.7288 211.681 56.7975 211.681 55.8265C211.681 54.8554 211.295 53.9241 210.608 53.2374C209.921 52.5508 208.99 52.165 208.019 52.165" stroke="#080E54" stroke-linecap="round"></path><path d="M44.4807 179.528L42.5428 177.588" stroke="#080E54" stroke-linecap="round"></path><path d="M49.9649 183.753L51.9048 185.693" stroke="#080E54" stroke-linecap="round"></path><path d="M45.1118 184.381L43.1719 186.323" stroke="#080E54" stroke-linecap="round"></path><path d="M51.897 177.588L49.957 179.528" stroke="#080E54" stroke-linecap="round"></path><path d="M335.445 166.703C335.444 167.675 335.828 168.607 336.513 169.295C337.198 169.983 338.128 170.372 339.099 170.375L339.107 170.367C340.063 170.344 340.973 169.949 341.642 169.264C342.31 168.58 342.684 167.661 342.684 166.704C342.684 165.748 342.31 164.829 341.642 164.145C340.973 163.46 340.063 163.064 339.107 163.042" stroke="#080E54" stroke-linecap="round"></path><path d="M311.383 52.5025L318.86 22.3584" stroke="#080E54" stroke-linecap="round"></path><path d="M303.928 52.6094V36.04" stroke="#080E54" stroke-linecap="round"></path><path d="M359.023 44.623L339.438 67.7716" stroke="#080E54" stroke-linecap="round"></path><path d="M263.646 149.026L244.689 161.837" stroke="#080E54" stroke-linecap="round"></path><path d="M259.634 144.812L242.684 146.226" stroke="#080E54" stroke-linecap="round"></path><path d="M148.689 319.445L148.66 319.776L148.954 319.931L152.953 322.04L151.987 325.616L147.462 325.425L147.13 325.411L146.989 325.712C146.555 326.635 146.044 327.52 145.462 328.357L145.273 328.629L145.45 328.909L147.863 332.728L145.252 335.316L141.432 332.902L141.152 332.725L140.88 332.913C140.042 333.493 139.157 334.002 138.234 334.436L137.934 334.577L137.947 334.907L138.12 339.424L134.54 340.376L132.448 336.376L132.294 336.083L131.964 336.109C130.948 336.192 129.926 336.188 128.91 336.1L128.579 336.071L128.424 336.364L126.315 340.363L122.736 339.397L122.922 334.88L122.935 334.549L122.635 334.407C121.712 333.974 120.827 333.463 119.99 332.88L119.718 332.69L119.437 332.867L115.615 335.28L113.001 332.656L115.415 328.837L115.591 328.557L115.403 328.286C114.824 327.447 114.316 326.562 113.882 325.639L113.742 325.34L113.411 325.352L108.892 325.525L107.94 321.948L111.93 319.901L112.228 319.749L112.201 319.416C112.118 318.399 112.122 317.377 112.212 316.361L112.242 316.029L111.948 315.874L107.949 313.765L108.914 310.188L113.432 310.374L113.763 310.388L113.905 310.087C114.338 309.164 114.849 308.279 115.431 307.442L115.62 307.17L115.443 306.89L113.03 303.07L115.654 300.456L119.474 302.869L119.753 303.046L120.025 302.858C120.863 302.279 121.748 301.771 122.669 301.337L122.969 301.196L122.956 300.866L122.784 296.347L126.366 295.395L128.458 299.395L128.612 299.689L128.943 299.661C129.959 299.576 130.981 299.576 131.997 299.661L132.327 299.689L132.481 299.396L134.59 295.4L138.169 296.365L137.984 300.88L137.97 301.212L138.27 301.353C139.193 301.788 140.078 302.3 140.916 302.882L141.188 303.071L141.468 302.894L145.288 300.481L147.904 303.105L145.491 306.922L145.314 307.202L145.502 307.474C146.082 308.312 146.591 309.197 147.025 310.119L147.166 310.419L147.497 310.407L152.014 310.234L152.968 313.816L148.967 315.908L148.674 316.061L148.701 316.391C148.782 317.407 148.778 318.429 148.689 319.445ZM127.301 329.566L127.817 329.705L127.821 329.683C129.195 329.991 130.614 330.056 132.014 329.875C133.59 329.671 135.11 329.158 136.488 328.366C137.865 327.575 139.073 326.519 140.043 325.26C141.013 324.001 141.725 322.564 142.138 321.029L142.139 321.029C142.76 318.719 142.682 316.277 141.916 314.011C141.149 311.746 139.728 309.758 137.832 308.3C135.936 306.841 133.65 305.978 131.264 305.818C128.877 305.659 126.497 306.21 124.424 307.403C122.35 308.596 120.677 310.376 119.616 312.52C118.554 314.663 118.152 317.073 118.46 319.445C118.768 321.817 119.772 324.045 121.346 325.846C122.92 327.647 124.992 328.942 127.301 329.566Z" stroke="#080E54"></path><path d="M109.439 280.043L109.447 280.376L109.756 280.497L115.919 282.907L115.074 288.468L108.468 288.937L108.137 288.96L108.03 289.275C107.56 290.664 106.973 292.011 106.276 293.302L106.118 293.593L106.325 293.851L110.45 299.013L106.937 303.406L100.983 300.51L100.685 300.364L100.435 300.583C99.3322 301.547 98.1502 302.417 96.9017 303.184L96.6194 303.358L96.6691 303.685L97.662 310.229L92.4232 312.276L88.7208 306.8L88.5352 306.525L88.2102 306.589C86.7725 306.871 85.3135 307.031 83.8488 307.067L83.5169 307.075L83.3955 307.384L80.9751 313.547L75.4119 312.701L74.945 306.099L74.9216 305.767L74.6067 305.66C73.2174 305.19 71.8703 304.603 70.5797 303.906L70.2886 303.749L70.03 303.955L64.8662 308.08L60.4831 304.573L63.3856 298.614L63.5307 298.316L63.3129 298.066C62.3501 296.962 61.4804 295.78 60.7128 294.532L60.5393 294.25L60.2119 294.3L53.6674 295.293L51.6132 290.056L57.0892 286.354L57.3637 286.168L57.2998 285.843C57.0174 284.406 56.8575 282.947 56.822 281.482L56.814 281.15L56.5043 281.029L50.3415 278.618L51.1873 273.055L57.7866 272.583L58.1175 272.559L58.2243 272.245C58.6965 270.856 59.2842 269.509 59.9812 268.218L60.1384 267.927L59.9319 267.668L55.8064 262.504L59.3224 258.105L65.2735 261.002L65.5712 261.147L65.8208 260.929C66.9258 259.966 68.1086 259.097 69.3572 258.329L69.6394 258.156L69.5897 257.828L68.5969 251.285L73.8413 249.245L77.5421 254.72L77.7273 254.994L78.0519 254.93C79.4904 254.65 80.9497 254.49 82.4148 254.453L82.7466 254.444L82.8676 254.135L85.2781 247.972L90.8408 248.82L91.3077 255.421L91.3312 255.752L91.6458 255.859C93.0352 256.33 94.3823 256.918 95.6728 257.616L95.9642 257.773L96.2228 257.566L101.385 253.439L105.778 256.955L102.881 262.906L102.736 263.204L102.954 263.453C103.918 264.557 104.788 265.739 105.556 266.987L105.73 267.269L106.057 267.22L112.601 266.231L114.648 271.471L109.172 275.172L108.897 275.357L108.961 275.682C109.243 277.12 109.403 278.579 109.439 280.043ZM71.6387 293.339C74.1267 295.612 77.2329 297.096 80.5645 297.604C82.7768 297.941 85.0338 297.839 87.2067 297.304C89.3796 296.769 91.4259 295.811 93.2286 294.485C95.0313 293.16 96.5551 291.492 97.7131 289.577C98.8711 287.662 99.6406 285.538 99.9776 283.325C100.485 279.994 99.9932 276.587 98.5643 273.535C97.1353 270.483 94.8334 267.923 91.9496 266.179C89.0658 264.435 85.7296 263.586 82.363 263.738C78.9963 263.89 75.7504 265.037 73.0356 267.034C70.3208 269.031 68.2591 271.787 67.1112 274.956C65.9633 278.124 65.7808 281.562 66.5866 284.834C67.3925 288.106 69.1506 291.066 71.6387 293.339Z" stroke="#080E54"></path><path d="M160.111 343.454C170.678 351.631 199.198 364.954 228.747 352.826C265.683 337.665 270.507 314.787 272.85 303.761C275.193 292.735 277.122 243.119 306.892 232.782C336.662 222.446 349.479 255.937 336.248 265.033C323.017 274.129 307.306 280.607 292.559 255.937C280.761 236.201 290.399 215.095 296.693 207.01" stroke="#080E54" stroke-dasharray="3 6"></path></svg>