<?xml version="1.0" encoding="UTF-8"?>
<svg xmlns="http://www.w3.org/2000/svg" width="20" height="20" viewBox="0 0 20 20" fill="none">
  <path fill-rule="evenodd" clip-rule="evenodd" d="M5 1C5 0.447715 4.55228 0 4 0C3.44772 0 3 0.447715 3 1V12.126C1.27477 12.5701 0 14.1362 0 16C0 18.2091 1.79086 20 4 20C5.8779 20 7.45354 18.7059 7.88384 16.9609C10.212 16.7544 12.4052 15.737 14.0711 14.0711C15.737 12.4052 16.7544 10.212 16.9609 7.88384C18.7059 7.45354 20 5.8779 20 4C20 1.79086 18.2091 0 16 0C13.7909 0 12 1.79086 12 4C12 5.84705 13.2519 7.4017 14.9535 7.86171C14.758 9.66656 13.9526 11.3611 12.6569 12.6569C11.3611 13.9526 9.66657 14.758 7.86171 14.9535C7.48769 13.57 6.39006 12.4838 5 12.126V1ZM6 16C6 14.8954 5.10457 14 4 14C2.89543 14 2 14.8954 2 16C2 17.1046 2.89543 18 4 18C5.10457 18 6 17.1046 6 16ZM16 6C17.1046 6 18 5.10457 18 4C18 2.89543 17.1046 2 16 2C14.8954 2 14 2.89543 14 4C14 5.10457 14.8954 6 16 6Z" fill="#47EEC7"></path>
  <path fill-rule="evenodd" clip-rule="evenodd" d="M5 1C5 0.447715 4.55228 0 4 0C3.44772 0 3 0.447715 3 1V12.126C1.27477 12.5701 0 14.1362 0 16C0 18.2091 1.79086 20 4 20C5.8779 20 7.45354 18.7059 7.88384 16.9609C10.212 16.7544 12.4052 15.737 14.0711 14.0711C15.737 12.4052 16.7544 10.212 16.9609 7.88384C18.7059 7.45354 20 5.8779 20 4C20 1.79086 18.2091 0 16 0C13.7909 0 12 1.79086 12 4C12 5.84705 13.2519 7.4017 14.9535 7.86171C14.758 9.66656 13.9526 11.3611 12.6569 12.6569C11.3611 13.9526 9.66657 14.758 7.86171 14.9535C7.48769 13.57 6.39006 12.4838 5 12.126V1ZM6 16C6 14.8954 5.10457 14 4 14C2.89543 14 2 14.8954 2 16C2 17.1046 2.89543 18 4 18C5.10457 18 6 17.1046 6 16ZM16 6C17.1046 6 18 5.10457 18 4C18 2.89543 17.1046 2 16 2C14.8954 2 14 2.89543 14 4C14 5.10457 14.8954 6 16 6Z" fill="white"></path>
</svg>
