<svg xmlns="http://www.w3.org/2000/svg" width="20" height="20" viewBox="0 0 20 20" fill="none"><path d="M13.334 6.66797C14.6601 6.66797 15.9318 7.19475 16.8695 8.13243C17.8072 9.07012 18.334 10.3419 18.334 11.668V17.5013H15.0007V11.668C15.0007 11.2259 14.8251 10.802 14.5125 10.4895C14.1999 10.1769 13.776 10.0013 13.334 10.0013C12.892 10.0013 12.468 10.1769 12.1555 10.4895C11.8429 10.802 11.6673 11.2259 11.6673 11.668V17.5013H8.33398V11.668C8.33398 10.3419 8.86077 9.07012 9.79845 8.13243C10.7361 7.19475 12.0079 6.66797 13.334 6.66797Z" stroke="white" stroke-linecap="round" stroke-linejoin="round"></path><path d="M5.0013 7.5H1.66797V17.5H5.0013V7.5Z" stroke="white" stroke-linecap="round" stroke-linejoin="round"></path><path d="M3.33268 5.0013C4.25316 5.0013 4.99935 4.25511 4.99935 3.33464C4.99935 2.41416 4.25316 1.66797 3.33268 1.66797C2.41221 1.66797 1.66602 2.41416 1.66602 3.33464C1.66602 4.25511 2.41221 5.0013 3.33268 5.0013Z" stroke="white" stroke-linecap="round" stroke-linejoin="round"></path></svg>