<?xml version="1.0" encoding="UTF-8"?>
<svg xmlns="http://www.w3.org/2000/svg" width="102" height="74" viewBox="0 0 102 74" fill="none">
  <path fill-rule="evenodd" clip-rule="evenodd" d="M64.082 8.38999C64.0024 3.27263 58.9337 -0.263575 54.1035 1.42839L22.5206 12.4915C19.5133 13.5449 17.5 16.3834 17.5 19.5698V72.1997H64.5V35.2478L64.082 8.38999ZM85 72.1997V72.199V40.812C85 37.1778 82.5504 34.0002 79.0358 33.0754L65.5 29.5136L65.4105 29.4901L65.0819 8.37443C64.9917 2.57475 59.2471 -1.43294 53.7729 0.484614L22.19 11.5477C18.7818 12.7416 16.5 15.9586 16.5 19.5698V72.1997H0.499413C0.223595 72.1997 0 72.4233 0 72.6991C0 72.975 0.223596 73.1986 0.499415 73.1986H16.5V73.2H17H65H65.5V73.199H65.5002L84 73.199H85V73.1986H101.501C101.776 73.1986 102 72.975 102 72.6991C102 72.4233 101.776 72.1997 101.501 72.1997H85ZM65.5001 35.244L65.5 35.2416L65.5 30.5477L78.7813 34.0424C81.8566 34.8517 84 37.6321 84 40.812V72.199H65.5002L65.5001 35.244Z" fill="#005CBE"></path>
  <ellipse cx="17" cy="31.2482" rx="4" ry="3.99531" fill="#47EEC7"></ellipse>
</svg>
