<?xml version="1.0" encoding="UTF-8"?>
<svg xmlns="http://www.w3.org/2000/svg" width="22" height="20" viewBox="0 0 22 20" fill="none">
  <path fill-rule="evenodd" clip-rule="evenodd" d="M2.29289 2.29289C2.48043 2.10536 2.73478 2 3 2H19C19.2652 2 19.5196 2.10536 19.7071 2.29289C19.8946 2.48043 20 2.73478 20 3V13C20 13.2652 19.8946 13.5196 19.7071 13.7071C19.5196 13.8946 19.2652 14 19 14H18C17.4477 14 17 14.4477 17 15C17 15.5523 17.4477 16 18 16H19C19.7957 16 20.5587 15.6839 21.1213 15.1213C21.6839 14.5587 22 13.7957 22 13V3C22 2.20435 21.6839 1.44129 21.1213 0.87868C20.5587 0.31607 19.7957 0 19 0H3C2.20435 0 1.44129 0.31607 0.87868 0.87868C0.31607 1.44129 0 2.20435 0 3V13C0 13.7956 0.31607 14.5587 0.87868 15.1213C1.44129 15.6839 2.20435 16 3 16H4C4.55228 16 5 15.5523 5 15C5 14.4477 4.55228 14 4 14H3C2.73478 14 2.48043 13.8946 2.29289 13.7071C2.10536 13.5196 2 13.2652 2 13V3C2 2.73478 2.10536 2.48043 2.29289 2.29289ZM11.7682 12.3598C11.5782 12.1318 11.2968 12 11 12C10.7032 12 10.4218 12.1318 10.2318 12.3598L5.23178 18.3598C4.98338 18.6579 4.92983 19.0728 5.09441 19.4242C5.25899 19.7755 5.61198 20 6 20H16C16.388 20 16.741 19.7755 16.9056 19.4242C17.0702 19.0728 17.0166 18.6579 16.7682 18.3598L11.7682 12.3598ZM11 14.562L13.865 18H8.13504L11 14.562Z" fill="#47EEC7"></path>
  <path fill-rule="evenodd" clip-rule="evenodd" d="M2.29289 2.29289C2.48043 2.10536 2.73478 2 3 2H19C19.2652 2 19.5196 2.10536 19.7071 2.29289C19.8946 2.48043 20 2.73478 20 3V13C20 13.2652 19.8946 13.5196 19.7071 13.7071C19.5196 13.8946 19.2652 14 19 14H18C17.4477 14 17 14.4477 17 15C17 15.5523 17.4477 16 18 16H19C19.7957 16 20.5587 15.6839 21.1213 15.1213C21.6839 14.5587 22 13.7957 22 13V3C22 2.20435 21.6839 1.44129 21.1213 0.87868C20.5587 0.31607 19.7957 0 19 0H3C2.20435 0 1.44129 0.31607 0.87868 0.87868C0.31607 1.44129 0 2.20435 0 3V13C0 13.7956 0.31607 14.5587 0.87868 15.1213C1.44129 15.6839 2.20435 16 3 16H4C4.55228 16 5 15.5523 5 15C5 14.4477 4.55228 14 4 14H3C2.73478 14 2.48043 13.8946 2.29289 13.7071C2.10536 13.5196 2 13.2652 2 13V3C2 2.73478 2.10536 2.48043 2.29289 2.29289ZM11.7682 12.3598C11.5782 12.1318 11.2968 12 11 12C10.7032 12 10.4218 12.1318 10.2318 12.3598L5.23178 18.3598C4.98338 18.6579 4.92983 19.0728 5.09441 19.4242C5.25899 19.7755 5.61198 20 6 20H16C16.388 20 16.741 19.7755 16.9056 19.4242C17.0702 19.0728 17.0166 18.6579 16.7682 18.3598L11.7682 12.3598ZM11 14.562L13.865 18H8.13504L11 14.562Z" fill="white"></path>
</svg>
