<?xml version="1.0" encoding="UTF-8"?>
<svg xmlns="http://www.w3.org/2000/svg" width="218" height="57" viewBox="0 0 218 57" fill="none">
  <path d="M65.5352 16.2231H68.9845V35.7485H65.5352V16.2231Z" fill="white"></path>
  <path d="M80.0823 35.9717C78.6083 35.9717 77.3111 35.6741 76.1908 35.0791C75.0902 34.4654 74.2352 33.61 73.6259 32.5129C73.0166 31.3972 72.712 30.1141 72.712 28.6636V23.3081C72.712 21.8576 73.0166 20.5838 73.6259 19.4867C74.2549 18.3709 75.1295 17.5155 76.2498 16.9205C77.3897 16.3068 78.6967 16 80.1708 16H83.4137C84.8288 16 86.0769 16.2789 87.1578 16.8368C88.2388 17.3761 89.0741 18.1478 89.6638 19.152C90.2534 20.1375 90.5482 21.2811 90.5482 22.5828H87.1578C87.1578 21.4671 86.8139 20.5745 86.126 19.9051C85.4381 19.217 84.534 18.873 83.4137 18.873H80.1708C78.9719 18.873 77.999 19.2914 77.2521 20.1282C76.5249 20.9464 76.1613 22.0436 76.1613 23.4196V28.552C76.1613 29.9281 76.5151 31.0345 77.2226 31.8713C77.9499 32.6895 78.9031 33.0986 80.0823 33.0986H83.4432C84.5831 33.0986 85.5167 32.7174 86.2439 31.955C86.9711 31.1926 87.3347 30.2163 87.3347 29.0262V28.0778H81.6154V25.2327H90.7251V29.0262C90.7251 30.3837 90.4204 31.5924 89.8112 32.6524C89.2019 33.6937 88.3469 34.5119 87.2463 35.107C86.1457 35.6834 84.878 35.9717 83.4432 35.9717H80.0823Z" fill="white"></path>
  <path d="M94.0307 16.2231H97.1262L107.563 30.5046V16.2231H110.923V35.7485H107.798L97.3915 21.5229V35.7485H94.0307V16.2231Z" fill="white"></path>
  <path d="M115.227 16.2231H118.677V35.7485H115.227V16.2231Z" fill="white"></path>
  <path d="M128.065 19.0404H121.52V16.2231H138.059V19.0404H131.514V35.7485H128.065V19.0404Z" fill="white"></path>
  <path d="M143.12 35.7485C142.354 35.7485 141.734 35.5347 141.263 35.107C140.811 34.6607 140.585 34.0842 140.585 33.3776V16.2231H155.709V19.0404H144.034V24.3401H154.824V27.1852H144.034V32.9313H155.709V35.7485H143.12Z" fill="white"></path>
  <path d="M158.838 16.2231H162.287V24.5075H172.488V16.2231H175.907V35.7485H172.488V27.3526H162.287V35.7485H158.838V16.2231Z" fill="white"></path>
  <path d="M186.781 35.9717C185.406 35.9717 184.187 35.6927 183.126 35.1349C182.064 34.5584 181.239 33.7588 180.649 32.736C180.079 31.6947 179.794 30.4953 179.794 29.1378V16.2231H183.244V29.082C183.244 30.2907 183.568 31.267 184.216 32.0108C184.865 32.736 185.72 33.0986 186.781 33.0986H189.936C191.017 33.0986 191.882 32.736 192.53 32.0108C193.198 31.267 193.533 30.2907 193.533 29.082V16.2231H196.982V29.1378C196.982 30.4953 196.687 31.6947 196.097 32.736C195.508 33.7588 194.682 34.5584 193.621 35.1349C192.56 35.6927 191.331 35.9717 189.936 35.9717H186.781Z" fill="white"></path>
  <path d="M203.407 35.7485C202.66 35.7485 202.051 35.5347 201.579 35.107C201.107 34.6607 200.872 34.0935 200.872 33.4055V16.2231H210.63C212.458 16.2231 213.922 16.6415 215.023 17.4783C216.143 18.2966 216.703 19.3844 216.703 20.7419V22.1644C216.703 22.8153 216.536 23.4289 216.202 24.0054C215.868 24.5819 215.406 25.0468 214.816 25.4001V25.428C215.779 25.7255 216.546 26.2276 217.116 26.9342C217.705 27.6408 218 28.4405 218 29.333V30.7277C218 32.2711 217.44 33.4985 216.32 34.4096C215.199 35.3022 213.686 35.7485 211.78 35.7485H203.407ZM210.807 24.5633C211.534 24.5633 212.124 24.3401 212.576 23.8938C213.028 23.4475 213.254 22.8711 213.254 22.1644V21.0208C213.254 20.4258 212.998 19.9516 212.487 19.5982C211.996 19.2449 211.337 19.0683 210.512 19.0683H204.321V24.5633H210.807ZM211.485 32.9034C212.448 32.9034 213.195 32.6988 213.725 32.2897C214.276 31.8806 214.551 31.3135 214.551 30.5882V29.333C214.551 28.7008 214.315 28.1987 213.843 27.8268C213.372 27.4363 212.743 27.241 211.957 27.241H204.321V32.9034H211.485Z" fill="white"></path>
  <path d="M29.6952 0C28.8403 3.23402 30.1939 8.01766 30.9775 10.1063L31.8324 8.69142C31.3195 8.36802 30.0514 2.76239 29.6952 0Z" fill="#47EEC7"></path>
  <mask id="mask0_147_90974" style="mask-type:alpha" maskUnits="userSpaceOnUse" x="0" y="8" width="54" height="49">
    <rect y="8.08594" width="53.4081" height="48.9145" fill="#47EEC7"></rect>
  </mask>
  <g mask="url(#mask0_147_90974)">
    <path fill-rule="evenodd" clip-rule="evenodd" d="M30.7492 56.5981C39.7061 51.1401 45.486 40.0232 39.7061 29.6252C35.031 21.2146 31.8536 14.1932 30.3083 8.02013C43.2928 9.31823 53.41 19.7117 53.41 32.3408C53.41 45.8482 41.8368 56.7981 27.5605 56.7981C26.6426 56.7981 25.7359 56.7528 24.8427 56.6645C30.163 53.8656 36.0193 41.4804 30.9785 32.1406C30.305 30.8927 29.6862 29.7559 29.1179 28.712L29.1175 28.7114C24.208 19.6926 23.0741 17.6097 23.0741 10.7152L23.0425 10.7635C21.3421 13.3639 18.4103 17.8474 21.2672 24.0092C21.9507 25.4833 22.8496 26.9618 23.7896 28.5079C27.7769 35.0661 32.5033 42.8399 24.6576 56.6456C22.679 56.4364 20.7678 56.0158 18.9499 55.4084C25.8615 52.8289 28.1908 40.274 23.9283 35.1709C23.5943 34.7709 23.2716 34.3937 22.9604 34.0297C20.1083 30.6951 18.2132 28.4793 17.3057 20.2135C17.1362 20.882 16.9582 21.532 16.784 22.1681C15.6414 26.341 14.6626 29.9155 17.3057 34.1602C17.6673 34.7408 18.0399 35.3163 18.4119 35.8908C21.9354 41.3325 25.3981 46.6803 18.7753 55.3494C8.82363 51.9473 1.71094 42.93 1.71094 32.3408C1.71094 19.2409 12.5966 8.54643 26.2763 7.91323C25.7238 11.1178 25.8304 14.8007 27.4694 18.3355C28.2461 20.0108 29.239 21.6803 30.2706 23.4149C34.8536 31.121 40.2 40.1107 30.7492 56.5981ZM18.7753 55.3494C18.8334 55.3692 18.8916 55.3889 18.9499 55.4084C18.8506 55.4454 18.7504 55.4804 18.6492 55.5133C18.6917 55.4585 18.7337 55.4039 18.7753 55.3494ZM24.6576 56.6456C24.6284 56.6969 24.5991 56.7484 24.5695 56.8C24.6604 56.7577 24.7515 56.7125 24.8427 56.6645C24.7809 56.6584 24.7193 56.6521 24.6576 56.6456ZM26.2763 7.91323C26.7017 7.89354 27.1299 7.88357 27.5605 7.88357C28.4887 7.88357 29.4054 7.92986 30.3083 8.02013C29.6048 5.2094 29.2396 2.57453 29.2255 0.0644531C28.1974 1.63696 26.864 4.5045 26.2763 7.91323Z" fill="#47EEC7"></path>
  </g>
</svg>
