<svg xmlns="http://www.w3.org/2000/svg" width="32" height="35" viewBox="0 0 32 35" fill="none"><path d="M17.7927 0C17.2804 1.94263 18.0914 4.8161 18.561 6.07072L19.0732 5.22082C18.7659 5.02655 18.0061 1.65933 17.7927 0Z" fill="#47EEC7"></path><mask id="mask0_599_22687" style="mask-type:alpha" maskUnits="userSpaceOnUse" x="0" y="4" width="32" height="31"><rect y="4.85742" width="32" height="29.3823" fill="#47EEC7"></rect></mask><g mask="url(#mask0_599_22687)"><path fill-rule="evenodd" clip-rule="evenodd" d="M18.422 33.9981C23.7887 30.7195 27.2517 24.0418 23.7887 17.7958C20.9877 12.744 19.084 8.52656 18.1581 4.81863C25.9377 5.59847 31.9994 11.8416 31.9994 19.4277C31.9994 27.5414 25.0652 34.1189 16.5114 34.1189C15.9602 34.1189 15.4156 34.0915 14.8793 34.0383C18.0677 32.3598 21.5793 24.9175 18.5583 19.3057C18.1549 18.5564 17.7843 17.8738 17.4439 17.2469L17.4433 17.2458C14.5017 11.8283 13.8223 10.5771 13.8223 6.43574L13.8034 6.46474C12.7845 8.02677 11.0279 10.7199 12.7397 14.4213C13.1492 15.3067 13.6878 16.1948 14.251 17.1235C16.6402 21.0632 19.4722 25.7332 14.7702 34.027C13.5841 33.9012 12.4386 33.6483 11.349 33.283C15.4915 31.735 16.8879 24.1917 14.3337 21.1259C14.1335 20.8857 13.9402 20.6591 13.7537 20.4405C12.0448 18.4374 10.9094 17.1064 10.3657 12.1413C10.2641 12.5428 10.1574 12.9332 10.0531 13.3153C9.36844 15.8219 8.78198 17.9691 10.3657 20.5188C10.5823 20.8676 10.8056 21.2133 11.0284 21.5584C13.1397 24.8273 15.2145 28.0399 11.2454 33.2479C5.28398 31.2037 1.02344 25.7876 1.02344 19.4277C1.02344 11.5588 7.54562 5.1348 15.7419 4.7544C15.411 6.67918 15.475 8.89116 16.4569 11.0142C16.9223 12.0206 17.5172 13.0234 18.1353 14.0653C20.8812 18.6943 24.0846 24.0943 18.422 33.9981ZM11.2454 33.2479C11.2799 33.2597 11.3144 33.2714 11.349 33.283C11.2901 33.305 11.2306 33.3258 11.1706 33.3454C11.1958 33.3128 11.2207 33.2803 11.2454 33.2479ZM14.7702 34.027L14.7183 34.1182C14.7718 34.0932 14.8255 34.0666 14.8793 34.0383C14.8429 34.0346 14.8065 34.0309 14.7702 34.027ZM15.7419 4.7544C15.9969 4.74257 16.2534 4.73658 16.5114 4.73658C17.0676 4.73658 17.617 4.76439 18.1581 4.81863C17.7364 3.13 17.5175 1.54704 17.5091 0.0390625C16.893 0.983752 16.094 2.70652 15.7419 4.7544Z" fill="#47EEC7"></path></g></svg>