<svg xmlns="http://www.w3.org/2000/svg" width="20" height="17" viewBox="0 0 20 17" fill="none"><path d="M19.1673 1.50057C18.3693 2.06347 17.4857 2.49399 16.5507 2.77557C16.0488 2.19849 15.3818 1.78948 14.6398 1.60384C13.8979 1.4182 13.1169 1.4649 12.4024 1.73761C11.6879 2.01033 11.0744 2.4959 10.6448 3.12866C10.2153 3.76143 9.9904 4.51085 10.0007 5.27557V6.1089C8.53618 6.14687 7.08505 5.82208 5.77649 5.16344C4.46794 4.5048 3.34258 3.53276 2.50065 2.3339C2.50065 2.3339 -0.832682 9.8339 6.66732 13.1672C4.95109 14.3322 2.90662 14.9163 0.833984 14.8339C8.33398 19.0006 17.5007 14.8339 17.5007 5.25057C17.4999 5.01845 17.4776 4.7869 17.434 4.5589C18.2845 3.72014 18.8847 2.66116 19.1673 1.50057Z" stroke="white" stroke-linecap="round" stroke-linejoin="round"></path></svg>